ISO-10303-21;
HEADER;
FILE_DESCRIPTION(('FreeCAD Model'),'2;1');
FILE_NAME('Open CASCADE Shape Model','2025-05-23T22:19:29',(''),(''),
  'Open CASCADE STEP processor 7.8','FreeCAD','Unknown');
FILE_SCHEMA(('AUTOMOTIVE_DESIGN { 1 0 10303 214 1 1 1 1 }'));
ENDSEC;
DATA;
#1 = APPLICATION_PROTOCOL_DEFINITION('international standard',
  'automotive_design',2000,#2);
#2 = APPLICATION_CONTEXT(
  'core data for automotive mechanical design processes');
#3 = SHAPE_DEFINITION_REPRESENTATION(#4,#10);
#4 = PRODUCT_DEFINITION_SHAPE('','',#5);
#5 = PRODUCT_DEFINITION('design','',#6,#9);
#6 = PRODUCT_DEFINITION_FORMATION('','',#7);
#7 = PRODUCT('旋转臂上盖','旋转臂上盖','',(#8));
#8 = PRODUCT_CONTEXT('',#2,'mechanical');
#9 = PRODUCT_DEFINITION_CONTEXT('part definition',#2,'design');
#10 = ADVANCED_BREP_SHAPE_REPRESENTATION('',(#11,#15),#2189);
#11 = AXIS2_PLACEMENT_3D('',#12,#13,#14);
#12 = CARTESIAN_POINT('',(0.,0.,0.));
#13 = DIRECTION('',(0.,0.,1.));
#14 = DIRECTION('',(1.,0.,-0.));
#15 = MANIFOLD_SOLID_BREP('',#16);
#16 = CLOSED_SHELL('',(#17,#57,#90,#123,#154,#187,#220,#253,#284,#317,
    #350,#383,#414,#454,#487,#520,#551,#584,#617,#641,#672,#705,#738,
    #771,#922,#954,#978,#1003,#1035,#1059,#1084,#1109,#1127,#1152,#1170,
    #1195,#1213,#1238,#1256,#1433,#1465,#1489,#1514,#1538,#1563,#1587,
    #1612,#1629,#1661,#1685,#1710,#1734,#1759,#1783,#1808,#1825,#1837,
    #1854,#1871,#1977,#2009,#2033,#2058,#2090,#2114,#2139,#2156,#2173));
#17 = ADVANCED_FACE('',(#18),#52,.T.);
#18 = FACE_BOUND('',#19,.T.);
#19 = EDGE_LOOP('',(#20,#30,#38,#46));
#20 = ORIENTED_EDGE('',*,*,#21,.T.);
#21 = EDGE_CURVE('',#22,#24,#26,.T.);
#22 = VERTEX_POINT('',#23);
#23 = CARTESIAN_POINT('',(-46.,11.5,0.));
#24 = VERTEX_POINT('',#25);
#25 = CARTESIAN_POINT('',(-46.,11.5,8.));
#26 = LINE('',#27,#28);
#27 = CARTESIAN_POINT('',(-46.,11.5,0.));
#28 = VECTOR('',#29,1.);
#29 = DIRECTION('',(0.,0.,1.));
#30 = ORIENTED_EDGE('',*,*,#31,.T.);
#31 = EDGE_CURVE('',#24,#32,#34,.T.);
#32 = VERTEX_POINT('',#33);
#33 = CARTESIAN_POINT('',(-31.1961524227,11.5,8.));
#34 = LINE('',#35,#36);
#35 = CARTESIAN_POINT('',(-46.,11.5,8.));
#36 = VECTOR('',#37,1.);
#37 = DIRECTION('',(1.,0.,0.));
#38 = ORIENTED_EDGE('',*,*,#39,.F.);
#39 = EDGE_CURVE('',#40,#32,#42,.T.);
#40 = VERTEX_POINT('',#41);
#41 = CARTESIAN_POINT('',(-31.1961524227,11.5,0.));
#42 = LINE('',#43,#44);
#43 = CARTESIAN_POINT('',(-31.1961524227,11.5,0.));
#44 = VECTOR('',#45,1.);
#45 = DIRECTION('',(0.,0.,1.));
#46 = ORIENTED_EDGE('',*,*,#47,.F.);
#47 = EDGE_CURVE('',#22,#40,#48,.T.);
#48 = LINE('',#49,#50);
#49 = CARTESIAN_POINT('',(-46.,11.5,0.));
#50 = VECTOR('',#51,1.);
#51 = DIRECTION('',(1.,0.,0.));
#52 = PLANE('',#53);
#53 = AXIS2_PLACEMENT_3D('',#54,#55,#56);
#54 = CARTESIAN_POINT('',(-46.,11.5,0.));
#55 = DIRECTION('',(0.,1.,0.));
#56 = DIRECTION('',(1.,0.,0.));
#57 = ADVANCED_FACE('',(#58),#85,.T.);
#58 = FACE_BOUND('',#59,.F.);
#59 = EDGE_LOOP('',(#60,#61,#70,#78));
#60 = ORIENTED_EDGE('',*,*,#21,.T.);
#61 = ORIENTED_EDGE('',*,*,#62,.T.);
#62 = EDGE_CURVE('',#24,#63,#65,.T.);
#63 = VERTEX_POINT('',#64);
#64 = CARTESIAN_POINT('',(-50.,7.5,8.));
#65 = CIRCLE('',#66,4.);
#66 = AXIS2_PLACEMENT_3D('',#67,#68,#69);
#67 = CARTESIAN_POINT('',(-46.,7.5,8.));
#68 = DIRECTION('',(0.,0.,1.));
#69 = DIRECTION('',(1.,0.,0.));
#70 = ORIENTED_EDGE('',*,*,#71,.F.);
#71 = EDGE_CURVE('',#72,#63,#74,.T.);
#72 = VERTEX_POINT('',#73);
#73 = CARTESIAN_POINT('',(-50.,7.5,0.));
#74 = LINE('',#75,#76);
#75 = CARTESIAN_POINT('',(-50.,7.5,0.));
#76 = VECTOR('',#77,1.);
#77 = DIRECTION('',(0.,0.,1.));
#78 = ORIENTED_EDGE('',*,*,#79,.F.);
#79 = EDGE_CURVE('',#22,#72,#80,.T.);
#80 = CIRCLE('',#81,4.);
#81 = AXIS2_PLACEMENT_3D('',#82,#83,#84);
#82 = CARTESIAN_POINT('',(-46.,7.5,0.));
#83 = DIRECTION('',(0.,0.,1.));
#84 = DIRECTION('',(1.,0.,0.));
#85 = CYLINDRICAL_SURFACE('',#86,4.);
#86 = AXIS2_PLACEMENT_3D('',#87,#88,#89);
#87 = CARTESIAN_POINT('',(-46.,7.5,0.));
#88 = DIRECTION('',(-0.,-0.,-1.));
#89 = DIRECTION('',(1.,0.,0.));
#90 = ADVANCED_FACE('',(#91),#118,.F.);
#91 = FACE_BOUND('',#92,.T.);
#92 = EDGE_LOOP('',(#93,#94,#103,#111));
#93 = ORIENTED_EDGE('',*,*,#39,.T.);
#94 = ORIENTED_EDGE('',*,*,#95,.T.);
#95 = EDGE_CURVE('',#32,#96,#98,.T.);
#96 = VERTEX_POINT('',#97);
#97 = CARTESIAN_POINT('',(-29.46410161513,12.5,8.));
#98 = CIRCLE('',#99,2.);
#99 = AXIS2_PLACEMENT_3D('',#100,#101,#102);
#100 = CARTESIAN_POINT('',(-31.1961524227,13.5,8.));
#101 = DIRECTION('',(0.,0.,1.));
#102 = DIRECTION('',(1.,0.,0.));
#103 = ORIENTED_EDGE('',*,*,#104,.F.);
#104 = EDGE_CURVE('',#105,#96,#107,.T.);
#105 = VERTEX_POINT('',#106);
#106 = CARTESIAN_POINT('',(-29.46410161513,12.5,0.));
#107 = LINE('',#108,#109);
#108 = CARTESIAN_POINT('',(-29.46410161513,12.5,0.));
#109 = VECTOR('',#110,1.);
#110 = DIRECTION('',(0.,0.,1.));
#111 = ORIENTED_EDGE('',*,*,#112,.F.);
#112 = EDGE_CURVE('',#40,#105,#113,.T.);
#113 = CIRCLE('',#114,2.);
#114 = AXIS2_PLACEMENT_3D('',#115,#116,#117);
#115 = CARTESIAN_POINT('',(-31.1961524227,13.5,0.));
#116 = DIRECTION('',(0.,0.,1.));
#117 = DIRECTION('',(1.,0.,0.));
#118 = CYLINDRICAL_SURFACE('',#119,2.);
#119 = AXIS2_PLACEMENT_3D('',#120,#121,#122);
#120 = CARTESIAN_POINT('',(-31.1961524227,13.5,0.));
#121 = DIRECTION('',(-0.,-0.,-1.));
#122 = DIRECTION('',(1.,0.,0.));
#123 = ADVANCED_FACE('',(#124),#149,.F.);
#124 = FACE_BOUND('',#125,.F.);
#125 = EDGE_LOOP('',(#126,#127,#135,#143));
#126 = ORIENTED_EDGE('',*,*,#71,.T.);
#127 = ORIENTED_EDGE('',*,*,#128,.T.);
#128 = EDGE_CURVE('',#63,#129,#131,.T.);
#129 = VERTEX_POINT('',#130);
#130 = CARTESIAN_POINT('',(-50.,-7.5,8.));
#131 = LINE('',#132,#133);
#132 = CARTESIAN_POINT('',(-50.,7.5,8.));
#133 = VECTOR('',#134,1.);
#134 = DIRECTION('',(0.,-1.,0.));
#135 = ORIENTED_EDGE('',*,*,#136,.F.);
#136 = EDGE_CURVE('',#137,#129,#139,.T.);
#137 = VERTEX_POINT('',#138);
#138 = CARTESIAN_POINT('',(-50.,-7.5,0.));
#139 = LINE('',#140,#141);
#140 = CARTESIAN_POINT('',(-50.,-7.5,0.));
#141 = VECTOR('',#142,1.);
#142 = DIRECTION('',(0.,0.,1.));
#143 = ORIENTED_EDGE('',*,*,#144,.F.);
#144 = EDGE_CURVE('',#72,#137,#145,.T.);
#145 = LINE('',#146,#147);
#146 = CARTESIAN_POINT('',(-50.,7.5,0.));
#147 = VECTOR('',#148,1.);
#148 = DIRECTION('',(0.,-1.,0.));
#149 = PLANE('',#150);
#150 = AXIS2_PLACEMENT_3D('',#151,#152,#153);
#151 = CARTESIAN_POINT('',(-50.,7.5,0.));
#152 = DIRECTION('',(1.,0.,0.));
#153 = DIRECTION('',(0.,-1.,0.));
#154 = ADVANCED_FACE('',(#155),#182,.T.);
#155 = FACE_BOUND('',#156,.F.);
#156 = EDGE_LOOP('',(#157,#167,#174,#175));
#157 = ORIENTED_EDGE('',*,*,#158,.T.);
#158 = EDGE_CURVE('',#159,#161,#163,.T.);
#159 = VERTEX_POINT('',#160);
#160 = CARTESIAN_POINT('',(-22.53589838486,12.5,0.));
#161 = VERTEX_POINT('',#162);
#162 = CARTESIAN_POINT('',(-22.53589838486,12.5,8.));
#163 = LINE('',#164,#165);
#164 = CARTESIAN_POINT('',(-22.53589838486,12.5,0.));
#165 = VECTOR('',#166,1.);
#166 = DIRECTION('',(0.,0.,1.));
#167 = ORIENTED_EDGE('',*,*,#168,.T.);
#168 = EDGE_CURVE('',#161,#96,#169,.T.);
#169 = CIRCLE('',#170,4.);
#170 = AXIS2_PLACEMENT_3D('',#171,#172,#173);
#171 = CARTESIAN_POINT('',(-26.,10.5,8.));
#172 = DIRECTION('',(0.,0.,1.));
#173 = DIRECTION('',(1.,0.,0.));
#174 = ORIENTED_EDGE('',*,*,#104,.F.);
#175 = ORIENTED_EDGE('',*,*,#176,.F.);
#176 = EDGE_CURVE('',#159,#105,#177,.T.);
#177 = CIRCLE('',#178,4.);
#178 = AXIS2_PLACEMENT_3D('',#179,#180,#181);
#179 = CARTESIAN_POINT('',(-26.,10.5,0.));
#180 = DIRECTION('',(0.,0.,1.));
#181 = DIRECTION('',(1.,0.,0.));
#182 = CYLINDRICAL_SURFACE('',#183,4.);
#183 = AXIS2_PLACEMENT_3D('',#184,#185,#186);
#184 = CARTESIAN_POINT('',(-26.,10.5,0.));
#185 = DIRECTION('',(-0.,-0.,-1.));
#186 = DIRECTION('',(1.,0.,0.));
#187 = ADVANCED_FACE('',(#188),#215,.T.);
#188 = FACE_BOUND('',#189,.F.);
#189 = EDGE_LOOP('',(#190,#191,#200,#208));
#190 = ORIENTED_EDGE('',*,*,#136,.T.);
#191 = ORIENTED_EDGE('',*,*,#192,.T.);
#192 = EDGE_CURVE('',#129,#193,#195,.T.);
#193 = VERTEX_POINT('',#194);
#194 = CARTESIAN_POINT('',(-46.,-11.5,8.));
#195 = CIRCLE('',#196,4.);
#196 = AXIS2_PLACEMENT_3D('',#197,#198,#199);
#197 = CARTESIAN_POINT('',(-46.,-7.5,8.));
#198 = DIRECTION('',(0.,0.,1.));
#199 = DIRECTION('',(1.,0.,0.));
#200 = ORIENTED_EDGE('',*,*,#201,.F.);
#201 = EDGE_CURVE('',#202,#193,#204,.T.);
#202 = VERTEX_POINT('',#203);
#203 = CARTESIAN_POINT('',(-46.,-11.5,0.));
#204 = LINE('',#205,#206);
#205 = CARTESIAN_POINT('',(-46.,-11.5,0.));
#206 = VECTOR('',#207,1.);
#207 = DIRECTION('',(0.,0.,1.));
#208 = ORIENTED_EDGE('',*,*,#209,.F.);
#209 = EDGE_CURVE('',#137,#202,#210,.T.);
#210 = CIRCLE('',#211,4.);
#211 = AXIS2_PLACEMENT_3D('',#212,#213,#214);
#212 = CARTESIAN_POINT('',(-46.,-7.5,0.));
#213 = DIRECTION('',(0.,0.,1.));
#214 = DIRECTION('',(1.,0.,0.));
#215 = CYLINDRICAL_SURFACE('',#216,4.);
#216 = AXIS2_PLACEMENT_3D('',#217,#218,#219);
#217 = CARTESIAN_POINT('',(-46.,-7.5,0.));
#218 = DIRECTION('',(-0.,-0.,-1.));
#219 = DIRECTION('',(1.,0.,0.));
#220 = ADVANCED_FACE('',(#221),#248,.F.);
#221 = FACE_BOUND('',#222,.T.);
#222 = EDGE_LOOP('',(#223,#224,#233,#241));
#223 = ORIENTED_EDGE('',*,*,#158,.T.);
#224 = ORIENTED_EDGE('',*,*,#225,.T.);
#225 = EDGE_CURVE('',#161,#226,#228,.T.);
#226 = VERTEX_POINT('',#227);
#227 = CARTESIAN_POINT('',(-20.80384757729,11.5,8.));
#228 = CIRCLE('',#229,2.);
#229 = AXIS2_PLACEMENT_3D('',#230,#231,#232);
#230 = CARTESIAN_POINT('',(-20.80384757729,13.5,8.));
#231 = DIRECTION('',(0.,0.,1.));
#232 = DIRECTION('',(1.,0.,0.));
#233 = ORIENTED_EDGE('',*,*,#234,.F.);
#234 = EDGE_CURVE('',#235,#226,#237,.T.);
#235 = VERTEX_POINT('',#236);
#236 = CARTESIAN_POINT('',(-20.80384757729,11.5,0.));
#237 = LINE('',#238,#239);
#238 = CARTESIAN_POINT('',(-20.80384757729,11.5,0.));
#239 = VECTOR('',#240,1.);
#240 = DIRECTION('',(0.,0.,1.));
#241 = ORIENTED_EDGE('',*,*,#242,.F.);
#242 = EDGE_CURVE('',#159,#235,#243,.T.);
#243 = CIRCLE('',#244,2.);
#244 = AXIS2_PLACEMENT_3D('',#245,#246,#247);
#245 = CARTESIAN_POINT('',(-20.80384757729,13.5,0.));
#246 = DIRECTION('',(0.,0.,1.));
#247 = DIRECTION('',(1.,0.,0.));
#248 = CYLINDRICAL_SURFACE('',#249,2.);
#249 = AXIS2_PLACEMENT_3D('',#250,#251,#252);
#250 = CARTESIAN_POINT('',(-20.80384757729,13.5,0.));
#251 = DIRECTION('',(-0.,-0.,-1.));
#252 = DIRECTION('',(1.,0.,0.));
#253 = ADVANCED_FACE('',(#254),#279,.F.);
#254 = FACE_BOUND('',#255,.F.);
#255 = EDGE_LOOP('',(#256,#257,#265,#273));
#256 = ORIENTED_EDGE('',*,*,#201,.T.);
#257 = ORIENTED_EDGE('',*,*,#258,.T.);
#258 = EDGE_CURVE('',#193,#259,#261,.T.);
#259 = VERTEX_POINT('',#260);
#260 = CARTESIAN_POINT('',(-31.1961524227,-11.5,8.));
#261 = LINE('',#262,#263);
#262 = CARTESIAN_POINT('',(-46.,-11.5,8.));
#263 = VECTOR('',#264,1.);
#264 = DIRECTION('',(1.,0.,0.));
#265 = ORIENTED_EDGE('',*,*,#266,.F.);
#266 = EDGE_CURVE('',#267,#259,#269,.T.);
#267 = VERTEX_POINT('',#268);
#268 = CARTESIAN_POINT('',(-31.1961524227,-11.5,0.));
#269 = LINE('',#270,#271);
#270 = CARTESIAN_POINT('',(-31.1961524227,-11.5,0.));
#271 = VECTOR('',#272,1.);
#272 = DIRECTION('',(0.,0.,1.));
#273 = ORIENTED_EDGE('',*,*,#274,.F.);
#274 = EDGE_CURVE('',#202,#267,#275,.T.);
#275 = LINE('',#276,#277);
#276 = CARTESIAN_POINT('',(-46.,-11.5,0.));
#277 = VECTOR('',#278,1.);
#278 = DIRECTION('',(1.,0.,0.));
#279 = PLANE('',#280);
#280 = AXIS2_PLACEMENT_3D('',#281,#282,#283);
#281 = CARTESIAN_POINT('',(-46.,-11.5,0.));
#282 = DIRECTION('',(0.,1.,0.));
#283 = DIRECTION('',(1.,0.,0.));
#284 = ADVANCED_FACE('',(#285),#312,.F.);
#285 = FACE_BOUND('',#286,.T.);
#286 = EDGE_LOOP('',(#287,#297,#304,#305));
#287 = ORIENTED_EDGE('',*,*,#288,.T.);
#288 = EDGE_CURVE('',#289,#291,#293,.T.);
#289 = VERTEX_POINT('',#290);
#290 = CARTESIAN_POINT('',(-29.46410161513,-12.5,0.));
#291 = VERTEX_POINT('',#292);
#292 = CARTESIAN_POINT('',(-29.46410161513,-12.5,8.));
#293 = LINE('',#294,#295);
#294 = CARTESIAN_POINT('',(-29.46410161513,-12.5,0.));
#295 = VECTOR('',#296,1.);
#296 = DIRECTION('',(0.,0.,1.));
#297 = ORIENTED_EDGE('',*,*,#298,.T.);
#298 = EDGE_CURVE('',#291,#259,#299,.T.);
#299 = CIRCLE('',#300,2.);
#300 = AXIS2_PLACEMENT_3D('',#301,#302,#303);
#301 = CARTESIAN_POINT('',(-31.1961524227,-13.5,8.));
#302 = DIRECTION('',(0.,0.,1.));
#303 = DIRECTION('',(1.,0.,0.));
#304 = ORIENTED_EDGE('',*,*,#266,.F.);
#305 = ORIENTED_EDGE('',*,*,#306,.F.);
#306 = EDGE_CURVE('',#289,#267,#307,.T.);
#307 = CIRCLE('',#308,2.);
#308 = AXIS2_PLACEMENT_3D('',#309,#310,#311);
#309 = CARTESIAN_POINT('',(-31.1961524227,-13.5,0.));
#310 = DIRECTION('',(0.,0.,1.));
#311 = DIRECTION('',(1.,0.,0.));
#312 = CYLINDRICAL_SURFACE('',#313,2.);
#313 = AXIS2_PLACEMENT_3D('',#314,#315,#316);
#314 = CARTESIAN_POINT('',(-31.1961524227,-13.5,0.));
#315 = DIRECTION('',(-0.,-0.,-1.));
#316 = DIRECTION('',(1.,0.,0.));
#317 = ADVANCED_FACE('',(#318),#345,.T.);
#318 = FACE_BOUND('',#319,.F.);
#319 = EDGE_LOOP('',(#320,#321,#330,#338));
#320 = ORIENTED_EDGE('',*,*,#288,.T.);
#321 = ORIENTED_EDGE('',*,*,#322,.T.);
#322 = EDGE_CURVE('',#291,#323,#325,.T.);
#323 = VERTEX_POINT('',#324);
#324 = CARTESIAN_POINT('',(-22.53589838486,-12.5,8.));
#325 = CIRCLE('',#326,4.);
#326 = AXIS2_PLACEMENT_3D('',#327,#328,#329);
#327 = CARTESIAN_POINT('',(-26.,-10.5,8.));
#328 = DIRECTION('',(0.,0.,1.));
#329 = DIRECTION('',(1.,0.,0.));
#330 = ORIENTED_EDGE('',*,*,#331,.F.);
#331 = EDGE_CURVE('',#332,#323,#334,.T.);
#332 = VERTEX_POINT('',#333);
#333 = CARTESIAN_POINT('',(-22.53589838486,-12.5,0.));
#334 = LINE('',#335,#336);
#335 = CARTESIAN_POINT('',(-22.53589838486,-12.5,0.));
#336 = VECTOR('',#337,1.);
#337 = DIRECTION('',(0.,0.,1.));
#338 = ORIENTED_EDGE('',*,*,#339,.F.);
#339 = EDGE_CURVE('',#289,#332,#340,.T.);
#340 = CIRCLE('',#341,4.);
#341 = AXIS2_PLACEMENT_3D('',#342,#343,#344);
#342 = CARTESIAN_POINT('',(-26.,-10.5,0.));
#343 = DIRECTION('',(0.,0.,1.));
#344 = DIRECTION('',(1.,0.,0.));
#345 = CYLINDRICAL_SURFACE('',#346,4.);
#346 = AXIS2_PLACEMENT_3D('',#347,#348,#349);
#347 = CARTESIAN_POINT('',(-26.,-10.5,0.));
#348 = DIRECTION('',(-0.,-0.,-1.));
#349 = DIRECTION('',(1.,0.,0.));
#350 = ADVANCED_FACE('',(#351),#378,.F.);
#351 = FACE_BOUND('',#352,.T.);
#352 = EDGE_LOOP('',(#353,#363,#370,#371));
#353 = ORIENTED_EDGE('',*,*,#354,.T.);
#354 = EDGE_CURVE('',#355,#357,#359,.T.);
#355 = VERTEX_POINT('',#356);
#356 = CARTESIAN_POINT('',(-20.80384757729,-11.5,0.));
#357 = VERTEX_POINT('',#358);
#358 = CARTESIAN_POINT('',(-20.80384757729,-11.5,8.));
#359 = LINE('',#360,#361);
#360 = CARTESIAN_POINT('',(-20.80384757729,-11.5,0.));
#361 = VECTOR('',#362,1.);
#362 = DIRECTION('',(0.,0.,1.));
#363 = ORIENTED_EDGE('',*,*,#364,.T.);
#364 = EDGE_CURVE('',#357,#323,#365,.T.);
#365 = CIRCLE('',#366,2.);
#366 = AXIS2_PLACEMENT_3D('',#367,#368,#369);
#367 = CARTESIAN_POINT('',(-20.80384757729,-13.5,8.));
#368 = DIRECTION('',(0.,0.,1.));
#369 = DIRECTION('',(1.,0.,0.));
#370 = ORIENTED_EDGE('',*,*,#331,.F.);
#371 = ORIENTED_EDGE('',*,*,#372,.F.);
#372 = EDGE_CURVE('',#355,#332,#373,.T.);
#373 = CIRCLE('',#374,2.);
#374 = AXIS2_PLACEMENT_3D('',#375,#376,#377);
#375 = CARTESIAN_POINT('',(-20.80384757729,-13.5,0.));
#376 = DIRECTION('',(0.,0.,1.));
#377 = DIRECTION('',(1.,0.,0.));
#378 = CYLINDRICAL_SURFACE('',#379,2.);
#379 = AXIS2_PLACEMENT_3D('',#380,#381,#382);
#380 = CARTESIAN_POINT('',(-20.80384757729,-13.5,0.));
#381 = DIRECTION('',(-0.,-0.,-1.));
#382 = DIRECTION('',(1.,0.,0.));
#383 = ADVANCED_FACE('',(#384),#409,.T.);
#384 = FACE_BOUND('',#385,.T.);
#385 = EDGE_LOOP('',(#386,#387,#395,#403));
#386 = ORIENTED_EDGE('',*,*,#234,.T.);
#387 = ORIENTED_EDGE('',*,*,#388,.T.);
#388 = EDGE_CURVE('',#226,#389,#391,.T.);
#389 = VERTEX_POINT('',#390);
#390 = CARTESIAN_POINT('',(20.803847577293,11.5,8.));
#391 = LINE('',#392,#393);
#392 = CARTESIAN_POINT('',(-20.80384757729,11.5,8.));
#393 = VECTOR('',#394,1.);
#394 = DIRECTION('',(1.,0.,0.));
#395 = ORIENTED_EDGE('',*,*,#396,.F.);
#396 = EDGE_CURVE('',#397,#389,#399,.T.);
#397 = VERTEX_POINT('',#398);
#398 = CARTESIAN_POINT('',(20.803847577293,11.5,0.));
#399 = LINE('',#400,#401);
#400 = CARTESIAN_POINT('',(20.803847577293,11.5,0.));
#401 = VECTOR('',#402,1.);
#402 = DIRECTION('',(0.,0.,1.));
#403 = ORIENTED_EDGE('',*,*,#404,.T.);
#404 = EDGE_CURVE('',#397,#235,#405,.T.);
#405 = LINE('',#406,#407);
#406 = CARTESIAN_POINT('',(20.803847577293,11.5,0.));
#407 = VECTOR('',#408,1.);
#408 = DIRECTION('',(-1.,-0.,-0.));
#409 = PLANE('',#410);
#410 = AXIS2_PLACEMENT_3D('',#411,#412,#413);
#411 = CARTESIAN_POINT('',(0.,11.5,4.));
#412 = DIRECTION('',(0.,1.,0.));
#413 = DIRECTION('',(0.,-0.,1.));
#414 = ADVANCED_FACE('',(#415),#449,.T.);
#415 = FACE_BOUND('',#416,.F.);
#416 = EDGE_LOOP('',(#417,#427,#435,#443));
#417 = ORIENTED_EDGE('',*,*,#418,.T.);
#418 = EDGE_CURVE('',#419,#421,#423,.T.);
#419 = VERTEX_POINT('',#420);
#420 = CARTESIAN_POINT('',(46.,11.5,0.));
#421 = VERTEX_POINT('',#422);
#422 = CARTESIAN_POINT('',(46.,11.5,8.));
#423 = LINE('',#424,#425);
#424 = CARTESIAN_POINT('',(46.,11.5,0.));
#425 = VECTOR('',#426,1.);
#426 = DIRECTION('',(0.,0.,1.));
#427 = ORIENTED_EDGE('',*,*,#428,.T.);
#428 = EDGE_CURVE('',#421,#429,#431,.T.);
#429 = VERTEX_POINT('',#430);
#430 = CARTESIAN_POINT('',(31.196152422707,11.5,8.));
#431 = LINE('',#432,#433);
#432 = CARTESIAN_POINT('',(46.,11.5,8.));
#433 = VECTOR('',#434,1.);
#434 = DIRECTION('',(-1.,-0.,-0.));
#435 = ORIENTED_EDGE('',*,*,#436,.F.);
#436 = EDGE_CURVE('',#437,#429,#439,.T.);
#437 = VERTEX_POINT('',#438);
#438 = CARTESIAN_POINT('',(31.196152422707,11.5,0.));
#439 = LINE('',#440,#441);
#440 = CARTESIAN_POINT('',(31.196152422707,11.5,0.));
#441 = VECTOR('',#442,1.);
#442 = DIRECTION('',(0.,0.,1.));
#443 = ORIENTED_EDGE('',*,*,#444,.F.);
#444 = EDGE_CURVE('',#419,#437,#445,.T.);
#445 = LINE('',#446,#447);
#446 = CARTESIAN_POINT('',(46.,11.5,0.));
#447 = VECTOR('',#448,1.);
#448 = DIRECTION('',(-1.,-0.,-0.));
#449 = PLANE('',#450);
#450 = AXIS2_PLACEMENT_3D('',#451,#452,#453);
#451 = CARTESIAN_POINT('',(46.,11.5,0.));
#452 = DIRECTION('',(0.,1.,0.));
#453 = DIRECTION('',(1.,0.,0.));
#454 = ADVANCED_FACE('',(#455),#482,.T.);
#455 = FACE_BOUND('',#456,.T.);
#456 = EDGE_LOOP('',(#457,#458,#467,#475));
#457 = ORIENTED_EDGE('',*,*,#418,.T.);
#458 = ORIENTED_EDGE('',*,*,#459,.T.);
#459 = EDGE_CURVE('',#421,#460,#462,.T.);
#460 = VERTEX_POINT('',#461);
#461 = CARTESIAN_POINT('',(50.,7.5,8.));
#462 = CIRCLE('',#463,4.);
#463 = AXIS2_PLACEMENT_3D('',#464,#465,#466);
#464 = CARTESIAN_POINT('',(46.,7.5,8.));
#465 = DIRECTION('',(0.,0.,-1.));
#466 = DIRECTION('',(-1.,-0.,-0.));
#467 = ORIENTED_EDGE('',*,*,#468,.F.);
#468 = EDGE_CURVE('',#469,#460,#471,.T.);
#469 = VERTEX_POINT('',#470);
#470 = CARTESIAN_POINT('',(50.,7.5,0.));
#471 = LINE('',#472,#473);
#472 = CARTESIAN_POINT('',(50.,7.5,0.));
#473 = VECTOR('',#474,1.);
#474 = DIRECTION('',(0.,0.,1.));
#475 = ORIENTED_EDGE('',*,*,#476,.F.);
#476 = EDGE_CURVE('',#419,#469,#477,.T.);
#477 = CIRCLE('',#478,4.);
#478 = AXIS2_PLACEMENT_3D('',#479,#480,#481);
#479 = CARTESIAN_POINT('',(46.,7.5,0.));
#480 = DIRECTION('',(0.,0.,-1.));
#481 = DIRECTION('',(-1.,-0.,-0.));
#482 = CYLINDRICAL_SURFACE('',#483,4.);
#483 = AXIS2_PLACEMENT_3D('',#484,#485,#486);
#484 = CARTESIAN_POINT('',(46.,7.5,0.));
#485 = DIRECTION('',(0.,0.,-1.));
#486 = DIRECTION('',(-1.,-0.,-0.));
#487 = ADVANCED_FACE('',(#488),#515,.F.);
#488 = FACE_BOUND('',#489,.F.);
#489 = EDGE_LOOP('',(#490,#491,#500,#508));
#490 = ORIENTED_EDGE('',*,*,#436,.T.);
#491 = ORIENTED_EDGE('',*,*,#492,.T.);
#492 = EDGE_CURVE('',#429,#493,#495,.T.);
#493 = VERTEX_POINT('',#494);
#494 = CARTESIAN_POINT('',(29.464101615138,12.5,8.));
#495 = CIRCLE('',#496,2.);
#496 = AXIS2_PLACEMENT_3D('',#497,#498,#499);
#497 = CARTESIAN_POINT('',(31.196152422707,13.5,8.));
#498 = DIRECTION('',(0.,0.,-1.));
#499 = DIRECTION('',(-1.,-0.,-0.));
#500 = ORIENTED_EDGE('',*,*,#501,.F.);
#501 = EDGE_CURVE('',#502,#493,#504,.T.);
#502 = VERTEX_POINT('',#503);
#503 = CARTESIAN_POINT('',(29.464101615138,12.5,0.));
#504 = LINE('',#505,#506);
#505 = CARTESIAN_POINT('',(29.464101615138,12.5,0.));
#506 = VECTOR('',#507,1.);
#507 = DIRECTION('',(0.,0.,1.));
#508 = ORIENTED_EDGE('',*,*,#509,.F.);
#509 = EDGE_CURVE('',#437,#502,#510,.T.);
#510 = CIRCLE('',#511,2.);
#511 = AXIS2_PLACEMENT_3D('',#512,#513,#514);
#512 = CARTESIAN_POINT('',(31.196152422707,13.5,0.));
#513 = DIRECTION('',(0.,0.,-1.));
#514 = DIRECTION('',(-1.,-0.,-0.));
#515 = CYLINDRICAL_SURFACE('',#516,2.);
#516 = AXIS2_PLACEMENT_3D('',#517,#518,#519);
#517 = CARTESIAN_POINT('',(31.196152422707,13.5,0.));
#518 = DIRECTION('',(0.,0.,-1.));
#519 = DIRECTION('',(-1.,-0.,-0.));
#520 = ADVANCED_FACE('',(#521),#546,.F.);
#521 = FACE_BOUND('',#522,.T.);
#522 = EDGE_LOOP('',(#523,#524,#532,#540));
#523 = ORIENTED_EDGE('',*,*,#468,.T.);
#524 = ORIENTED_EDGE('',*,*,#525,.T.);
#525 = EDGE_CURVE('',#460,#526,#528,.T.);
#526 = VERTEX_POINT('',#527);
#527 = CARTESIAN_POINT('',(50.,-7.5,8.));
#528 = LINE('',#529,#530);
#529 = CARTESIAN_POINT('',(50.,7.5,8.));
#530 = VECTOR('',#531,1.);
#531 = DIRECTION('',(-0.,-1.,-0.));
#532 = ORIENTED_EDGE('',*,*,#533,.F.);
#533 = EDGE_CURVE('',#534,#526,#536,.T.);
#534 = VERTEX_POINT('',#535);
#535 = CARTESIAN_POINT('',(50.,-7.5,0.));
#536 = LINE('',#537,#538);
#537 = CARTESIAN_POINT('',(50.,-7.5,0.));
#538 = VECTOR('',#539,1.);
#539 = DIRECTION('',(0.,0.,1.));
#540 = ORIENTED_EDGE('',*,*,#541,.F.);
#541 = EDGE_CURVE('',#469,#534,#542,.T.);
#542 = LINE('',#543,#544);
#543 = CARTESIAN_POINT('',(50.,7.5,0.));
#544 = VECTOR('',#545,1.);
#545 = DIRECTION('',(-0.,-1.,-0.));
#546 = PLANE('',#547);
#547 = AXIS2_PLACEMENT_3D('',#548,#549,#550);
#548 = CARTESIAN_POINT('',(50.,7.5,0.));
#549 = DIRECTION('',(-1.,-0.,-0.));
#550 = DIRECTION('',(0.,1.,0.));
#551 = ADVANCED_FACE('',(#552),#579,.T.);
#552 = FACE_BOUND('',#553,.T.);
#553 = EDGE_LOOP('',(#554,#564,#571,#572));
#554 = ORIENTED_EDGE('',*,*,#555,.T.);
#555 = EDGE_CURVE('',#556,#558,#560,.T.);
#556 = VERTEX_POINT('',#557);
#557 = CARTESIAN_POINT('',(22.535898384862,12.5,0.));
#558 = VERTEX_POINT('',#559);
#559 = CARTESIAN_POINT('',(22.535898384862,12.5,8.));
#560 = LINE('',#561,#562);
#561 = CARTESIAN_POINT('',(22.535898384862,12.5,0.));
#562 = VECTOR('',#563,1.);
#563 = DIRECTION('',(0.,0.,1.));
#564 = ORIENTED_EDGE('',*,*,#565,.T.);
#565 = EDGE_CURVE('',#558,#493,#566,.T.);
#566 = CIRCLE('',#567,4.);
#567 = AXIS2_PLACEMENT_3D('',#568,#569,#570);
#568 = CARTESIAN_POINT('',(26.,10.5,8.));
#569 = DIRECTION('',(0.,0.,-1.));
#570 = DIRECTION('',(-1.,-0.,-0.));
#571 = ORIENTED_EDGE('',*,*,#501,.F.);
#572 = ORIENTED_EDGE('',*,*,#573,.F.);
#573 = EDGE_CURVE('',#556,#502,#574,.T.);
#574 = CIRCLE('',#575,4.);
#575 = AXIS2_PLACEMENT_3D('',#576,#577,#578);
#576 = CARTESIAN_POINT('',(26.,10.5,0.));
#577 = DIRECTION('',(0.,0.,-1.));
#578 = DIRECTION('',(-1.,-0.,-0.));
#579 = CYLINDRICAL_SURFACE('',#580,4.);
#580 = AXIS2_PLACEMENT_3D('',#581,#582,#583);
#581 = CARTESIAN_POINT('',(26.,10.5,0.));
#582 = DIRECTION('',(0.,0.,-1.));
#583 = DIRECTION('',(-1.,-0.,-0.));
#584 = ADVANCED_FACE('',(#585),#612,.T.);
#585 = FACE_BOUND('',#586,.T.);
#586 = EDGE_LOOP('',(#587,#588,#597,#605));
#587 = ORIENTED_EDGE('',*,*,#533,.T.);
#588 = ORIENTED_EDGE('',*,*,#589,.T.);
#589 = EDGE_CURVE('',#526,#590,#592,.T.);
#590 = VERTEX_POINT('',#591);
#591 = CARTESIAN_POINT('',(46.,-11.5,8.));
#592 = CIRCLE('',#593,4.);
#593 = AXIS2_PLACEMENT_3D('',#594,#595,#596);
#594 = CARTESIAN_POINT('',(46.,-7.5,8.));
#595 = DIRECTION('',(0.,0.,-1.));
#596 = DIRECTION('',(-1.,-0.,-0.));
#597 = ORIENTED_EDGE('',*,*,#598,.F.);
#598 = EDGE_CURVE('',#599,#590,#601,.T.);
#599 = VERTEX_POINT('',#600);
#600 = CARTESIAN_POINT('',(46.,-11.5,0.));
#601 = LINE('',#602,#603);
#602 = CARTESIAN_POINT('',(46.,-11.5,0.));
#603 = VECTOR('',#604,1.);
#604 = DIRECTION('',(0.,0.,1.));
#605 = ORIENTED_EDGE('',*,*,#606,.F.);
#606 = EDGE_CURVE('',#534,#599,#607,.T.);
#607 = CIRCLE('',#608,4.);
#608 = AXIS2_PLACEMENT_3D('',#609,#610,#611);
#609 = CARTESIAN_POINT('',(46.,-7.5,0.));
#610 = DIRECTION('',(0.,0.,-1.));
#611 = DIRECTION('',(-1.,-0.,-0.));
#612 = CYLINDRICAL_SURFACE('',#613,4.);
#613 = AXIS2_PLACEMENT_3D('',#614,#615,#616);
#614 = CARTESIAN_POINT('',(46.,-7.5,0.));
#615 = DIRECTION('',(0.,0.,-1.));
#616 = DIRECTION('',(-1.,-0.,-0.));
#617 = ADVANCED_FACE('',(#618),#636,.F.);
#618 = FACE_BOUND('',#619,.F.);
#619 = EDGE_LOOP('',(#620,#621,#628,#629));
#620 = ORIENTED_EDGE('',*,*,#555,.T.);
#621 = ORIENTED_EDGE('',*,*,#622,.T.);
#622 = EDGE_CURVE('',#558,#389,#623,.T.);
#623 = CIRCLE('',#624,2.);
#624 = AXIS2_PLACEMENT_3D('',#625,#626,#627);
#625 = CARTESIAN_POINT('',(20.803847577293,13.5,8.));
#626 = DIRECTION('',(0.,0.,-1.));
#627 = DIRECTION('',(-1.,-0.,-0.));
#628 = ORIENTED_EDGE('',*,*,#396,.F.);
#629 = ORIENTED_EDGE('',*,*,#630,.F.);
#630 = EDGE_CURVE('',#556,#397,#631,.T.);
#631 = CIRCLE('',#632,2.);
#632 = AXIS2_PLACEMENT_3D('',#633,#634,#635);
#633 = CARTESIAN_POINT('',(20.803847577293,13.5,0.));
#634 = DIRECTION('',(0.,0.,-1.));
#635 = DIRECTION('',(-1.,-0.,-0.));
#636 = CYLINDRICAL_SURFACE('',#637,2.);
#637 = AXIS2_PLACEMENT_3D('',#638,#639,#640);
#638 = CARTESIAN_POINT('',(20.803847577293,13.5,0.));
#639 = DIRECTION('',(0.,0.,-1.));
#640 = DIRECTION('',(-1.,-0.,-0.));
#641 = ADVANCED_FACE('',(#642),#667,.F.);
#642 = FACE_BOUND('',#643,.T.);
#643 = EDGE_LOOP('',(#644,#645,#653,#661));
#644 = ORIENTED_EDGE('',*,*,#598,.T.);
#645 = ORIENTED_EDGE('',*,*,#646,.T.);
#646 = EDGE_CURVE('',#590,#647,#649,.T.);
#647 = VERTEX_POINT('',#648);
#648 = CARTESIAN_POINT('',(31.196152422707,-11.5,8.));
#649 = LINE('',#650,#651);
#650 = CARTESIAN_POINT('',(46.,-11.5,8.));
#651 = VECTOR('',#652,1.);
#652 = DIRECTION('',(-1.,-0.,-0.));
#653 = ORIENTED_EDGE('',*,*,#654,.F.);
#654 = EDGE_CURVE('',#655,#647,#657,.T.);
#655 = VERTEX_POINT('',#656);
#656 = CARTESIAN_POINT('',(31.196152422707,-11.5,0.));
#657 = LINE('',#658,#659);
#658 = CARTESIAN_POINT('',(31.196152422707,-11.5,0.));
#659 = VECTOR('',#660,1.);
#660 = DIRECTION('',(0.,0.,1.));
#661 = ORIENTED_EDGE('',*,*,#662,.F.);
#662 = EDGE_CURVE('',#599,#655,#663,.T.);
#663 = LINE('',#664,#665);
#664 = CARTESIAN_POINT('',(46.,-11.5,0.));
#665 = VECTOR('',#666,1.);
#666 = DIRECTION('',(-1.,-0.,-0.));
#667 = PLANE('',#668);
#668 = AXIS2_PLACEMENT_3D('',#669,#670,#671);
#669 = CARTESIAN_POINT('',(46.,-11.5,0.));
#670 = DIRECTION('',(0.,1.,0.));
#671 = DIRECTION('',(1.,0.,0.));
#672 = ADVANCED_FACE('',(#673),#700,.F.);
#673 = FACE_BOUND('',#674,.F.);
#674 = EDGE_LOOP('',(#675,#685,#692,#693));
#675 = ORIENTED_EDGE('',*,*,#676,.T.);
#676 = EDGE_CURVE('',#677,#679,#681,.T.);
#677 = VERTEX_POINT('',#678);
#678 = CARTESIAN_POINT('',(29.464101615138,-12.5,0.));
#679 = VERTEX_POINT('',#680);
#680 = CARTESIAN_POINT('',(29.464101615138,-12.5,8.));
#681 = LINE('',#682,#683);
#682 = CARTESIAN_POINT('',(29.464101615138,-12.5,0.));
#683 = VECTOR('',#684,1.);
#684 = DIRECTION('',(0.,0.,1.));
#685 = ORIENTED_EDGE('',*,*,#686,.T.);
#686 = EDGE_CURVE('',#679,#647,#687,.T.);
#687 = CIRCLE('',#688,2.);
#688 = AXIS2_PLACEMENT_3D('',#689,#690,#691);
#689 = CARTESIAN_POINT('',(31.196152422707,-13.5,8.));
#690 = DIRECTION('',(0.,0.,-1.));
#691 = DIRECTION('',(-1.,-0.,-0.));
#692 = ORIENTED_EDGE('',*,*,#654,.F.);
#693 = ORIENTED_EDGE('',*,*,#694,.F.);
#694 = EDGE_CURVE('',#677,#655,#695,.T.);
#695 = CIRCLE('',#696,2.);
#696 = AXIS2_PLACEMENT_3D('',#697,#698,#699);
#697 = CARTESIAN_POINT('',(31.196152422707,-13.5,0.));
#698 = DIRECTION('',(0.,0.,-1.));
#699 = DIRECTION('',(-1.,-0.,-0.));
#700 = CYLINDRICAL_SURFACE('',#701,2.);
#701 = AXIS2_PLACEMENT_3D('',#702,#703,#704);
#702 = CARTESIAN_POINT('',(31.196152422707,-13.5,0.));
#703 = DIRECTION('',(0.,0.,-1.));
#704 = DIRECTION('',(-1.,-0.,-0.));
#705 = ADVANCED_FACE('',(#706),#733,.T.);
#706 = FACE_BOUND('',#707,.T.);
#707 = EDGE_LOOP('',(#708,#709,#718,#726));
#708 = ORIENTED_EDGE('',*,*,#676,.T.);
#709 = ORIENTED_EDGE('',*,*,#710,.T.);
#710 = EDGE_CURVE('',#679,#711,#713,.T.);
#711 = VERTEX_POINT('',#712);
#712 = CARTESIAN_POINT('',(22.535898384862,-12.5,8.));
#713 = CIRCLE('',#714,4.);
#714 = AXIS2_PLACEMENT_3D('',#715,#716,#717);
#715 = CARTESIAN_POINT('',(26.,-10.5,8.));
#716 = DIRECTION('',(0.,0.,-1.));
#717 = DIRECTION('',(-1.,-0.,-0.));
#718 = ORIENTED_EDGE('',*,*,#719,.F.);
#719 = EDGE_CURVE('',#720,#711,#722,.T.);
#720 = VERTEX_POINT('',#721);
#721 = CARTESIAN_POINT('',(22.535898384862,-12.5,0.));
#722 = LINE('',#723,#724);
#723 = CARTESIAN_POINT('',(22.535898384862,-12.5,0.));
#724 = VECTOR('',#725,1.);
#725 = DIRECTION('',(0.,0.,1.));
#726 = ORIENTED_EDGE('',*,*,#727,.F.);
#727 = EDGE_CURVE('',#677,#720,#728,.T.);
#728 = CIRCLE('',#729,4.);
#729 = AXIS2_PLACEMENT_3D('',#730,#731,#732);
#730 = CARTESIAN_POINT('',(26.,-10.5,0.));
#731 = DIRECTION('',(0.,0.,-1.));
#732 = DIRECTION('',(-1.,-0.,-0.));
#733 = CYLINDRICAL_SURFACE('',#734,4.);
#734 = AXIS2_PLACEMENT_3D('',#735,#736,#737);
#735 = CARTESIAN_POINT('',(26.,-10.5,0.));
#736 = DIRECTION('',(0.,0.,-1.));
#737 = DIRECTION('',(-1.,-0.,-0.));
#738 = ADVANCED_FACE('',(#739),#766,.F.);
#739 = FACE_BOUND('',#740,.F.);
#740 = EDGE_LOOP('',(#741,#751,#758,#759));
#741 = ORIENTED_EDGE('',*,*,#742,.T.);
#742 = EDGE_CURVE('',#743,#745,#747,.T.);
#743 = VERTEX_POINT('',#744);
#744 = CARTESIAN_POINT('',(20.803847577293,-11.5,0.));
#745 = VERTEX_POINT('',#746);
#746 = CARTESIAN_POINT('',(20.803847577293,-11.5,8.));
#747 = LINE('',#748,#749);
#748 = CARTESIAN_POINT('',(20.803847577293,-11.5,0.));
#749 = VECTOR('',#750,1.);
#750 = DIRECTION('',(0.,0.,1.));
#751 = ORIENTED_EDGE('',*,*,#752,.T.);
#752 = EDGE_CURVE('',#745,#711,#753,.T.);
#753 = CIRCLE('',#754,2.);
#754 = AXIS2_PLACEMENT_3D('',#755,#756,#757);
#755 = CARTESIAN_POINT('',(20.803847577293,-13.5,8.));
#756 = DIRECTION('',(0.,0.,-1.));
#757 = DIRECTION('',(-1.,-0.,-0.));
#758 = ORIENTED_EDGE('',*,*,#719,.F.);
#759 = ORIENTED_EDGE('',*,*,#760,.F.);
#760 = EDGE_CURVE('',#743,#720,#761,.T.);
#761 = CIRCLE('',#762,2.);
#762 = AXIS2_PLACEMENT_3D('',#763,#764,#765);
#763 = CARTESIAN_POINT('',(20.803847577293,-13.5,0.));
#764 = DIRECTION('',(0.,0.,-1.));
#765 = DIRECTION('',(-1.,-0.,-0.));
#766 = CYLINDRICAL_SURFACE('',#767,2.);
#767 = AXIS2_PLACEMENT_3D('',#768,#769,#770);
#768 = CARTESIAN_POINT('',(20.803847577293,-13.5,0.));
#769 = DIRECTION('',(0.,0.,-1.));
#770 = DIRECTION('',(-1.,-0.,-0.));
#771 = ADVANCED_FACE('',(#772,#803,#873,#884,#895,#906),#917,.T.);
#772 = FACE_BOUND('',#773,.T.);
#773 = EDGE_LOOP('',(#774,#775,#776,#777,#778,#779,#780,#781,#782,#783,
    #784,#785,#786,#787,#788,#789,#790,#796,#797,#798,#799,#800,#801,
    #802));
#774 = ORIENTED_EDGE('',*,*,#47,.T.);
#775 = ORIENTED_EDGE('',*,*,#112,.T.);
#776 = ORIENTED_EDGE('',*,*,#176,.F.);
#777 = ORIENTED_EDGE('',*,*,#242,.T.);
#778 = ORIENTED_EDGE('',*,*,#404,.F.);
#779 = ORIENTED_EDGE('',*,*,#630,.F.);
#780 = ORIENTED_EDGE('',*,*,#573,.T.);
#781 = ORIENTED_EDGE('',*,*,#509,.F.);
#782 = ORIENTED_EDGE('',*,*,#444,.F.);
#783 = ORIENTED_EDGE('',*,*,#476,.T.);
#784 = ORIENTED_EDGE('',*,*,#541,.T.);
#785 = ORIENTED_EDGE('',*,*,#606,.T.);
#786 = ORIENTED_EDGE('',*,*,#662,.T.);
#787 = ORIENTED_EDGE('',*,*,#694,.F.);
#788 = ORIENTED_EDGE('',*,*,#727,.T.);
#789 = ORIENTED_EDGE('',*,*,#760,.F.);
#790 = ORIENTED_EDGE('',*,*,#791,.T.);
#791 = EDGE_CURVE('',#743,#355,#792,.T.);
#792 = LINE('',#793,#794);
#793 = CARTESIAN_POINT('',(20.803847577293,-11.5,0.));
#794 = VECTOR('',#795,1.);
#795 = DIRECTION('',(-1.,-0.,-0.));
#796 = ORIENTED_EDGE('',*,*,#372,.T.);
#797 = ORIENTED_EDGE('',*,*,#339,.F.);
#798 = ORIENTED_EDGE('',*,*,#306,.T.);
#799 = ORIENTED_EDGE('',*,*,#274,.F.);
#800 = ORIENTED_EDGE('',*,*,#209,.F.);
#801 = ORIENTED_EDGE('',*,*,#144,.F.);
#802 = ORIENTED_EDGE('',*,*,#79,.F.);
#803 = FACE_BOUND('',#804,.T.);
#804 = EDGE_LOOP('',(#805,#816,#824,#833,#841,#850,#858,#867));
#805 = ORIENTED_EDGE('',*,*,#806,.T.);
#806 = EDGE_CURVE('',#807,#809,#811,.T.);
#807 = VERTEX_POINT('',#808);
#808 = CARTESIAN_POINT('',(-47.2,9.05,0.));
#809 = VERTEX_POINT('',#810);
#810 = CARTESIAN_POINT('',(-48.5,7.75,0.));
#811 = CIRCLE('',#812,1.3);
#812 = AXIS2_PLACEMENT_3D('',#813,#814,#815);
#813 = CARTESIAN_POINT('',(-47.2,7.75,0.));
#814 = DIRECTION('',(0.,0.,1.));
#815 = DIRECTION('',(1.,0.,0.));
#816 = ORIENTED_EDGE('',*,*,#817,.T.);
#817 = EDGE_CURVE('',#809,#818,#820,.T.);
#818 = VERTEX_POINT('',#819);
#819 = CARTESIAN_POINT('',(-48.5,-7.75,0.));
#820 = LINE('',#821,#822);
#821 = CARTESIAN_POINT('',(-48.5,7.75,0.));
#822 = VECTOR('',#823,1.);
#823 = DIRECTION('',(0.,-1.,0.));
#824 = ORIENTED_EDGE('',*,*,#825,.T.);
#825 = EDGE_CURVE('',#818,#826,#828,.T.);
#826 = VERTEX_POINT('',#827);
#827 = CARTESIAN_POINT('',(-47.2,-9.05,0.));
#828 = CIRCLE('',#829,1.3);
#829 = AXIS2_PLACEMENT_3D('',#830,#831,#832);
#830 = CARTESIAN_POINT('',(-47.2,-7.75,0.));
#831 = DIRECTION('',(0.,0.,1.));
#832 = DIRECTION('',(1.,0.,0.));
#833 = ORIENTED_EDGE('',*,*,#834,.T.);
#834 = EDGE_CURVE('',#826,#835,#837,.T.);
#835 = VERTEX_POINT('',#836);
#836 = CARTESIAN_POINT('',(47.2,-9.05,0.));
#837 = LINE('',#838,#839);
#838 = CARTESIAN_POINT('',(-47.2,-9.05,0.));
#839 = VECTOR('',#840,1.);
#840 = DIRECTION('',(1.,0.,0.));
#841 = ORIENTED_EDGE('',*,*,#842,.F.);
#842 = EDGE_CURVE('',#843,#835,#845,.T.);
#843 = VERTEX_POINT('',#844);
#844 = CARTESIAN_POINT('',(48.5,-7.75,0.));
#845 = CIRCLE('',#846,1.3);
#846 = AXIS2_PLACEMENT_3D('',#847,#848,#849);
#847 = CARTESIAN_POINT('',(47.2,-7.75,0.));
#848 = DIRECTION('',(0.,0.,-1.));
#849 = DIRECTION('',(-1.,-0.,-0.));
#850 = ORIENTED_EDGE('',*,*,#851,.F.);
#851 = EDGE_CURVE('',#852,#843,#854,.T.);
#852 = VERTEX_POINT('',#853);
#853 = CARTESIAN_POINT('',(48.5,7.75,0.));
#854 = LINE('',#855,#856);
#855 = CARTESIAN_POINT('',(48.5,7.75,0.));
#856 = VECTOR('',#857,1.);
#857 = DIRECTION('',(-0.,-1.,-0.));
#858 = ORIENTED_EDGE('',*,*,#859,.F.);
#859 = EDGE_CURVE('',#860,#852,#862,.T.);
#860 = VERTEX_POINT('',#861);
#861 = CARTESIAN_POINT('',(47.2,9.05,0.));
#862 = CIRCLE('',#863,1.3);
#863 = AXIS2_PLACEMENT_3D('',#864,#865,#866);
#864 = CARTESIAN_POINT('',(47.2,7.75,0.));
#865 = DIRECTION('',(0.,0.,-1.));
#866 = DIRECTION('',(-1.,-0.,-0.));
#867 = ORIENTED_EDGE('',*,*,#868,.F.);
#868 = EDGE_CURVE('',#807,#860,#869,.T.);
#869 = LINE('',#870,#871);
#870 = CARTESIAN_POINT('',(0.,9.05,0.));
#871 = VECTOR('',#872,1.);
#872 = DIRECTION('',(1.,0.,0.));
#873 = FACE_BOUND('',#874,.T.);
#874 = EDGE_LOOP('',(#875));
#875 = ORIENTED_EDGE('',*,*,#876,.F.);
#876 = EDGE_CURVE('',#877,#877,#879,.T.);
#877 = VERTEX_POINT('',#878);
#878 = CARTESIAN_POINT('',(-26.8,-11.5,0.));
#879 = CIRCLE('',#880,0.8);
#880 = AXIS2_PLACEMENT_3D('',#881,#882,#883);
#881 = CARTESIAN_POINT('',(-26.,-11.5,0.));
#882 = DIRECTION('',(0.,0.,-1.));
#883 = DIRECTION('',(-1.,0.,0.));
#884 = FACE_BOUND('',#885,.T.);
#885 = EDGE_LOOP('',(#886));
#886 = ORIENTED_EDGE('',*,*,#887,.F.);
#887 = EDGE_CURVE('',#888,#888,#890,.T.);
#888 = VERTEX_POINT('',#889);
#889 = CARTESIAN_POINT('',(-26.8,11.5,0.));
#890 = CIRCLE('',#891,0.8);
#891 = AXIS2_PLACEMENT_3D('',#892,#893,#894);
#892 = CARTESIAN_POINT('',(-26.,11.5,0.));
#893 = DIRECTION('',(0.,0.,-1.));
#894 = DIRECTION('',(-1.,0.,0.));
#895 = FACE_BOUND('',#896,.T.);
#896 = EDGE_LOOP('',(#897));
#897 = ORIENTED_EDGE('',*,*,#898,.T.);
#898 = EDGE_CURVE('',#899,#899,#901,.T.);
#899 = VERTEX_POINT('',#900);
#900 = CARTESIAN_POINT('',(26.8,-11.5,0.));
#901 = CIRCLE('',#902,0.8);
#902 = AXIS2_PLACEMENT_3D('',#903,#904,#905);
#903 = CARTESIAN_POINT('',(26.,-11.5,0.));
#904 = DIRECTION('',(0.,0.,1.));
#905 = DIRECTION('',(1.,0.,0.));
#906 = FACE_BOUND('',#907,.T.);
#907 = EDGE_LOOP('',(#908));
#908 = ORIENTED_EDGE('',*,*,#909,.T.);
#909 = EDGE_CURVE('',#910,#910,#912,.T.);
#910 = VERTEX_POINT('',#911);
#911 = CARTESIAN_POINT('',(26.8,11.5,0.));
#912 = CIRCLE('',#913,0.8);
#913 = AXIS2_PLACEMENT_3D('',#914,#915,#916);
#914 = CARTESIAN_POINT('',(26.,11.5,0.));
#915 = DIRECTION('',(0.,0.,1.));
#916 = DIRECTION('',(1.,0.,0.));
#917 = PLANE('',#918);
#918 = AXIS2_PLACEMENT_3D('',#919,#920,#921);
#919 = CARTESIAN_POINT('',(5.5E-16,1.63E-15,0.));
#920 = DIRECTION('',(-0.,-0.,-1.));
#921 = DIRECTION('',(-1.,0.,0.));
#922 = ADVANCED_FACE('',(#923),#949,.F.);
#923 = FACE_BOUND('',#924,.T.);
#924 = EDGE_LOOP('',(#925,#933,#942,#948));
#925 = ORIENTED_EDGE('',*,*,#926,.T.);
#926 = EDGE_CURVE('',#807,#927,#929,.T.);
#927 = VERTEX_POINT('',#928);
#928 = CARTESIAN_POINT('',(-47.2,9.05,5.05));
#929 = LINE('',#930,#931);
#930 = CARTESIAN_POINT('',(-47.2,9.05,0.));
#931 = VECTOR('',#932,1.);
#932 = DIRECTION('',(0.,0.,1.));
#933 = ORIENTED_EDGE('',*,*,#934,.T.);
#934 = EDGE_CURVE('',#927,#935,#937,.T.);
#935 = VERTEX_POINT('',#936);
#936 = CARTESIAN_POINT('',(-48.5,7.75,5.05));
#937 = CIRCLE('',#938,1.3);
#938 = AXIS2_PLACEMENT_3D('',#939,#940,#941);
#939 = CARTESIAN_POINT('',(-47.2,7.75,5.05));
#940 = DIRECTION('',(0.,0.,1.));
#941 = DIRECTION('',(1.,0.,0.));
#942 = ORIENTED_EDGE('',*,*,#943,.F.);
#943 = EDGE_CURVE('',#809,#935,#944,.T.);
#944 = LINE('',#945,#946);
#945 = CARTESIAN_POINT('',(-48.5,7.75,0.));
#946 = VECTOR('',#947,1.);
#947 = DIRECTION('',(0.,0.,1.));
#948 = ORIENTED_EDGE('',*,*,#806,.F.);
#949 = CYLINDRICAL_SURFACE('',#950,1.3);
#950 = AXIS2_PLACEMENT_3D('',#951,#952,#953);
#951 = CARTESIAN_POINT('',(-47.2,7.75,0.));
#952 = DIRECTION('',(-0.,-0.,-1.));
#953 = DIRECTION('',(1.,0.,0.));
#954 = ADVANCED_FACE('',(#955),#973,.T.);
#955 = FACE_BOUND('',#956,.T.);
#956 = EDGE_LOOP('',(#957,#958,#966,#972));
#957 = ORIENTED_EDGE('',*,*,#943,.T.);
#958 = ORIENTED_EDGE('',*,*,#959,.T.);
#959 = EDGE_CURVE('',#935,#960,#962,.T.);
#960 = VERTEX_POINT('',#961);
#961 = CARTESIAN_POINT('',(-48.5,-7.75,5.05));
#962 = LINE('',#963,#964);
#963 = CARTESIAN_POINT('',(-48.5,7.75,5.05));
#964 = VECTOR('',#965,1.);
#965 = DIRECTION('',(0.,-1.,0.));
#966 = ORIENTED_EDGE('',*,*,#967,.F.);
#967 = EDGE_CURVE('',#818,#960,#968,.T.);
#968 = LINE('',#969,#970);
#969 = CARTESIAN_POINT('',(-48.5,-7.75,0.));
#970 = VECTOR('',#971,1.);
#971 = DIRECTION('',(0.,0.,1.));
#972 = ORIENTED_EDGE('',*,*,#817,.F.);
#973 = PLANE('',#974);
#974 = AXIS2_PLACEMENT_3D('',#975,#976,#977);
#975 = CARTESIAN_POINT('',(-48.5,7.75,0.));
#976 = DIRECTION('',(1.,0.,0.));
#977 = DIRECTION('',(0.,-1.,0.));
#978 = ADVANCED_FACE('',(#979),#998,.F.);
#979 = FACE_BOUND('',#980,.T.);
#980 = EDGE_LOOP('',(#981,#982,#991,#997));
#981 = ORIENTED_EDGE('',*,*,#967,.T.);
#982 = ORIENTED_EDGE('',*,*,#983,.T.);
#983 = EDGE_CURVE('',#960,#984,#986,.T.);
#984 = VERTEX_POINT('',#985);
#985 = CARTESIAN_POINT('',(-47.2,-9.05,5.05));
#986 = CIRCLE('',#987,1.3);
#987 = AXIS2_PLACEMENT_3D('',#988,#989,#990);
#988 = CARTESIAN_POINT('',(-47.2,-7.75,5.05));
#989 = DIRECTION('',(0.,0.,1.));
#990 = DIRECTION('',(1.,0.,0.));
#991 = ORIENTED_EDGE('',*,*,#992,.F.);
#992 = EDGE_CURVE('',#826,#984,#993,.T.);
#993 = LINE('',#994,#995);
#994 = CARTESIAN_POINT('',(-47.2,-9.05,0.));
#995 = VECTOR('',#996,1.);
#996 = DIRECTION('',(0.,0.,1.));
#997 = ORIENTED_EDGE('',*,*,#825,.F.);
#998 = CYLINDRICAL_SURFACE('',#999,1.3);
#999 = AXIS2_PLACEMENT_3D('',#1000,#1001,#1002);
#1000 = CARTESIAN_POINT('',(-47.2,-7.75,0.));
#1001 = DIRECTION('',(-0.,-0.,-1.));
#1002 = DIRECTION('',(1.,0.,0.));
#1003 = ADVANCED_FACE('',(#1004),#1030,.F.);
#1004 = FACE_BOUND('',#1005,.F.);
#1005 = EDGE_LOOP('',(#1006,#1014,#1023,#1029));
#1006 = ORIENTED_EDGE('',*,*,#1007,.T.);
#1007 = EDGE_CURVE('',#860,#1008,#1010,.T.);
#1008 = VERTEX_POINT('',#1009);
#1009 = CARTESIAN_POINT('',(47.2,9.05,5.05));
#1010 = LINE('',#1011,#1012);
#1011 = CARTESIAN_POINT('',(47.2,9.05,0.));
#1012 = VECTOR('',#1013,1.);
#1013 = DIRECTION('',(0.,0.,1.));
#1014 = ORIENTED_EDGE('',*,*,#1015,.T.);
#1015 = EDGE_CURVE('',#1008,#1016,#1018,.T.);
#1016 = VERTEX_POINT('',#1017);
#1017 = CARTESIAN_POINT('',(48.5,7.75,5.05));
#1018 = CIRCLE('',#1019,1.3);
#1019 = AXIS2_PLACEMENT_3D('',#1020,#1021,#1022);
#1020 = CARTESIAN_POINT('',(47.2,7.75,5.05));
#1021 = DIRECTION('',(0.,0.,-1.));
#1022 = DIRECTION('',(-1.,-0.,-0.));
#1023 = ORIENTED_EDGE('',*,*,#1024,.F.);
#1024 = EDGE_CURVE('',#852,#1016,#1025,.T.);
#1025 = LINE('',#1026,#1027);
#1026 = CARTESIAN_POINT('',(48.5,7.75,0.));
#1027 = VECTOR('',#1028,1.);
#1028 = DIRECTION('',(0.,0.,1.));
#1029 = ORIENTED_EDGE('',*,*,#859,.F.);
#1030 = CYLINDRICAL_SURFACE('',#1031,1.3);
#1031 = AXIS2_PLACEMENT_3D('',#1032,#1033,#1034);
#1032 = CARTESIAN_POINT('',(47.2,7.75,0.));
#1033 = DIRECTION('',(0.,0.,-1.));
#1034 = DIRECTION('',(-1.,-0.,-0.));
#1035 = ADVANCED_FACE('',(#1036),#1054,.T.);
#1036 = FACE_BOUND('',#1037,.F.);
#1037 = EDGE_LOOP('',(#1038,#1039,#1047,#1053));
#1038 = ORIENTED_EDGE('',*,*,#1024,.T.);
#1039 = ORIENTED_EDGE('',*,*,#1040,.T.);
#1040 = EDGE_CURVE('',#1016,#1041,#1043,.T.);
#1041 = VERTEX_POINT('',#1042);
#1042 = CARTESIAN_POINT('',(48.5,-7.75,5.05));
#1043 = LINE('',#1044,#1045);
#1044 = CARTESIAN_POINT('',(48.5,7.75,5.05));
#1045 = VECTOR('',#1046,1.);
#1046 = DIRECTION('',(-0.,-1.,-0.));
#1047 = ORIENTED_EDGE('',*,*,#1048,.F.);
#1048 = EDGE_CURVE('',#843,#1041,#1049,.T.);
#1049 = LINE('',#1050,#1051);
#1050 = CARTESIAN_POINT('',(48.5,-7.75,0.));
#1051 = VECTOR('',#1052,1.);
#1052 = DIRECTION('',(0.,0.,1.));
#1053 = ORIENTED_EDGE('',*,*,#851,.F.);
#1054 = PLANE('',#1055);
#1055 = AXIS2_PLACEMENT_3D('',#1056,#1057,#1058);
#1056 = CARTESIAN_POINT('',(48.5,7.75,0.));
#1057 = DIRECTION('',(-1.,-0.,-0.));
#1058 = DIRECTION('',(0.,1.,0.));
#1059 = ADVANCED_FACE('',(#1060),#1079,.F.);
#1060 = FACE_BOUND('',#1061,.F.);
#1061 = EDGE_LOOP('',(#1062,#1063,#1072,#1078));
#1062 = ORIENTED_EDGE('',*,*,#1048,.T.);
#1063 = ORIENTED_EDGE('',*,*,#1064,.T.);
#1064 = EDGE_CURVE('',#1041,#1065,#1067,.T.);
#1065 = VERTEX_POINT('',#1066);
#1066 = CARTESIAN_POINT('',(47.2,-9.05,5.05));
#1067 = CIRCLE('',#1068,1.3);
#1068 = AXIS2_PLACEMENT_3D('',#1069,#1070,#1071);
#1069 = CARTESIAN_POINT('',(47.2,-7.75,5.05));
#1070 = DIRECTION('',(0.,0.,-1.));
#1071 = DIRECTION('',(-1.,-0.,-0.));
#1072 = ORIENTED_EDGE('',*,*,#1073,.F.);
#1073 = EDGE_CURVE('',#835,#1065,#1074,.T.);
#1074 = LINE('',#1075,#1076);
#1075 = CARTESIAN_POINT('',(47.2,-9.05,0.));
#1076 = VECTOR('',#1077,1.);
#1077 = DIRECTION('',(0.,0.,1.));
#1078 = ORIENTED_EDGE('',*,*,#842,.F.);
#1079 = CYLINDRICAL_SURFACE('',#1080,1.3);
#1080 = AXIS2_PLACEMENT_3D('',#1081,#1082,#1083);
#1081 = CARTESIAN_POINT('',(47.2,-7.75,0.));
#1082 = DIRECTION('',(0.,0.,-1.));
#1083 = DIRECTION('',(-1.,-0.,-0.));
#1084 = ADVANCED_FACE('',(#1085),#1104,.F.);
#1085 = FACE_BOUND('',#1086,.T.);
#1086 = EDGE_LOOP('',(#1087,#1095,#1096,#1097));
#1087 = ORIENTED_EDGE('',*,*,#1088,.F.);
#1088 = EDGE_CURVE('',#877,#1089,#1091,.T.);
#1089 = VERTEX_POINT('',#1090);
#1090 = CARTESIAN_POINT('',(-26.8,-11.5,5.5));
#1091 = LINE('',#1092,#1093);
#1092 = CARTESIAN_POINT('',(-26.8,-11.5,0.));
#1093 = VECTOR('',#1094,1.);
#1094 = DIRECTION('',(6.E-17,0.,1.));
#1095 = ORIENTED_EDGE('',*,*,#876,.T.);
#1096 = ORIENTED_EDGE('',*,*,#1088,.T.);
#1097 = ORIENTED_EDGE('',*,*,#1098,.F.);
#1098 = EDGE_CURVE('',#1089,#1089,#1099,.T.);
#1099 = CIRCLE('',#1100,0.8);
#1100 = AXIS2_PLACEMENT_3D('',#1101,#1102,#1103);
#1101 = CARTESIAN_POINT('',(-26.,-11.5,5.5));
#1102 = DIRECTION('',(0.,0.,-1.));
#1103 = DIRECTION('',(-1.,0.,0.));
#1104 = CYLINDRICAL_SURFACE('',#1105,0.8);
#1105 = AXIS2_PLACEMENT_3D('',#1106,#1107,#1108);
#1106 = CARTESIAN_POINT('',(-26.,-11.5,0.));
#1107 = DIRECTION('',(0.,0.,1.));
#1108 = DIRECTION('',(-1.,0.,0.));
#1109 = ADVANCED_FACE('',(#1110),#1122,.F.);
#1110 = FACE_BOUND('',#1111,.T.);
#1111 = EDGE_LOOP('',(#1112,#1113,#1121));
#1112 = ORIENTED_EDGE('',*,*,#1098,.T.);
#1113 = ORIENTED_EDGE('',*,*,#1114,.T.);
#1114 = EDGE_CURVE('',#1089,#1115,#1117,.T.);
#1115 = VERTEX_POINT('',#1116);
#1116 = CARTESIAN_POINT('',(-26.,-11.5,5.980688495222));
#1117 = LINE('',#1118,#1119);
#1118 = CARTESIAN_POINT('',(-26.8,-11.5,5.5));
#1119 = VECTOR('',#1120,1.);
#1120 = DIRECTION('',(0.857167300702,0.,0.51503807491));
#1121 = ORIENTED_EDGE('',*,*,#1114,.F.);
#1122 = CONICAL_SURFACE('',#1123,0.8,1.029744258677);
#1123 = AXIS2_PLACEMENT_3D('',#1124,#1125,#1126);
#1124 = CARTESIAN_POINT('',(-26.,-11.5,5.5));
#1125 = DIRECTION('',(-0.,-0.,-1.));
#1126 = DIRECTION('',(-1.,0.,0.));
#1127 = ADVANCED_FACE('',(#1128),#1147,.F.);
#1128 = FACE_BOUND('',#1129,.T.);
#1129 = EDGE_LOOP('',(#1130,#1138,#1139,#1140));
#1130 = ORIENTED_EDGE('',*,*,#1131,.F.);
#1131 = EDGE_CURVE('',#888,#1132,#1134,.T.);
#1132 = VERTEX_POINT('',#1133);
#1133 = CARTESIAN_POINT('',(-26.8,11.5,5.5));
#1134 = LINE('',#1135,#1136);
#1135 = CARTESIAN_POINT('',(-26.8,11.5,0.));
#1136 = VECTOR('',#1137,1.);
#1137 = DIRECTION('',(6.E-17,0.,1.));
#1138 = ORIENTED_EDGE('',*,*,#887,.T.);
#1139 = ORIENTED_EDGE('',*,*,#1131,.T.);
#1140 = ORIENTED_EDGE('',*,*,#1141,.F.);
#1141 = EDGE_CURVE('',#1132,#1132,#1142,.T.);
#1142 = CIRCLE('',#1143,0.8);
#1143 = AXIS2_PLACEMENT_3D('',#1144,#1145,#1146);
#1144 = CARTESIAN_POINT('',(-26.,11.5,5.5));
#1145 = DIRECTION('',(0.,0.,-1.));
#1146 = DIRECTION('',(-1.,0.,0.));
#1147 = CYLINDRICAL_SURFACE('',#1148,0.8);
#1148 = AXIS2_PLACEMENT_3D('',#1149,#1150,#1151);
#1149 = CARTESIAN_POINT('',(-26.,11.5,0.));
#1150 = DIRECTION('',(0.,0.,1.));
#1151 = DIRECTION('',(-1.,0.,0.));
#1152 = ADVANCED_FACE('',(#1153),#1165,.F.);
#1153 = FACE_BOUND('',#1154,.T.);
#1154 = EDGE_LOOP('',(#1155,#1156,#1164));
#1155 = ORIENTED_EDGE('',*,*,#1141,.T.);
#1156 = ORIENTED_EDGE('',*,*,#1157,.T.);
#1157 = EDGE_CURVE('',#1132,#1158,#1160,.T.);
#1158 = VERTEX_POINT('',#1159);
#1159 = CARTESIAN_POINT('',(-26.,11.5,5.980688495222));
#1160 = LINE('',#1161,#1162);
#1161 = CARTESIAN_POINT('',(-26.8,11.5,5.5));
#1162 = VECTOR('',#1163,1.);
#1163 = DIRECTION('',(0.857167300702,0.,0.51503807491));
#1164 = ORIENTED_EDGE('',*,*,#1157,.F.);
#1165 = CONICAL_SURFACE('',#1166,0.8,1.029744258677);
#1166 = AXIS2_PLACEMENT_3D('',#1167,#1168,#1169);
#1167 = CARTESIAN_POINT('',(-26.,11.5,5.5));
#1168 = DIRECTION('',(-0.,-0.,-1.));
#1169 = DIRECTION('',(-1.,0.,0.));
#1170 = ADVANCED_FACE('',(#1171),#1190,.F.);
#1171 = FACE_BOUND('',#1172,.F.);
#1172 = EDGE_LOOP('',(#1173,#1181,#1182,#1183));
#1173 = ORIENTED_EDGE('',*,*,#1174,.F.);
#1174 = EDGE_CURVE('',#899,#1175,#1177,.T.);
#1175 = VERTEX_POINT('',#1176);
#1176 = CARTESIAN_POINT('',(26.8,-11.5,5.5));
#1177 = LINE('',#1178,#1179);
#1178 = CARTESIAN_POINT('',(26.8,-11.5,0.));
#1179 = VECTOR('',#1180,1.);
#1180 = DIRECTION('',(-6.E-17,0.,1.));
#1181 = ORIENTED_EDGE('',*,*,#898,.T.);
#1182 = ORIENTED_EDGE('',*,*,#1174,.T.);
#1183 = ORIENTED_EDGE('',*,*,#1184,.F.);
#1184 = EDGE_CURVE('',#1175,#1175,#1185,.T.);
#1185 = CIRCLE('',#1186,0.8);
#1186 = AXIS2_PLACEMENT_3D('',#1187,#1188,#1189);
#1187 = CARTESIAN_POINT('',(26.,-11.5,5.5));
#1188 = DIRECTION('',(0.,0.,1.));
#1189 = DIRECTION('',(1.,0.,0.));
#1190 = CYLINDRICAL_SURFACE('',#1191,0.8);
#1191 = AXIS2_PLACEMENT_3D('',#1192,#1193,#1194);
#1192 = CARTESIAN_POINT('',(26.,-11.5,0.));
#1193 = DIRECTION('',(0.,0.,1.));
#1194 = DIRECTION('',(1.,0.,0.));
#1195 = ADVANCED_FACE('',(#1196),#1208,.F.);
#1196 = FACE_BOUND('',#1197,.F.);
#1197 = EDGE_LOOP('',(#1198,#1199,#1207));
#1198 = ORIENTED_EDGE('',*,*,#1184,.T.);
#1199 = ORIENTED_EDGE('',*,*,#1200,.T.);
#1200 = EDGE_CURVE('',#1175,#1201,#1203,.T.);
#1201 = VERTEX_POINT('',#1202);
#1202 = CARTESIAN_POINT('',(26.,-11.5,5.980688495222));
#1203 = LINE('',#1204,#1205);
#1204 = CARTESIAN_POINT('',(26.8,-11.5,5.5));
#1205 = VECTOR('',#1206,1.);
#1206 = DIRECTION('',(-0.857167300702,0.,0.51503807491));
#1207 = ORIENTED_EDGE('',*,*,#1200,.F.);
#1208 = CONICAL_SURFACE('',#1209,0.8,1.029744258677);
#1209 = AXIS2_PLACEMENT_3D('',#1210,#1211,#1212);
#1210 = CARTESIAN_POINT('',(26.,-11.5,5.5));
#1211 = DIRECTION('',(-0.,-0.,-1.));
#1212 = DIRECTION('',(1.,0.,0.));
#1213 = ADVANCED_FACE('',(#1214),#1233,.F.);
#1214 = FACE_BOUND('',#1215,.F.);
#1215 = EDGE_LOOP('',(#1216,#1224,#1225,#1226));
#1216 = ORIENTED_EDGE('',*,*,#1217,.F.);
#1217 = EDGE_CURVE('',#910,#1218,#1220,.T.);
#1218 = VERTEX_POINT('',#1219);
#1219 = CARTESIAN_POINT('',(26.8,11.5,5.5));
#1220 = LINE('',#1221,#1222);
#1221 = CARTESIAN_POINT('',(26.8,11.5,0.));
#1222 = VECTOR('',#1223,1.);
#1223 = DIRECTION('',(-6.E-17,0.,1.));
#1224 = ORIENTED_EDGE('',*,*,#909,.T.);
#1225 = ORIENTED_EDGE('',*,*,#1217,.T.);
#1226 = ORIENTED_EDGE('',*,*,#1227,.F.);
#1227 = EDGE_CURVE('',#1218,#1218,#1228,.T.);
#1228 = CIRCLE('',#1229,0.8);
#1229 = AXIS2_PLACEMENT_3D('',#1230,#1231,#1232);
#1230 = CARTESIAN_POINT('',(26.,11.5,5.5));
#1231 = DIRECTION('',(0.,0.,1.));
#1232 = DIRECTION('',(1.,0.,0.));
#1233 = CYLINDRICAL_SURFACE('',#1234,0.8);
#1234 = AXIS2_PLACEMENT_3D('',#1235,#1236,#1237);
#1235 = CARTESIAN_POINT('',(26.,11.5,0.));
#1236 = DIRECTION('',(0.,0.,1.));
#1237 = DIRECTION('',(1.,0.,0.));
#1238 = ADVANCED_FACE('',(#1239),#1251,.F.);
#1239 = FACE_BOUND('',#1240,.F.);
#1240 = EDGE_LOOP('',(#1241,#1242,#1250));
#1241 = ORIENTED_EDGE('',*,*,#1227,.T.);
#1242 = ORIENTED_EDGE('',*,*,#1243,.T.);
#1243 = EDGE_CURVE('',#1218,#1244,#1246,.T.);
#1244 = VERTEX_POINT('',#1245);
#1245 = CARTESIAN_POINT('',(26.,11.5,5.980688495222));
#1246 = LINE('',#1247,#1248);
#1247 = CARTESIAN_POINT('',(26.8,11.5,5.5));
#1248 = VECTOR('',#1249,1.);
#1249 = DIRECTION('',(-0.857167300702,0.,0.51503807491));
#1250 = ORIENTED_EDGE('',*,*,#1243,.F.);
#1251 = CONICAL_SURFACE('',#1252,0.8,1.029744258677);
#1252 = AXIS2_PLACEMENT_3D('',#1253,#1254,#1255);
#1253 = CARTESIAN_POINT('',(26.,11.5,5.5));
#1254 = DIRECTION('',(-0.,-0.,-1.));
#1255 = DIRECTION('',(1.,0.,0.));
#1256 = ADVANCED_FACE('',(#1257,#1288,#1358),#1428,.T.);
#1257 = FACE_BOUND('',#1258,.T.);
#1258 = EDGE_LOOP('',(#1259,#1260,#1261,#1262,#1263,#1264,#1265,#1266,
    #1267,#1273,#1274,#1275,#1276,#1277,#1278,#1279,#1280,#1281,#1282,
    #1283,#1284,#1285,#1286,#1287));
#1259 = ORIENTED_EDGE('',*,*,#31,.F.);
#1260 = ORIENTED_EDGE('',*,*,#62,.T.);
#1261 = ORIENTED_EDGE('',*,*,#128,.T.);
#1262 = ORIENTED_EDGE('',*,*,#192,.T.);
#1263 = ORIENTED_EDGE('',*,*,#258,.T.);
#1264 = ORIENTED_EDGE('',*,*,#298,.F.);
#1265 = ORIENTED_EDGE('',*,*,#322,.T.);
#1266 = ORIENTED_EDGE('',*,*,#364,.F.);
#1267 = ORIENTED_EDGE('',*,*,#1268,.T.);
#1268 = EDGE_CURVE('',#357,#745,#1269,.T.);
#1269 = LINE('',#1270,#1271);
#1270 = CARTESIAN_POINT('',(-20.80384757729,-11.5,8.));
#1271 = VECTOR('',#1272,1.);
#1272 = DIRECTION('',(1.,0.,0.));
#1273 = ORIENTED_EDGE('',*,*,#752,.T.);
#1274 = ORIENTED_EDGE('',*,*,#710,.F.);
#1275 = ORIENTED_EDGE('',*,*,#686,.T.);
#1276 = ORIENTED_EDGE('',*,*,#646,.F.);
#1277 = ORIENTED_EDGE('',*,*,#589,.F.);
#1278 = ORIENTED_EDGE('',*,*,#525,.F.);
#1279 = ORIENTED_EDGE('',*,*,#459,.F.);
#1280 = ORIENTED_EDGE('',*,*,#428,.T.);
#1281 = ORIENTED_EDGE('',*,*,#492,.T.);
#1282 = ORIENTED_EDGE('',*,*,#565,.F.);
#1283 = ORIENTED_EDGE('',*,*,#622,.T.);
#1284 = ORIENTED_EDGE('',*,*,#388,.F.);
#1285 = ORIENTED_EDGE('',*,*,#225,.F.);
#1286 = ORIENTED_EDGE('',*,*,#168,.T.);
#1287 = ORIENTED_EDGE('',*,*,#95,.F.);
#1288 = FACE_BOUND('',#1289,.T.);
#1289 = EDGE_LOOP('',(#1290,#1301,#1309,#1318,#1326,#1335,#1343,#1352));
#1290 = ORIENTED_EDGE('',*,*,#1291,.F.);
#1291 = EDGE_CURVE('',#1292,#1294,#1296,.T.);
#1292 = VERTEX_POINT('',#1293);
#1293 = CARTESIAN_POINT('',(-19.9,4.54436508139,8.));
#1294 = VERTEX_POINT('',#1295);
#1295 = CARTESIAN_POINT('',(-21.45563491861,6.1,8.));
#1296 = CIRCLE('',#1297,1.1);
#1297 = AXIS2_PLACEMENT_3D('',#1298,#1299,#1300);
#1298 = CARTESIAN_POINT('',(-20.6778174593,5.322182540695,8.));
#1299 = DIRECTION('',(0.,0.,1.));
#1300 = DIRECTION('',(1.,0.,0.));
#1301 = ORIENTED_EDGE('',*,*,#1302,.F.);
#1302 = EDGE_CURVE('',#1303,#1292,#1305,.T.);
#1303 = VERTEX_POINT('',#1304);
#1304 = CARTESIAN_POINT('',(-19.9,-4.54436508139,8.));
#1305 = LINE('',#1306,#1307);
#1306 = CARTESIAN_POINT('',(-19.9,-4.54436508139,8.));
#1307 = VECTOR('',#1308,1.);
#1308 = DIRECTION('',(0.,1.,0.));
#1309 = ORIENTED_EDGE('',*,*,#1310,.F.);
#1310 = EDGE_CURVE('',#1311,#1303,#1313,.T.);
#1311 = VERTEX_POINT('',#1312);
#1312 = CARTESIAN_POINT('',(-21.45563491861,-6.1,8.));
#1313 = CIRCLE('',#1314,1.1);
#1314 = AXIS2_PLACEMENT_3D('',#1315,#1316,#1317);
#1315 = CARTESIAN_POINT('',(-20.6778174593,-5.322182540695,8.));
#1316 = DIRECTION('',(0.,0.,1.));
#1317 = DIRECTION('',(1.,0.,0.));
#1318 = ORIENTED_EDGE('',*,*,#1319,.F.);
#1319 = EDGE_CURVE('',#1320,#1311,#1322,.T.);
#1320 = VERTEX_POINT('',#1321);
#1321 = CARTESIAN_POINT('',(-45.54436508139,-6.1,8.));
#1322 = LINE('',#1323,#1324);
#1323 = CARTESIAN_POINT('',(-45.54436508139,-6.1,8.));
#1324 = VECTOR('',#1325,1.);
#1325 = DIRECTION('',(1.,0.,0.));
#1326 = ORIENTED_EDGE('',*,*,#1327,.F.);
#1327 = EDGE_CURVE('',#1328,#1320,#1330,.T.);
#1328 = VERTEX_POINT('',#1329);
#1329 = CARTESIAN_POINT('',(-47.1,-4.54436508139,8.));
#1330 = CIRCLE('',#1331,1.1);
#1331 = AXIS2_PLACEMENT_3D('',#1332,#1333,#1334);
#1332 = CARTESIAN_POINT('',(-46.32218254069,-5.322182540695,8.));
#1333 = DIRECTION('',(0.,0.,1.));
#1334 = DIRECTION('',(1.,0.,0.));
#1335 = ORIENTED_EDGE('',*,*,#1336,.F.);
#1336 = EDGE_CURVE('',#1337,#1328,#1339,.T.);
#1337 = VERTEX_POINT('',#1338);
#1338 = CARTESIAN_POINT('',(-47.1,4.54436508139,8.));
#1339 = LINE('',#1340,#1341);
#1340 = CARTESIAN_POINT('',(-47.1,4.54436508139,8.));
#1341 = VECTOR('',#1342,1.);
#1342 = DIRECTION('',(7.8E-16,-1.,0.));
#1343 = ORIENTED_EDGE('',*,*,#1344,.F.);
#1344 = EDGE_CURVE('',#1345,#1337,#1347,.T.);
#1345 = VERTEX_POINT('',#1346);
#1346 = CARTESIAN_POINT('',(-45.54436508139,6.1,8.));
#1347 = CIRCLE('',#1348,1.1);
#1348 = AXIS2_PLACEMENT_3D('',#1349,#1350,#1351);
#1349 = CARTESIAN_POINT('',(-46.32218254069,5.322182540695,8.));
#1350 = DIRECTION('',(0.,0.,1.));
#1351 = DIRECTION('',(1.,0.,0.));
#1352 = ORIENTED_EDGE('',*,*,#1353,.F.);
#1353 = EDGE_CURVE('',#1294,#1345,#1354,.T.);
#1354 = LINE('',#1355,#1356);
#1355 = CARTESIAN_POINT('',(-21.45563491861,6.1,8.));
#1356 = VECTOR('',#1357,1.);
#1357 = DIRECTION('',(-1.,0.,0.));
#1358 = FACE_BOUND('',#1359,.T.);
#1359 = EDGE_LOOP('',(#1360,#1371,#1379,#1388,#1396,#1405,#1413,#1422));
#1360 = ORIENTED_EDGE('',*,*,#1361,.T.);
#1361 = EDGE_CURVE('',#1362,#1364,#1366,.T.);
#1362 = VERTEX_POINT('',#1363);
#1363 = CARTESIAN_POINT('',(19.9,4.54436508139,8.));
#1364 = VERTEX_POINT('',#1365);
#1365 = CARTESIAN_POINT('',(21.45563491861,6.1,8.));
#1366 = CIRCLE('',#1367,1.1);
#1367 = AXIS2_PLACEMENT_3D('',#1368,#1369,#1370);
#1368 = CARTESIAN_POINT('',(20.677817459305,5.322182540695,8.));
#1369 = DIRECTION('',(0.,0.,-1.));
#1370 = DIRECTION('',(-1.,-0.,-0.));
#1371 = ORIENTED_EDGE('',*,*,#1372,.T.);
#1372 = EDGE_CURVE('',#1364,#1373,#1375,.T.);
#1373 = VERTEX_POINT('',#1374);
#1374 = CARTESIAN_POINT('',(45.54436508139,6.1,8.));
#1375 = LINE('',#1376,#1377);
#1376 = CARTESIAN_POINT('',(21.45563491861,6.1,8.));
#1377 = VECTOR('',#1378,1.);
#1378 = DIRECTION('',(1.,0.,0.));
#1379 = ORIENTED_EDGE('',*,*,#1380,.T.);
#1380 = EDGE_CURVE('',#1373,#1381,#1383,.T.);
#1381 = VERTEX_POINT('',#1382);
#1382 = CARTESIAN_POINT('',(47.1,4.54436508139,8.));
#1383 = CIRCLE('',#1384,1.1);
#1384 = AXIS2_PLACEMENT_3D('',#1385,#1386,#1387);
#1385 = CARTESIAN_POINT('',(46.322182540695,5.322182540695,8.));
#1386 = DIRECTION('',(0.,0.,-1.));
#1387 = DIRECTION('',(-1.,-0.,-0.));
#1388 = ORIENTED_EDGE('',*,*,#1389,.T.);
#1389 = EDGE_CURVE('',#1381,#1390,#1392,.T.);
#1390 = VERTEX_POINT('',#1391);
#1391 = CARTESIAN_POINT('',(47.1,-4.54436508139,8.));
#1392 = LINE('',#1393,#1394);
#1393 = CARTESIAN_POINT('',(47.1,4.54436508139,8.));
#1394 = VECTOR('',#1395,1.);
#1395 = DIRECTION('',(-7.8E-16,-1.,-0.));
#1396 = ORIENTED_EDGE('',*,*,#1397,.T.);
#1397 = EDGE_CURVE('',#1390,#1398,#1400,.T.);
#1398 = VERTEX_POINT('',#1399);
#1399 = CARTESIAN_POINT('',(45.54436508139,-6.1,8.));
#1400 = CIRCLE('',#1401,1.1);
#1401 = AXIS2_PLACEMENT_3D('',#1402,#1403,#1404);
#1402 = CARTESIAN_POINT('',(46.322182540695,-5.322182540695,8.));
#1403 = DIRECTION('',(0.,0.,-1.));
#1404 = DIRECTION('',(-1.,-0.,-0.));
#1405 = ORIENTED_EDGE('',*,*,#1406,.T.);
#1406 = EDGE_CURVE('',#1398,#1407,#1409,.T.);
#1407 = VERTEX_POINT('',#1408);
#1408 = CARTESIAN_POINT('',(21.45563491861,-6.1,8.));
#1409 = LINE('',#1410,#1411);
#1410 = CARTESIAN_POINT('',(45.54436508139,-6.1,8.));
#1411 = VECTOR('',#1412,1.);
#1412 = DIRECTION('',(-1.,-0.,-0.));
#1413 = ORIENTED_EDGE('',*,*,#1414,.T.);
#1414 = EDGE_CURVE('',#1407,#1415,#1417,.T.);
#1415 = VERTEX_POINT('',#1416);
#1416 = CARTESIAN_POINT('',(19.9,-4.54436508139,8.));
#1417 = CIRCLE('',#1418,1.1);
#1418 = AXIS2_PLACEMENT_3D('',#1419,#1420,#1421);
#1419 = CARTESIAN_POINT('',(20.677817459305,-5.322182540695,8.));
#1420 = DIRECTION('',(0.,0.,-1.));
#1421 = DIRECTION('',(-1.,-0.,-0.));
#1422 = ORIENTED_EDGE('',*,*,#1423,.T.);
#1423 = EDGE_CURVE('',#1415,#1362,#1424,.T.);
#1424 = LINE('',#1425,#1426);
#1425 = CARTESIAN_POINT('',(19.9,-4.54436508139,8.));
#1426 = VECTOR('',#1427,1.);
#1427 = DIRECTION('',(0.,1.,0.));
#1428 = PLANE('',#1429);
#1429 = AXIS2_PLACEMENT_3D('',#1430,#1431,#1432);
#1430 = CARTESIAN_POINT('',(1.1E-16,1.82E-15,8.));
#1431 = DIRECTION('',(0.,0.,1.));
#1432 = DIRECTION('',(1.,0.,-0.));
#1433 = ADVANCED_FACE('',(#1434),#1460,.F.);
#1434 = FACE_BOUND('',#1435,.T.);
#1435 = EDGE_LOOP('',(#1436,#1447,#1453,#1454));
#1436 = ORIENTED_EDGE('',*,*,#1437,.T.);
#1437 = EDGE_CURVE('',#1438,#1440,#1442,.T.);
#1438 = VERTEX_POINT('',#1439);
#1439 = CARTESIAN_POINT('',(-21.45563491861,6.1,5.05));
#1440 = VERTEX_POINT('',#1441);
#1441 = CARTESIAN_POINT('',(-19.9,4.54436508139,5.05));
#1442 = CIRCLE('',#1443,1.1);
#1443 = AXIS2_PLACEMENT_3D('',#1444,#1445,#1446);
#1444 = CARTESIAN_POINT('',(-20.6778174593,5.322182540695,5.05));
#1445 = DIRECTION('',(0.,0.,-1.));
#1446 = DIRECTION('',(1.,0.,0.));
#1447 = ORIENTED_EDGE('',*,*,#1448,.T.);
#1448 = EDGE_CURVE('',#1440,#1292,#1449,.T.);
#1449 = LINE('',#1450,#1451);
#1450 = CARTESIAN_POINT('',(-19.9,4.54436508139,0.));
#1451 = VECTOR('',#1452,1.);
#1452 = DIRECTION('',(0.,0.,1.));
#1453 = ORIENTED_EDGE('',*,*,#1291,.T.);
#1454 = ORIENTED_EDGE('',*,*,#1455,.F.);
#1455 = EDGE_CURVE('',#1438,#1294,#1456,.T.);
#1456 = LINE('',#1457,#1458);
#1457 = CARTESIAN_POINT('',(-21.45563491861,6.1,0.));
#1458 = VECTOR('',#1459,1.);
#1459 = DIRECTION('',(0.,0.,1.));
#1460 = CYLINDRICAL_SURFACE('',#1461,1.1);
#1461 = AXIS2_PLACEMENT_3D('',#1462,#1463,#1464);
#1462 = CARTESIAN_POINT('',(-20.6778174593,5.322182540695,0.));
#1463 = DIRECTION('',(-0.,-0.,-1.));
#1464 = DIRECTION('',(1.,0.,0.));
#1465 = ADVANCED_FACE('',(#1466),#1484,.T.);
#1466 = FACE_BOUND('',#1467,.T.);
#1467 = EDGE_LOOP('',(#1468,#1476,#1477,#1478));
#1468 = ORIENTED_EDGE('',*,*,#1469,.F.);
#1469 = EDGE_CURVE('',#1438,#1470,#1472,.T.);
#1470 = VERTEX_POINT('',#1471);
#1471 = CARTESIAN_POINT('',(-45.54436508139,6.1,5.05));
#1472 = LINE('',#1473,#1474);
#1473 = CARTESIAN_POINT('',(-22.74495886024,6.1,5.05));
#1474 = VECTOR('',#1475,1.);
#1475 = DIRECTION('',(-1.,0.,0.));
#1476 = ORIENTED_EDGE('',*,*,#1455,.T.);
#1477 = ORIENTED_EDGE('',*,*,#1353,.T.);
#1478 = ORIENTED_EDGE('',*,*,#1479,.F.);
#1479 = EDGE_CURVE('',#1470,#1345,#1480,.T.);
#1480 = LINE('',#1481,#1482);
#1481 = CARTESIAN_POINT('',(-45.54436508139,6.1,0.));
#1482 = VECTOR('',#1483,1.);
#1483 = DIRECTION('',(0.,0.,1.));
#1484 = PLANE('',#1485);
#1485 = AXIS2_PLACEMENT_3D('',#1486,#1487,#1488);
#1486 = CARTESIAN_POINT('',(-21.45563491861,6.1,0.));
#1487 = DIRECTION('',(0.,-1.,0.));
#1488 = DIRECTION('',(-1.,0.,0.));
#1489 = ADVANCED_FACE('',(#1490),#1509,.F.);
#1490 = FACE_BOUND('',#1491,.T.);
#1491 = EDGE_LOOP('',(#1492,#1501,#1502,#1503));
#1492 = ORIENTED_EDGE('',*,*,#1493,.T.);
#1493 = EDGE_CURVE('',#1494,#1470,#1496,.T.);
#1494 = VERTEX_POINT('',#1495);
#1495 = CARTESIAN_POINT('',(-47.1,4.54436508139,5.05));
#1496 = CIRCLE('',#1497,1.1);
#1497 = AXIS2_PLACEMENT_3D('',#1498,#1499,#1500);
#1498 = CARTESIAN_POINT('',(-46.32218254069,5.322182540695,5.05));
#1499 = DIRECTION('',(0.,0.,-1.));
#1500 = DIRECTION('',(1.,0.,0.));
#1501 = ORIENTED_EDGE('',*,*,#1479,.T.);
#1502 = ORIENTED_EDGE('',*,*,#1344,.T.);
#1503 = ORIENTED_EDGE('',*,*,#1504,.F.);
#1504 = EDGE_CURVE('',#1494,#1337,#1505,.T.);
#1505 = LINE('',#1506,#1507);
#1506 = CARTESIAN_POINT('',(-47.1,4.54436508139,0.));
#1507 = VECTOR('',#1508,1.);
#1508 = DIRECTION('',(0.,0.,1.));
#1509 = CYLINDRICAL_SURFACE('',#1510,1.1);
#1510 = AXIS2_PLACEMENT_3D('',#1511,#1512,#1513);
#1511 = CARTESIAN_POINT('',(-46.32218254069,5.322182540695,0.));
#1512 = DIRECTION('',(-0.,-0.,-1.));
#1513 = DIRECTION('',(1.,0.,0.));
#1514 = ADVANCED_FACE('',(#1515),#1533,.T.);
#1515 = FACE_BOUND('',#1516,.T.);
#1516 = EDGE_LOOP('',(#1517,#1525,#1526,#1527));
#1517 = ORIENTED_EDGE('',*,*,#1518,.F.);
#1518 = EDGE_CURVE('',#1494,#1519,#1521,.T.);
#1519 = VERTEX_POINT('',#1520);
#1520 = CARTESIAN_POINT('',(-47.1,-4.54436508139,5.05));
#1521 = LINE('',#1522,#1523);
#1522 = CARTESIAN_POINT('',(-47.1,2.272182540695,5.05));
#1523 = VECTOR('',#1524,1.);
#1524 = DIRECTION('',(7.8E-16,-1.,0.));
#1525 = ORIENTED_EDGE('',*,*,#1504,.T.);
#1526 = ORIENTED_EDGE('',*,*,#1336,.T.);
#1527 = ORIENTED_EDGE('',*,*,#1528,.F.);
#1528 = EDGE_CURVE('',#1519,#1328,#1529,.T.);
#1529 = LINE('',#1530,#1531);
#1530 = CARTESIAN_POINT('',(-47.1,-4.54436508139,0.));
#1531 = VECTOR('',#1532,1.);
#1532 = DIRECTION('',(0.,0.,1.));
#1533 = PLANE('',#1534);
#1534 = AXIS2_PLACEMENT_3D('',#1535,#1536,#1537);
#1535 = CARTESIAN_POINT('',(-47.1,4.54436508139,0.));
#1536 = DIRECTION('',(1.,7.8E-16,0.));
#1537 = DIRECTION('',(7.8E-16,-1.,0.));
#1538 = ADVANCED_FACE('',(#1539),#1558,.F.);
#1539 = FACE_BOUND('',#1540,.T.);
#1540 = EDGE_LOOP('',(#1541,#1550,#1551,#1552));
#1541 = ORIENTED_EDGE('',*,*,#1542,.T.);
#1542 = EDGE_CURVE('',#1543,#1519,#1545,.T.);
#1543 = VERTEX_POINT('',#1544);
#1544 = CARTESIAN_POINT('',(-45.54436508139,-6.1,5.05));
#1545 = CIRCLE('',#1546,1.1);
#1546 = AXIS2_PLACEMENT_3D('',#1547,#1548,#1549);
#1547 = CARTESIAN_POINT('',(-46.32218254069,-5.322182540695,5.05));
#1548 = DIRECTION('',(0.,0.,-1.));
#1549 = DIRECTION('',(1.,0.,0.));
#1550 = ORIENTED_EDGE('',*,*,#1528,.T.);
#1551 = ORIENTED_EDGE('',*,*,#1327,.T.);
#1552 = ORIENTED_EDGE('',*,*,#1553,.F.);
#1553 = EDGE_CURVE('',#1543,#1320,#1554,.T.);
#1554 = LINE('',#1555,#1556);
#1555 = CARTESIAN_POINT('',(-45.54436508139,-6.1,0.));
#1556 = VECTOR('',#1557,1.);
#1557 = DIRECTION('',(0.,0.,1.));
#1558 = CYLINDRICAL_SURFACE('',#1559,1.1);
#1559 = AXIS2_PLACEMENT_3D('',#1560,#1561,#1562);
#1560 = CARTESIAN_POINT('',(-46.32218254069,-5.322182540695,0.));
#1561 = DIRECTION('',(-0.,-0.,-1.));
#1562 = DIRECTION('',(1.,0.,0.));
#1563 = ADVANCED_FACE('',(#1564),#1582,.T.);
#1564 = FACE_BOUND('',#1565,.T.);
#1565 = EDGE_LOOP('',(#1566,#1574,#1575,#1576));
#1566 = ORIENTED_EDGE('',*,*,#1567,.F.);
#1567 = EDGE_CURVE('',#1543,#1568,#1570,.T.);
#1568 = VERTEX_POINT('',#1569);
#1569 = CARTESIAN_POINT('',(-21.45563491861,-6.1,5.05));
#1570 = LINE('',#1571,#1572);
#1571 = CARTESIAN_POINT('',(-34.78932394163,-6.1,5.05));
#1572 = VECTOR('',#1573,1.);
#1573 = DIRECTION('',(1.,0.,0.));
#1574 = ORIENTED_EDGE('',*,*,#1553,.T.);
#1575 = ORIENTED_EDGE('',*,*,#1319,.T.);
#1576 = ORIENTED_EDGE('',*,*,#1577,.F.);
#1577 = EDGE_CURVE('',#1568,#1311,#1578,.T.);
#1578 = LINE('',#1579,#1580);
#1579 = CARTESIAN_POINT('',(-21.45563491861,-6.1,0.));
#1580 = VECTOR('',#1581,1.);
#1581 = DIRECTION('',(0.,0.,1.));
#1582 = PLANE('',#1583);
#1583 = AXIS2_PLACEMENT_3D('',#1584,#1585,#1586);
#1584 = CARTESIAN_POINT('',(-45.54436508139,-6.1,0.));
#1585 = DIRECTION('',(0.,1.,0.));
#1586 = DIRECTION('',(1.,0.,0.));
#1587 = ADVANCED_FACE('',(#1588),#1607,.F.);
#1588 = FACE_BOUND('',#1589,.T.);
#1589 = EDGE_LOOP('',(#1590,#1599,#1600,#1601));
#1590 = ORIENTED_EDGE('',*,*,#1591,.T.);
#1591 = EDGE_CURVE('',#1592,#1568,#1594,.T.);
#1592 = VERTEX_POINT('',#1593);
#1593 = CARTESIAN_POINT('',(-19.9,-4.54436508139,5.05));
#1594 = CIRCLE('',#1595,1.1);
#1595 = AXIS2_PLACEMENT_3D('',#1596,#1597,#1598);
#1596 = CARTESIAN_POINT('',(-20.6778174593,-5.322182540695,5.05));
#1597 = DIRECTION('',(0.,0.,-1.));
#1598 = DIRECTION('',(1.,0.,0.));
#1599 = ORIENTED_EDGE('',*,*,#1577,.T.);
#1600 = ORIENTED_EDGE('',*,*,#1310,.T.);
#1601 = ORIENTED_EDGE('',*,*,#1602,.F.);
#1602 = EDGE_CURVE('',#1592,#1303,#1603,.T.);
#1603 = LINE('',#1604,#1605);
#1604 = CARTESIAN_POINT('',(-19.9,-4.54436508139,0.));
#1605 = VECTOR('',#1606,1.);
#1606 = DIRECTION('',(0.,0.,1.));
#1607 = CYLINDRICAL_SURFACE('',#1608,1.1);
#1608 = AXIS2_PLACEMENT_3D('',#1609,#1610,#1611);
#1609 = CARTESIAN_POINT('',(-20.6778174593,-5.322182540695,0.));
#1610 = DIRECTION('',(-0.,-0.,-1.));
#1611 = DIRECTION('',(1.,0.,0.));
#1612 = ADVANCED_FACE('',(#1613),#1624,.T.);
#1613 = FACE_BOUND('',#1614,.T.);
#1614 = EDGE_LOOP('',(#1615,#1621,#1622,#1623));
#1615 = ORIENTED_EDGE('',*,*,#1616,.F.);
#1616 = EDGE_CURVE('',#1592,#1440,#1617,.T.);
#1617 = LINE('',#1618,#1619);
#1618 = CARTESIAN_POINT('',(-19.9,-2.272182540695,5.05));
#1619 = VECTOR('',#1620,1.);
#1620 = DIRECTION('',(0.,1.,0.));
#1621 = ORIENTED_EDGE('',*,*,#1602,.T.);
#1622 = ORIENTED_EDGE('',*,*,#1302,.T.);
#1623 = ORIENTED_EDGE('',*,*,#1448,.F.);
#1624 = PLANE('',#1625);
#1625 = AXIS2_PLACEMENT_3D('',#1626,#1627,#1628);
#1626 = CARTESIAN_POINT('',(-19.9,-4.54436508139,0.));
#1627 = DIRECTION('',(-1.,0.,0.));
#1628 = DIRECTION('',(0.,1.,0.));
#1629 = ADVANCED_FACE('',(#1630),#1656,.F.);
#1630 = FACE_BOUND('',#1631,.F.);
#1631 = EDGE_LOOP('',(#1632,#1643,#1649,#1650));
#1632 = ORIENTED_EDGE('',*,*,#1633,.T.);
#1633 = EDGE_CURVE('',#1634,#1636,#1638,.T.);
#1634 = VERTEX_POINT('',#1635);
#1635 = CARTESIAN_POINT('',(21.45563491861,6.1,5.05));
#1636 = VERTEX_POINT('',#1637);
#1637 = CARTESIAN_POINT('',(19.9,4.54436508139,5.05));
#1638 = CIRCLE('',#1639,1.1);
#1639 = AXIS2_PLACEMENT_3D('',#1640,#1641,#1642);
#1640 = CARTESIAN_POINT('',(20.677817459305,5.322182540695,5.05));
#1641 = DIRECTION('',(0.,0.,1.));
#1642 = DIRECTION('',(-1.,0.,0.));
#1643 = ORIENTED_EDGE('',*,*,#1644,.T.);
#1644 = EDGE_CURVE('',#1636,#1362,#1645,.T.);
#1645 = LINE('',#1646,#1647);
#1646 = CARTESIAN_POINT('',(19.9,4.54436508139,0.));
#1647 = VECTOR('',#1648,1.);
#1648 = DIRECTION('',(0.,0.,1.));
#1649 = ORIENTED_EDGE('',*,*,#1361,.T.);
#1650 = ORIENTED_EDGE('',*,*,#1651,.F.);
#1651 = EDGE_CURVE('',#1634,#1364,#1652,.T.);
#1652 = LINE('',#1653,#1654);
#1653 = CARTESIAN_POINT('',(21.45563491861,6.1,0.));
#1654 = VECTOR('',#1655,1.);
#1655 = DIRECTION('',(0.,0.,1.));
#1656 = CYLINDRICAL_SURFACE('',#1657,1.1);
#1657 = AXIS2_PLACEMENT_3D('',#1658,#1659,#1660);
#1658 = CARTESIAN_POINT('',(20.677817459305,5.322182540695,0.));
#1659 = DIRECTION('',(0.,0.,-1.));
#1660 = DIRECTION('',(-1.,-0.,-0.));
#1661 = ADVANCED_FACE('',(#1662),#1680,.T.);
#1662 = FACE_BOUND('',#1663,.F.);
#1663 = EDGE_LOOP('',(#1664,#1672,#1673,#1674));
#1664 = ORIENTED_EDGE('',*,*,#1665,.F.);
#1665 = EDGE_CURVE('',#1634,#1666,#1668,.T.);
#1666 = VERTEX_POINT('',#1667);
#1667 = CARTESIAN_POINT('',(45.54436508139,6.1,5.05));
#1668 = LINE('',#1669,#1670);
#1669 = CARTESIAN_POINT('',(22.744958860244,6.1,5.05));
#1670 = VECTOR('',#1671,1.);
#1671 = DIRECTION('',(1.,0.,0.));
#1672 = ORIENTED_EDGE('',*,*,#1651,.T.);
#1673 = ORIENTED_EDGE('',*,*,#1372,.T.);
#1674 = ORIENTED_EDGE('',*,*,#1675,.F.);
#1675 = EDGE_CURVE('',#1666,#1373,#1676,.T.);
#1676 = LINE('',#1677,#1678);
#1677 = CARTESIAN_POINT('',(45.54436508139,6.1,0.));
#1678 = VECTOR('',#1679,1.);
#1679 = DIRECTION('',(0.,0.,1.));
#1680 = PLANE('',#1681);
#1681 = AXIS2_PLACEMENT_3D('',#1682,#1683,#1684);
#1682 = CARTESIAN_POINT('',(21.45563491861,6.1,0.));
#1683 = DIRECTION('',(-0.,-1.,-0.));
#1684 = DIRECTION('',(-1.,0.,0.));
#1685 = ADVANCED_FACE('',(#1686),#1705,.F.);
#1686 = FACE_BOUND('',#1687,.F.);
#1687 = EDGE_LOOP('',(#1688,#1697,#1698,#1699));
#1688 = ORIENTED_EDGE('',*,*,#1689,.T.);
#1689 = EDGE_CURVE('',#1690,#1666,#1692,.T.);
#1690 = VERTEX_POINT('',#1691);
#1691 = CARTESIAN_POINT('',(47.1,4.54436508139,5.05));
#1692 = CIRCLE('',#1693,1.1);
#1693 = AXIS2_PLACEMENT_3D('',#1694,#1695,#1696);
#1694 = CARTESIAN_POINT('',(46.322182540695,5.322182540695,5.05));
#1695 = DIRECTION('',(0.,0.,1.));
#1696 = DIRECTION('',(-1.,0.,0.));
#1697 = ORIENTED_EDGE('',*,*,#1675,.T.);
#1698 = ORIENTED_EDGE('',*,*,#1380,.T.);
#1699 = ORIENTED_EDGE('',*,*,#1700,.F.);
#1700 = EDGE_CURVE('',#1690,#1381,#1701,.T.);
#1701 = LINE('',#1702,#1703);
#1702 = CARTESIAN_POINT('',(47.1,4.54436508139,0.));
#1703 = VECTOR('',#1704,1.);
#1704 = DIRECTION('',(0.,0.,1.));
#1705 = CYLINDRICAL_SURFACE('',#1706,1.1);
#1706 = AXIS2_PLACEMENT_3D('',#1707,#1708,#1709);
#1707 = CARTESIAN_POINT('',(46.322182540695,5.322182540695,0.));
#1708 = DIRECTION('',(0.,0.,-1.));
#1709 = DIRECTION('',(-1.,-0.,-0.));
#1710 = ADVANCED_FACE('',(#1711),#1729,.T.);
#1711 = FACE_BOUND('',#1712,.F.);
#1712 = EDGE_LOOP('',(#1713,#1721,#1722,#1723));
#1713 = ORIENTED_EDGE('',*,*,#1714,.F.);
#1714 = EDGE_CURVE('',#1690,#1715,#1717,.T.);
#1715 = VERTEX_POINT('',#1716);
#1716 = CARTESIAN_POINT('',(47.1,-4.54436508139,5.05));
#1717 = LINE('',#1718,#1719);
#1718 = CARTESIAN_POINT('',(47.1,2.272182540695,5.05));
#1719 = VECTOR('',#1720,1.);
#1720 = DIRECTION('',(-7.8E-16,-1.,-0.));
#1721 = ORIENTED_EDGE('',*,*,#1700,.T.);
#1722 = ORIENTED_EDGE('',*,*,#1389,.T.);
#1723 = ORIENTED_EDGE('',*,*,#1724,.F.);
#1724 = EDGE_CURVE('',#1715,#1390,#1725,.T.);
#1725 = LINE('',#1726,#1727);
#1726 = CARTESIAN_POINT('',(47.1,-4.54436508139,0.));
#1727 = VECTOR('',#1728,1.);
#1728 = DIRECTION('',(0.,0.,1.));
#1729 = PLANE('',#1730);
#1730 = AXIS2_PLACEMENT_3D('',#1731,#1732,#1733);
#1731 = CARTESIAN_POINT('',(47.1,4.54436508139,0.));
#1732 = DIRECTION('',(-1.,7.8E-16,0.));
#1733 = DIRECTION('',(7.8E-16,1.,0.));
#1734 = ADVANCED_FACE('',(#1735),#1754,.F.);
#1735 = FACE_BOUND('',#1736,.F.);
#1736 = EDGE_LOOP('',(#1737,#1746,#1747,#1748));
#1737 = ORIENTED_EDGE('',*,*,#1738,.T.);
#1738 = EDGE_CURVE('',#1739,#1715,#1741,.T.);
#1739 = VERTEX_POINT('',#1740);
#1740 = CARTESIAN_POINT('',(45.54436508139,-6.1,5.05));
#1741 = CIRCLE('',#1742,1.1);
#1742 = AXIS2_PLACEMENT_3D('',#1743,#1744,#1745);
#1743 = CARTESIAN_POINT('',(46.322182540695,-5.322182540695,5.05));
#1744 = DIRECTION('',(0.,0.,1.));
#1745 = DIRECTION('',(-1.,0.,0.));
#1746 = ORIENTED_EDGE('',*,*,#1724,.T.);
#1747 = ORIENTED_EDGE('',*,*,#1397,.T.);
#1748 = ORIENTED_EDGE('',*,*,#1749,.F.);
#1749 = EDGE_CURVE('',#1739,#1398,#1750,.T.);
#1750 = LINE('',#1751,#1752);
#1751 = CARTESIAN_POINT('',(45.54436508139,-6.1,0.));
#1752 = VECTOR('',#1753,1.);
#1753 = DIRECTION('',(0.,0.,1.));
#1754 = CYLINDRICAL_SURFACE('',#1755,1.1);
#1755 = AXIS2_PLACEMENT_3D('',#1756,#1757,#1758);
#1756 = CARTESIAN_POINT('',(46.322182540695,-5.322182540695,0.));
#1757 = DIRECTION('',(0.,0.,-1.));
#1758 = DIRECTION('',(-1.,-0.,-0.));
#1759 = ADVANCED_FACE('',(#1760),#1778,.T.);
#1760 = FACE_BOUND('',#1761,.F.);
#1761 = EDGE_LOOP('',(#1762,#1770,#1771,#1772));
#1762 = ORIENTED_EDGE('',*,*,#1763,.F.);
#1763 = EDGE_CURVE('',#1739,#1764,#1766,.T.);
#1764 = VERTEX_POINT('',#1765);
#1765 = CARTESIAN_POINT('',(21.45563491861,-6.1,5.05));
#1766 = LINE('',#1767,#1768);
#1767 = CARTESIAN_POINT('',(34.789323941634,-6.1,5.05));
#1768 = VECTOR('',#1769,1.);
#1769 = DIRECTION('',(-1.,-0.,-0.));
#1770 = ORIENTED_EDGE('',*,*,#1749,.T.);
#1771 = ORIENTED_EDGE('',*,*,#1406,.T.);
#1772 = ORIENTED_EDGE('',*,*,#1773,.F.);
#1773 = EDGE_CURVE('',#1764,#1407,#1774,.T.);
#1774 = LINE('',#1775,#1776);
#1775 = CARTESIAN_POINT('',(21.45563491861,-6.1,0.));
#1776 = VECTOR('',#1777,1.);
#1777 = DIRECTION('',(0.,0.,1.));
#1778 = PLANE('',#1779);
#1779 = AXIS2_PLACEMENT_3D('',#1780,#1781,#1782);
#1780 = CARTESIAN_POINT('',(45.54436508139,-6.1,0.));
#1781 = DIRECTION('',(0.,1.,0.));
#1782 = DIRECTION('',(1.,0.,0.));
#1783 = ADVANCED_FACE('',(#1784),#1803,.F.);
#1784 = FACE_BOUND('',#1785,.F.);
#1785 = EDGE_LOOP('',(#1786,#1795,#1796,#1797));
#1786 = ORIENTED_EDGE('',*,*,#1787,.T.);
#1787 = EDGE_CURVE('',#1788,#1764,#1790,.T.);
#1788 = VERTEX_POINT('',#1789);
#1789 = CARTESIAN_POINT('',(19.9,-4.54436508139,5.05));
#1790 = CIRCLE('',#1791,1.1);
#1791 = AXIS2_PLACEMENT_3D('',#1792,#1793,#1794);
#1792 = CARTESIAN_POINT('',(20.677817459305,-5.322182540695,5.05));
#1793 = DIRECTION('',(0.,0.,1.));
#1794 = DIRECTION('',(-1.,0.,0.));
#1795 = ORIENTED_EDGE('',*,*,#1773,.T.);
#1796 = ORIENTED_EDGE('',*,*,#1414,.T.);
#1797 = ORIENTED_EDGE('',*,*,#1798,.F.);
#1798 = EDGE_CURVE('',#1788,#1415,#1799,.T.);
#1799 = LINE('',#1800,#1801);
#1800 = CARTESIAN_POINT('',(19.9,-4.54436508139,0.));
#1801 = VECTOR('',#1802,1.);
#1802 = DIRECTION('',(0.,0.,1.));
#1803 = CYLINDRICAL_SURFACE('',#1804,1.1);
#1804 = AXIS2_PLACEMENT_3D('',#1805,#1806,#1807);
#1805 = CARTESIAN_POINT('',(20.677817459305,-5.322182540695,0.));
#1806 = DIRECTION('',(0.,0.,-1.));
#1807 = DIRECTION('',(-1.,-0.,-0.));
#1808 = ADVANCED_FACE('',(#1809),#1820,.T.);
#1809 = FACE_BOUND('',#1810,.F.);
#1810 = EDGE_LOOP('',(#1811,#1817,#1818,#1819));
#1811 = ORIENTED_EDGE('',*,*,#1812,.F.);
#1812 = EDGE_CURVE('',#1788,#1636,#1813,.T.);
#1813 = LINE('',#1814,#1815);
#1814 = CARTESIAN_POINT('',(19.9,-2.272182540695,5.05));
#1815 = VECTOR('',#1816,1.);
#1816 = DIRECTION('',(0.,1.,0.));
#1817 = ORIENTED_EDGE('',*,*,#1798,.T.);
#1818 = ORIENTED_EDGE('',*,*,#1423,.T.);
#1819 = ORIENTED_EDGE('',*,*,#1644,.F.);
#1820 = PLANE('',#1821);
#1821 = AXIS2_PLACEMENT_3D('',#1822,#1823,#1824);
#1822 = CARTESIAN_POINT('',(19.9,-4.54436508139,0.));
#1823 = DIRECTION('',(1.,0.,0.));
#1824 = DIRECTION('',(0.,-1.,0.));
#1825 = ADVANCED_FACE('',(#1826),#1832,.T.);
#1826 = FACE_BOUND('',#1827,.T.);
#1827 = EDGE_LOOP('',(#1828,#1829,#1830,#1831));
#1828 = ORIENTED_EDGE('',*,*,#354,.F.);
#1829 = ORIENTED_EDGE('',*,*,#791,.F.);
#1830 = ORIENTED_EDGE('',*,*,#742,.T.);
#1831 = ORIENTED_EDGE('',*,*,#1268,.F.);
#1832 = PLANE('',#1833);
#1833 = AXIS2_PLACEMENT_3D('',#1834,#1835,#1836);
#1834 = CARTESIAN_POINT('',(0.,-11.5,4.));
#1835 = DIRECTION('',(-0.,-1.,-0.));
#1836 = DIRECTION('',(0.,0.,-1.));
#1837 = ADVANCED_FACE('',(#1838),#1849,.T.);
#1838 = FACE_BOUND('',#1839,.T.);
#1839 = EDGE_LOOP('',(#1840,#1841,#1842,#1843));
#1840 = ORIENTED_EDGE('',*,*,#926,.F.);
#1841 = ORIENTED_EDGE('',*,*,#868,.T.);
#1842 = ORIENTED_EDGE('',*,*,#1007,.T.);
#1843 = ORIENTED_EDGE('',*,*,#1844,.F.);
#1844 = EDGE_CURVE('',#927,#1008,#1845,.T.);
#1845 = LINE('',#1846,#1847);
#1846 = CARTESIAN_POINT('',(0.,9.05,5.05));
#1847 = VECTOR('',#1848,1.);
#1848 = DIRECTION('',(1.,0.,0.));
#1849 = PLANE('',#1850);
#1850 = AXIS2_PLACEMENT_3D('',#1851,#1852,#1853);
#1851 = CARTESIAN_POINT('',(0.,9.05,2.525));
#1852 = DIRECTION('',(-0.,-1.,-0.));
#1853 = DIRECTION('',(0.,0.,-1.));
#1854 = ADVANCED_FACE('',(#1855),#1866,.T.);
#1855 = FACE_BOUND('',#1856,.T.);
#1856 = EDGE_LOOP('',(#1857,#1858,#1864,#1865));
#1857 = ORIENTED_EDGE('',*,*,#992,.T.);
#1858 = ORIENTED_EDGE('',*,*,#1859,.T.);
#1859 = EDGE_CURVE('',#984,#1065,#1860,.T.);
#1860 = LINE('',#1861,#1862);
#1861 = CARTESIAN_POINT('',(-47.2,-9.05,5.05));
#1862 = VECTOR('',#1863,1.);
#1863 = DIRECTION('',(1.,0.,0.));
#1864 = ORIENTED_EDGE('',*,*,#1073,.F.);
#1865 = ORIENTED_EDGE('',*,*,#834,.F.);
#1866 = PLANE('',#1867);
#1867 = AXIS2_PLACEMENT_3D('',#1868,#1869,#1870);
#1868 = CARTESIAN_POINT('',(0.,-9.05,2.525));
#1869 = DIRECTION('',(0.,1.,0.));
#1870 = DIRECTION('',(0.,-0.,1.));
#1871 = ADVANCED_FACE('',(#1872,#1882,#1952,#1962),#1972,.T.);
#1872 = FACE_BOUND('',#1873,.T.);
#1873 = EDGE_LOOP('',(#1874,#1875,#1876,#1877,#1878,#1879,#1880,#1881));
#1874 = ORIENTED_EDGE('',*,*,#983,.F.);
#1875 = ORIENTED_EDGE('',*,*,#959,.F.);
#1876 = ORIENTED_EDGE('',*,*,#934,.F.);
#1877 = ORIENTED_EDGE('',*,*,#1844,.T.);
#1878 = ORIENTED_EDGE('',*,*,#1015,.T.);
#1879 = ORIENTED_EDGE('',*,*,#1040,.T.);
#1880 = ORIENTED_EDGE('',*,*,#1064,.T.);
#1881 = ORIENTED_EDGE('',*,*,#1859,.F.);
#1882 = FACE_BOUND('',#1883,.T.);
#1883 = EDGE_LOOP('',(#1884,#1895,#1903,#1912,#1920,#1929,#1937,#1946));
#1884 = ORIENTED_EDGE('',*,*,#1885,.F.);
#1885 = EDGE_CURVE('',#1886,#1888,#1890,.T.);
#1886 = VERTEX_POINT('',#1887);
#1887 = CARTESIAN_POINT('',(-16.,4.7,5.05));
#1888 = VERTEX_POINT('',#1889);
#1889 = CARTESIAN_POINT('',(-14.7,6.,5.05));
#1890 = CIRCLE('',#1891,1.3);
#1891 = AXIS2_PLACEMENT_3D('',#1892,#1893,#1894);
#1892 = CARTESIAN_POINT('',(-14.7,4.7,5.05));
#1893 = DIRECTION('',(0.,0.,-1.));
#1894 = DIRECTION('',(1.,0.,0.));
#1895 = ORIENTED_EDGE('',*,*,#1896,.F.);
#1896 = EDGE_CURVE('',#1897,#1886,#1899,.T.);
#1897 = VERTEX_POINT('',#1898);
#1898 = CARTESIAN_POINT('',(-16.,-4.7,5.05));
#1899 = LINE('',#1900,#1901);
#1900 = CARTESIAN_POINT('',(-16.,2.35,5.05));
#1901 = VECTOR('',#1902,1.);
#1902 = DIRECTION('',(0.,1.,0.));
#1903 = ORIENTED_EDGE('',*,*,#1904,.F.);
#1904 = EDGE_CURVE('',#1905,#1897,#1907,.T.);
#1905 = VERTEX_POINT('',#1906);
#1906 = CARTESIAN_POINT('',(-14.7,-6.,5.05));
#1907 = CIRCLE('',#1908,1.3);
#1908 = AXIS2_PLACEMENT_3D('',#1909,#1910,#1911);
#1909 = CARTESIAN_POINT('',(-14.7,-4.7,5.05));
#1910 = DIRECTION('',(0.,0.,-1.));
#1911 = DIRECTION('',(1.,0.,0.));
#1912 = ORIENTED_EDGE('',*,*,#1913,.F.);
#1913 = EDGE_CURVE('',#1914,#1905,#1916,.T.);
#1914 = VERTEX_POINT('',#1915);
#1915 = CARTESIAN_POINT('',(14.7,-6.,5.05));
#1916 = LINE('',#1917,#1918);
#1917 = CARTESIAN_POINT('',(-19.36714140093,-6.,5.05));
#1918 = VECTOR('',#1919,1.);
#1919 = DIRECTION('',(-1.,0.,0.));
#1920 = ORIENTED_EDGE('',*,*,#1921,.T.);
#1921 = EDGE_CURVE('',#1914,#1922,#1924,.T.);
#1922 = VERTEX_POINT('',#1923);
#1923 = CARTESIAN_POINT('',(16.,-4.7,5.05));
#1924 = CIRCLE('',#1925,1.3);
#1925 = AXIS2_PLACEMENT_3D('',#1926,#1927,#1928);
#1926 = CARTESIAN_POINT('',(14.7,-4.7,5.05));
#1927 = DIRECTION('',(0.,0.,1.));
#1928 = DIRECTION('',(-1.,0.,0.));
#1929 = ORIENTED_EDGE('',*,*,#1930,.T.);
#1930 = EDGE_CURVE('',#1922,#1931,#1933,.T.);
#1931 = VERTEX_POINT('',#1932);
#1932 = CARTESIAN_POINT('',(16.,4.7,5.05));
#1933 = LINE('',#1934,#1935);
#1934 = CARTESIAN_POINT('',(16.,2.35,5.05));
#1935 = VECTOR('',#1936,1.);
#1936 = DIRECTION('',(0.,1.,0.));
#1937 = ORIENTED_EDGE('',*,*,#1938,.T.);
#1938 = EDGE_CURVE('',#1931,#1939,#1941,.T.);
#1939 = VERTEX_POINT('',#1940);
#1940 = CARTESIAN_POINT('',(14.7,6.,5.05));
#1941 = CIRCLE('',#1942,1.3);
#1942 = AXIS2_PLACEMENT_3D('',#1943,#1944,#1945);
#1943 = CARTESIAN_POINT('',(14.7,4.7,5.05));
#1944 = DIRECTION('',(0.,0.,1.));
#1945 = DIRECTION('',(-1.,0.,0.));
#1946 = ORIENTED_EDGE('',*,*,#1947,.T.);
#1947 = EDGE_CURVE('',#1939,#1888,#1948,.T.);
#1948 = LINE('',#1949,#1950);
#1949 = CARTESIAN_POINT('',(12.017141400939,6.,5.05));
#1950 = VECTOR('',#1951,1.);
#1951 = DIRECTION('',(-1.,-0.,-0.));
#1952 = FACE_BOUND('',#1953,.T.);
#1953 = EDGE_LOOP('',(#1954,#1955,#1956,#1957,#1958,#1959,#1960,#1961));
#1954 = ORIENTED_EDGE('',*,*,#1469,.T.);
#1955 = ORIENTED_EDGE('',*,*,#1493,.F.);
#1956 = ORIENTED_EDGE('',*,*,#1518,.T.);
#1957 = ORIENTED_EDGE('',*,*,#1542,.F.);
#1958 = ORIENTED_EDGE('',*,*,#1567,.T.);
#1959 = ORIENTED_EDGE('',*,*,#1591,.F.);
#1960 = ORIENTED_EDGE('',*,*,#1616,.T.);
#1961 = ORIENTED_EDGE('',*,*,#1437,.F.);
#1962 = FACE_BOUND('',#1963,.T.);
#1963 = EDGE_LOOP('',(#1964,#1965,#1966,#1967,#1968,#1969,#1970,#1971));
#1964 = ORIENTED_EDGE('',*,*,#1665,.F.);
#1965 = ORIENTED_EDGE('',*,*,#1633,.T.);
#1966 = ORIENTED_EDGE('',*,*,#1812,.F.);
#1967 = ORIENTED_EDGE('',*,*,#1787,.T.);
#1968 = ORIENTED_EDGE('',*,*,#1763,.F.);
#1969 = ORIENTED_EDGE('',*,*,#1738,.T.);
#1970 = ORIENTED_EDGE('',*,*,#1714,.F.);
#1971 = ORIENTED_EDGE('',*,*,#1689,.T.);
#1972 = PLANE('',#1973);
#1973 = AXIS2_PLACEMENT_3D('',#1974,#1975,#1976);
#1974 = CARTESIAN_POINT('',(1.E-15,0.,5.05));
#1975 = DIRECTION('',(-0.,-0.,-1.));
#1976 = DIRECTION('',(-1.,0.,0.));
#1977 = ADVANCED_FACE('',(#1978),#2004,.F.);
#1978 = FACE_BOUND('',#1979,.T.);
#1979 = EDGE_LOOP('',(#1980,#1981,#1989,#1998));
#1980 = ORIENTED_EDGE('',*,*,#1885,.T.);
#1981 = ORIENTED_EDGE('',*,*,#1982,.T.);
#1982 = EDGE_CURVE('',#1888,#1983,#1985,.T.);
#1983 = VERTEX_POINT('',#1984);
#1984 = CARTESIAN_POINT('',(-14.7,6.,7.));
#1985 = LINE('',#1986,#1987);
#1986 = CARTESIAN_POINT('',(-14.7,6.,0.));
#1987 = VECTOR('',#1988,1.);
#1988 = DIRECTION('',(0.,0.,1.));
#1989 = ORIENTED_EDGE('',*,*,#1990,.T.);
#1990 = EDGE_CURVE('',#1983,#1991,#1993,.T.);
#1991 = VERTEX_POINT('',#1992);
#1992 = CARTESIAN_POINT('',(-16.,4.7,7.));
#1993 = CIRCLE('',#1994,1.3);
#1994 = AXIS2_PLACEMENT_3D('',#1995,#1996,#1997);
#1995 = CARTESIAN_POINT('',(-14.7,4.7,7.));
#1996 = DIRECTION('',(0.,0.,1.));
#1997 = DIRECTION('',(1.,0.,0.));
#1998 = ORIENTED_EDGE('',*,*,#1999,.F.);
#1999 = EDGE_CURVE('',#1886,#1991,#2000,.T.);
#2000 = LINE('',#2001,#2002);
#2001 = CARTESIAN_POINT('',(-16.,4.7,0.));
#2002 = VECTOR('',#2003,1.);
#2003 = DIRECTION('',(0.,0.,1.));
#2004 = CYLINDRICAL_SURFACE('',#2005,1.3);
#2005 = AXIS2_PLACEMENT_3D('',#2006,#2007,#2008);
#2006 = CARTESIAN_POINT('',(-14.7,4.7,0.));
#2007 = DIRECTION('',(-0.,-0.,-1.));
#2008 = DIRECTION('',(1.,0.,0.));
#2009 = ADVANCED_FACE('',(#2010),#2028,.T.);
#2010 = FACE_BOUND('',#2011,.T.);
#2011 = EDGE_LOOP('',(#2012,#2013,#2014,#2022));
#2012 = ORIENTED_EDGE('',*,*,#1896,.T.);
#2013 = ORIENTED_EDGE('',*,*,#1999,.T.);
#2014 = ORIENTED_EDGE('',*,*,#2015,.T.);
#2015 = EDGE_CURVE('',#1991,#2016,#2018,.T.);
#2016 = VERTEX_POINT('',#2017);
#2017 = CARTESIAN_POINT('',(-16.,-4.7,7.));
#2018 = LINE('',#2019,#2020);
#2019 = CARTESIAN_POINT('',(-16.,4.7,7.));
#2020 = VECTOR('',#2021,1.);
#2021 = DIRECTION('',(0.,-1.,0.));
#2022 = ORIENTED_EDGE('',*,*,#2023,.F.);
#2023 = EDGE_CURVE('',#1897,#2016,#2024,.T.);
#2024 = LINE('',#2025,#2026);
#2025 = CARTESIAN_POINT('',(-16.,-4.7,0.));
#2026 = VECTOR('',#2027,1.);
#2027 = DIRECTION('',(0.,0.,1.));
#2028 = PLANE('',#2029);
#2029 = AXIS2_PLACEMENT_3D('',#2030,#2031,#2032);
#2030 = CARTESIAN_POINT('',(-16.,4.7,0.));
#2031 = DIRECTION('',(1.,0.,0.));
#2032 = DIRECTION('',(0.,-1.,0.));
#2033 = ADVANCED_FACE('',(#2034),#2053,.F.);
#2034 = FACE_BOUND('',#2035,.T.);
#2035 = EDGE_LOOP('',(#2036,#2037,#2038,#2047));
#2036 = ORIENTED_EDGE('',*,*,#1904,.T.);
#2037 = ORIENTED_EDGE('',*,*,#2023,.T.);
#2038 = ORIENTED_EDGE('',*,*,#2039,.T.);
#2039 = EDGE_CURVE('',#2016,#2040,#2042,.T.);
#2040 = VERTEX_POINT('',#2041);
#2041 = CARTESIAN_POINT('',(-14.7,-6.,7.));
#2042 = CIRCLE('',#2043,1.3);
#2043 = AXIS2_PLACEMENT_3D('',#2044,#2045,#2046);
#2044 = CARTESIAN_POINT('',(-14.7,-4.7,7.));
#2045 = DIRECTION('',(0.,0.,1.));
#2046 = DIRECTION('',(1.,0.,0.));
#2047 = ORIENTED_EDGE('',*,*,#2048,.F.);
#2048 = EDGE_CURVE('',#1905,#2040,#2049,.T.);
#2049 = LINE('',#2050,#2051);
#2050 = CARTESIAN_POINT('',(-14.7,-6.,0.));
#2051 = VECTOR('',#2052,1.);
#2052 = DIRECTION('',(0.,0.,1.));
#2053 = CYLINDRICAL_SURFACE('',#2054,1.3);
#2054 = AXIS2_PLACEMENT_3D('',#2055,#2056,#2057);
#2055 = CARTESIAN_POINT('',(-14.7,-4.7,0.));
#2056 = DIRECTION('',(-0.,-0.,-1.));
#2057 = DIRECTION('',(1.,0.,0.));
#2058 = ADVANCED_FACE('',(#2059),#2085,.F.);
#2059 = FACE_BOUND('',#2060,.F.);
#2060 = EDGE_LOOP('',(#2061,#2062,#2070,#2079));
#2061 = ORIENTED_EDGE('',*,*,#1938,.T.);
#2062 = ORIENTED_EDGE('',*,*,#2063,.T.);
#2063 = EDGE_CURVE('',#1939,#2064,#2066,.T.);
#2064 = VERTEX_POINT('',#2065);
#2065 = CARTESIAN_POINT('',(14.7,6.,7.));
#2066 = LINE('',#2067,#2068);
#2067 = CARTESIAN_POINT('',(14.7,6.,0.));
#2068 = VECTOR('',#2069,1.);
#2069 = DIRECTION('',(0.,0.,1.));
#2070 = ORIENTED_EDGE('',*,*,#2071,.T.);
#2071 = EDGE_CURVE('',#2064,#2072,#2074,.T.);
#2072 = VERTEX_POINT('',#2073);
#2073 = CARTESIAN_POINT('',(16.,4.7,7.));
#2074 = CIRCLE('',#2075,1.3);
#2075 = AXIS2_PLACEMENT_3D('',#2076,#2077,#2078);
#2076 = CARTESIAN_POINT('',(14.7,4.7,7.));
#2077 = DIRECTION('',(0.,0.,-1.));
#2078 = DIRECTION('',(-1.,-0.,-0.));
#2079 = ORIENTED_EDGE('',*,*,#2080,.F.);
#2080 = EDGE_CURVE('',#1931,#2072,#2081,.T.);
#2081 = LINE('',#2082,#2083);
#2082 = CARTESIAN_POINT('',(16.,4.7,0.));
#2083 = VECTOR('',#2084,1.);
#2084 = DIRECTION('',(0.,0.,1.));
#2085 = CYLINDRICAL_SURFACE('',#2086,1.3);
#2086 = AXIS2_PLACEMENT_3D('',#2087,#2088,#2089);
#2087 = CARTESIAN_POINT('',(14.7,4.7,0.));
#2088 = DIRECTION('',(0.,0.,-1.));
#2089 = DIRECTION('',(-1.,-0.,-0.));
#2090 = ADVANCED_FACE('',(#2091),#2109,.T.);
#2091 = FACE_BOUND('',#2092,.F.);
#2092 = EDGE_LOOP('',(#2093,#2094,#2095,#2103));
#2093 = ORIENTED_EDGE('',*,*,#1930,.T.);
#2094 = ORIENTED_EDGE('',*,*,#2080,.T.);
#2095 = ORIENTED_EDGE('',*,*,#2096,.T.);
#2096 = EDGE_CURVE('',#2072,#2097,#2099,.T.);
#2097 = VERTEX_POINT('',#2098);
#2098 = CARTESIAN_POINT('',(16.,-4.7,7.));
#2099 = LINE('',#2100,#2101);
#2100 = CARTESIAN_POINT('',(16.,4.7,7.));
#2101 = VECTOR('',#2102,1.);
#2102 = DIRECTION('',(-0.,-1.,-0.));
#2103 = ORIENTED_EDGE('',*,*,#2104,.F.);
#2104 = EDGE_CURVE('',#1922,#2097,#2105,.T.);
#2105 = LINE('',#2106,#2107);
#2106 = CARTESIAN_POINT('',(16.,-4.7,0.));
#2107 = VECTOR('',#2108,1.);
#2108 = DIRECTION('',(0.,0.,1.));
#2109 = PLANE('',#2110);
#2110 = AXIS2_PLACEMENT_3D('',#2111,#2112,#2113);
#2111 = CARTESIAN_POINT('',(16.,4.7,0.));
#2112 = DIRECTION('',(-1.,-0.,-0.));
#2113 = DIRECTION('',(0.,1.,0.));
#2114 = ADVANCED_FACE('',(#2115),#2134,.F.);
#2115 = FACE_BOUND('',#2116,.F.);
#2116 = EDGE_LOOP('',(#2117,#2118,#2119,#2128));
#2117 = ORIENTED_EDGE('',*,*,#1921,.T.);
#2118 = ORIENTED_EDGE('',*,*,#2104,.T.);
#2119 = ORIENTED_EDGE('',*,*,#2120,.T.);
#2120 = EDGE_CURVE('',#2097,#2121,#2123,.T.);
#2121 = VERTEX_POINT('',#2122);
#2122 = CARTESIAN_POINT('',(14.7,-6.,7.));
#2123 = CIRCLE('',#2124,1.3);
#2124 = AXIS2_PLACEMENT_3D('',#2125,#2126,#2127);
#2125 = CARTESIAN_POINT('',(14.7,-4.7,7.));
#2126 = DIRECTION('',(0.,0.,-1.));
#2127 = DIRECTION('',(-1.,-0.,-0.));
#2128 = ORIENTED_EDGE('',*,*,#2129,.F.);
#2129 = EDGE_CURVE('',#1914,#2121,#2130,.T.);
#2130 = LINE('',#2131,#2132);
#2131 = CARTESIAN_POINT('',(14.7,-6.,0.));
#2132 = VECTOR('',#2133,1.);
#2133 = DIRECTION('',(0.,0.,1.));
#2134 = CYLINDRICAL_SURFACE('',#2135,1.3);
#2135 = AXIS2_PLACEMENT_3D('',#2136,#2137,#2138);
#2136 = CARTESIAN_POINT('',(14.7,-4.7,0.));
#2137 = DIRECTION('',(0.,0.,-1.));
#2138 = DIRECTION('',(-1.,-0.,-0.));
#2139 = ADVANCED_FACE('',(#2140),#2151,.T.);
#2140 = FACE_BOUND('',#2141,.T.);
#2141 = EDGE_LOOP('',(#2142,#2143,#2144,#2150));
#2142 = ORIENTED_EDGE('',*,*,#1947,.F.);
#2143 = ORIENTED_EDGE('',*,*,#2063,.T.);
#2144 = ORIENTED_EDGE('',*,*,#2145,.F.);
#2145 = EDGE_CURVE('',#1983,#2064,#2146,.T.);
#2146 = LINE('',#2147,#2148);
#2147 = CARTESIAN_POINT('',(0.,6.,7.));
#2148 = VECTOR('',#2149,1.);
#2149 = DIRECTION('',(1.,0.,0.));
#2150 = ORIENTED_EDGE('',*,*,#1982,.F.);
#2151 = PLANE('',#2152);
#2152 = AXIS2_PLACEMENT_3D('',#2153,#2154,#2155);
#2153 = CARTESIAN_POINT('',(-1.7E-16,6.,6.025));
#2154 = DIRECTION('',(-0.,-1.,-0.));
#2155 = DIRECTION('',(0.,0.,-1.));
#2156 = ADVANCED_FACE('',(#2157),#2168,.T.);
#2157 = FACE_BOUND('',#2158,.T.);
#2158 = EDGE_LOOP('',(#2159,#2160,#2161,#2167));
#2159 = ORIENTED_EDGE('',*,*,#1913,.T.);
#2160 = ORIENTED_EDGE('',*,*,#2048,.T.);
#2161 = ORIENTED_EDGE('',*,*,#2162,.T.);
#2162 = EDGE_CURVE('',#2040,#2121,#2163,.T.);
#2163 = LINE('',#2164,#2165);
#2164 = CARTESIAN_POINT('',(-14.7,-6.,7.));
#2165 = VECTOR('',#2166,1.);
#2166 = DIRECTION('',(1.,0.,0.));
#2167 = ORIENTED_EDGE('',*,*,#2129,.F.);
#2168 = PLANE('',#2169);
#2169 = AXIS2_PLACEMENT_3D('',#2170,#2171,#2172);
#2170 = CARTESIAN_POINT('',(0.,-6.,6.025));
#2171 = DIRECTION('',(0.,1.,0.));
#2172 = DIRECTION('',(0.,-0.,1.));
#2173 = ADVANCED_FACE('',(#2174),#2184,.T.);
#2174 = FACE_BOUND('',#2175,.T.);
#2175 = EDGE_LOOP('',(#2176,#2177,#2178,#2179,#2180,#2181,#2182,#2183));
#2176 = ORIENTED_EDGE('',*,*,#2162,.F.);
#2177 = ORIENTED_EDGE('',*,*,#2039,.F.);
#2178 = ORIENTED_EDGE('',*,*,#2015,.F.);
#2179 = ORIENTED_EDGE('',*,*,#1990,.F.);
#2180 = ORIENTED_EDGE('',*,*,#2145,.T.);
#2181 = ORIENTED_EDGE('',*,*,#2071,.T.);
#2182 = ORIENTED_EDGE('',*,*,#2096,.T.);
#2183 = ORIENTED_EDGE('',*,*,#2120,.T.);
#2184 = PLANE('',#2185);
#2185 = AXIS2_PLACEMENT_3D('',#2186,#2187,#2188);
#2186 = CARTESIAN_POINT('',(0.,6.6E-16,7.));
#2187 = DIRECTION('',(-0.,-0.,-1.));
#2188 = DIRECTION('',(-1.,0.,0.));
#2189 = ( GEOMETRIC_REPRESENTATION_CONTEXT(3) 
GLOBAL_UNCERTAINTY_ASSIGNED_CONTEXT((#2193)) 
GLOBAL_UNIT_ASSIGNED_CONTEXT((#2190,#2191,#2192)) REPRESENTATION_CONTEXT
('Context #1','3D Context with UNIT and UNCERTAINTY') );
#2190 = ( LENGTH_UNIT() NAMED_UNIT(*) SI_UNIT(.MILLI.,.METRE.) );
#2191 = ( NAMED_UNIT(*) PLANE_ANGLE_UNIT() SI_UNIT($,.RADIAN.) );
#2192 = ( NAMED_UNIT(*) SI_UNIT($,.STERADIAN.) SOLID_ANGLE_UNIT() );
#2193 = UNCERTAINTY_MEASURE_WITH_UNIT(LENGTH_MEASURE(1.E-05),#2190,
  'distance_accuracy_value','confusion accuracy');
#2194 = PRODUCT_RELATED_PRODUCT_CATEGORY('part',$,(#7));
#2195 = MECHANICAL_DESIGN_GEOMETRIC_PRESENTATION_REPRESENTATION('',(
    #2196),#2189);
#2196 = STYLED_ITEM('color',(#2197),#15);
#2197 = PRESENTATION_STYLE_ASSIGNMENT((#2198,#2204));
#2198 = SURFACE_STYLE_USAGE(.BOTH.,#2199);
#2199 = SURFACE_SIDE_STYLE('',(#2200));
#2200 = SURFACE_STYLE_FILL_AREA(#2201);
#2201 = FILL_AREA_STYLE('',(#2202));
#2202 = FILL_AREA_STYLE_COLOUR('',#2203);
#2203 = COLOUR_RGB('',0.678431390124,0.709803936702,0.741176476869);
#2204 = CURVE_STYLE('',#2205,POSITIVE_LENGTH_MEASURE(0.1),#2206);
#2205 = DRAUGHTING_PRE_DEFINED_CURVE_FONT('continuous');
#2206 = COLOUR_RGB('',9.803921802644E-02,9.803921802644E-02,
  9.803921802644E-02);
ENDSEC;
END-ISO-10303-21;
