ISO-10303-21;
HEADER;
FILE_DESCRIPTION(('FreeCAD Model'),'2;1');
FILE_NAME('Open CASCADE Shape Model','2025-05-23T22:23:41',(''),(''),
  'Open CASCADE STEP processor 7.8','FreeCAD','Unknown');
FILE_SCHEMA(('AUTOMOTIVE_DESIGN { 1 0 10303 214 1 1 1 1 }'));
ENDSEC;
DATA;
#1 = APPLICATION_PROTOCOL_DEFINITION('international standard',
  'automotive_design',2000,#2);
#2 = APPLICATION_CONTEXT(
  'core data for automotive mechanical design processes');
#3 = SHAPE_DEFINITION_REPRESENTATION(#4,#10);
#4 = PRODUCT_DEFINITION_SHAPE('','',#5);
#5 = PRODUCT_DEFINITION('design','',#6,#9);
#6 = PRODUCT_DEFINITION_FORMATION('','',#7);
#7 = PRODUCT('0.5模齿条','0.5模齿条','',(#8));
#8 = PRODUCT_CONTEXT('',#2,'mechanical');
#9 = PRODUCT_DEFINITION_CONTEXT('part definition',#2,'design');
#10 = ADVANCED_BREP_SHAPE_REPRESENTATION('',(#11,#15),#2313);
#11 = AXIS2_PLACEMENT_3D('',#12,#13,#14);
#12 = CARTESIAN_POINT('',(0.,0.,0.));
#13 = DIRECTION('',(0.,0.,1.));
#14 = DIRECTION('',(1.,0.,-0.));
#15 = MANIFOLD_SOLID_BREP('',#16);
#16 = CLOSED_SHELL('',(#17,#57,#88,#119,#616,#1113,#1152,#1169,#1186,
    #1225,#1242,#1259,#1276,#1293,#1310,#1327,#1344,#1361,#1378,#1395,
    #1412,#1429,#1446,#1463,#1480,#1497,#1514,#1531,#1548,#1565,#1582,
    #1599,#1616,#1633,#1650,#1667,#1684,#1701,#1718,#1735,#1752,#1769,
    #1786,#1803,#1820,#1837,#1854,#1871,#1888,#1905,#1922,#1939,#1956,
    #1973,#1990,#2007,#2024,#2041,#2058,#2075,#2092,#2109,#2126,#2143,
    #2160,#2177,#2189,#2214,#2239,#2264,#2289,#2301));
#17 = ADVANCED_FACE('',(#18),#52,.T.);
#18 = FACE_BOUND('',#19,.T.);
#19 = EDGE_LOOP('',(#20,#30,#38,#46));
#20 = ORIENTED_EDGE('',*,*,#21,.T.);
#21 = EDGE_CURVE('',#22,#24,#26,.T.);
#22 = VERTEX_POINT('',#23);
#23 = CARTESIAN_POINT('',(-0.620180478114,-5.625,0.));
#24 = VERTEX_POINT('',#25);
#25 = CARTESIAN_POINT('',(-0.620180478114,-5.625,5.));
#26 = LINE('',#27,#28);
#27 = CARTESIAN_POINT('',(-0.620180478114,-5.625,0.));
#28 = VECTOR('',#29,1.);
#29 = DIRECTION('',(0.,0.,1.));
#30 = ORIENTED_EDGE('',*,*,#31,.T.);
#31 = EDGE_CURVE('',#24,#32,#34,.T.);
#32 = VERTEX_POINT('',#33);
#33 = CARTESIAN_POINT('',(-0.210713964566,-4.5,5.));
#34 = LINE('',#35,#36);
#35 = CARTESIAN_POINT('',(-0.620180478114,-5.625,5.));
#36 = VECTOR('',#37,1.);
#37 = DIRECTION('',(0.342020143325,0.939692620786,0.));
#38 = ORIENTED_EDGE('',*,*,#39,.F.);
#39 = EDGE_CURVE('',#40,#32,#42,.T.);
#40 = VERTEX_POINT('',#41);
#41 = CARTESIAN_POINT('',(-0.210713964566,-4.5,0.));
#42 = LINE('',#43,#44);
#43 = CARTESIAN_POINT('',(-0.210713964566,-4.5,0.));
#44 = VECTOR('',#45,1.);
#45 = DIRECTION('',(0.,0.,1.));
#46 = ORIENTED_EDGE('',*,*,#47,.F.);
#47 = EDGE_CURVE('',#22,#40,#48,.T.);
#48 = LINE('',#49,#50);
#49 = CARTESIAN_POINT('',(-0.620180478114,-5.625,0.));
#50 = VECTOR('',#51,1.);
#51 = DIRECTION('',(0.342020143325,0.939692620786,0.));
#52 = PLANE('',#53);
#53 = AXIS2_PLACEMENT_3D('',#54,#55,#56);
#54 = CARTESIAN_POINT('',(-0.620180478114,-5.625,0.));
#55 = DIRECTION('',(-0.939692620786,0.342020143325,0.));
#56 = DIRECTION('',(0.342020143325,0.939692620786,0.));
#57 = ADVANCED_FACE('',(#58),#83,.T.);
#58 = FACE_BOUND('',#59,.T.);
#59 = EDGE_LOOP('',(#60,#68,#76,#82));
#60 = ORIENTED_EDGE('',*,*,#61,.T.);
#61 = EDGE_CURVE('',#22,#62,#64,.T.);
#62 = VERTEX_POINT('',#63);
#63 = CARTESIAN_POINT('',(-0.620180478114,-6.,0.));
#64 = LINE('',#65,#66);
#65 = CARTESIAN_POINT('',(-0.620180478114,-5.625,0.));
#66 = VECTOR('',#67,1.);
#67 = DIRECTION('',(-0.,-1.,-0.));
#68 = ORIENTED_EDGE('',*,*,#69,.T.);
#69 = EDGE_CURVE('',#62,#70,#72,.T.);
#70 = VERTEX_POINT('',#71);
#71 = CARTESIAN_POINT('',(-0.620180478114,-6.,5.));
#72 = LINE('',#73,#74);
#73 = CARTESIAN_POINT('',(-0.620180478114,-6.,0.));
#74 = VECTOR('',#75,1.);
#75 = DIRECTION('',(0.,0.,1.));
#76 = ORIENTED_EDGE('',*,*,#77,.F.);
#77 = EDGE_CURVE('',#24,#70,#78,.T.);
#78 = LINE('',#79,#80);
#79 = CARTESIAN_POINT('',(-0.620180478114,-5.625,5.));
#80 = VECTOR('',#81,1.);
#81 = DIRECTION('',(-0.,-1.,-0.));
#82 = ORIENTED_EDGE('',*,*,#21,.F.);
#83 = PLANE('',#84);
#84 = AXIS2_PLACEMENT_3D('',#85,#86,#87);
#85 = CARTESIAN_POINT('',(-0.620180478114,-5.625,0.));
#86 = DIRECTION('',(-1.,0.,0.));
#87 = DIRECTION('',(0.,0.,1.));
#88 = ADVANCED_FACE('',(#89),#114,.T.);
#89 = FACE_BOUND('',#90,.T.);
#90 = EDGE_LOOP('',(#91,#92,#100,#108));
#91 = ORIENTED_EDGE('',*,*,#39,.T.);
#92 = ORIENTED_EDGE('',*,*,#93,.T.);
#93 = EDGE_CURVE('',#32,#94,#96,.T.);
#94 = VERTEX_POINT('',#95);
#95 = CARTESIAN_POINT('',(0.210713964566,-4.5,5.));
#96 = LINE('',#97,#98);
#97 = CARTESIAN_POINT('',(-0.210713964566,-4.5,5.));
#98 = VECTOR('',#99,1.);
#99 = DIRECTION('',(1.,0.,0.));
#100 = ORIENTED_EDGE('',*,*,#101,.F.);
#101 = EDGE_CURVE('',#102,#94,#104,.T.);
#102 = VERTEX_POINT('',#103);
#103 = CARTESIAN_POINT('',(0.210713964566,-4.5,0.));
#104 = LINE('',#105,#106);
#105 = CARTESIAN_POINT('',(0.210713964566,-4.5,0.));
#106 = VECTOR('',#107,1.);
#107 = DIRECTION('',(0.,0.,1.));
#108 = ORIENTED_EDGE('',*,*,#109,.F.);
#109 = EDGE_CURVE('',#40,#102,#110,.T.);
#110 = LINE('',#111,#112);
#111 = CARTESIAN_POINT('',(-0.210713964566,-4.5,0.));
#112 = VECTOR('',#113,1.);
#113 = DIRECTION('',(1.,0.,0.));
#114 = PLANE('',#115);
#115 = AXIS2_PLACEMENT_3D('',#116,#117,#118);
#116 = CARTESIAN_POINT('',(-0.210713964566,-4.5,0.));
#117 = DIRECTION('',(0.,1.,0.));
#118 = DIRECTION('',(1.,0.,0.));
#119 = ADVANCED_FACE('',(#120),#611,.T.);
#120 = FACE_BOUND('',#121,.T.);
#121 = EDGE_LOOP('',(#122,#123,#124,#125,#133,#141,#149,#157,#165,#173,
    #181,#189,#197,#205,#213,#221,#229,#237,#245,#253,#261,#269,#277,
    #285,#293,#301,#309,#317,#325,#333,#341,#349,#357,#365,#373,#381,
    #389,#397,#405,#413,#421,#429,#437,#445,#453,#461,#469,#477,#485,
    #493,#501,#509,#517,#525,#533,#541,#549,#557,#565,#573,#581,#589,
    #597,#605));
#122 = ORIENTED_EDGE('',*,*,#61,.F.);
#123 = ORIENTED_EDGE('',*,*,#47,.T.);
#124 = ORIENTED_EDGE('',*,*,#109,.T.);
#125 = ORIENTED_EDGE('',*,*,#126,.T.);
#126 = EDGE_CURVE('',#102,#127,#129,.T.);
#127 = VERTEX_POINT('',#128);
#128 = CARTESIAN_POINT('',(0.620180478114,-5.625,0.));
#129 = LINE('',#130,#131);
#130 = CARTESIAN_POINT('',(0.210713964566,-4.5,0.));
#131 = VECTOR('',#132,1.);
#132 = DIRECTION('',(0.342020143325,-0.939692620786,0.));
#133 = ORIENTED_EDGE('',*,*,#134,.F.);
#134 = EDGE_CURVE('',#135,#127,#137,.T.);
#135 = VERTEX_POINT('',#136);
#136 = CARTESIAN_POINT('',(0.95061584868,-5.625,0.));
#137 = LINE('',#138,#139);
#138 = CARTESIAN_POINT('',(0.95061584868,-5.625,0.));
#139 = VECTOR('',#140,1.);
#140 = DIRECTION('',(-1.,0.,0.));
#141 = ORIENTED_EDGE('',*,*,#142,.T.);
#142 = EDGE_CURVE('',#135,#143,#145,.T.);
#143 = VERTEX_POINT('',#144);
#144 = CARTESIAN_POINT('',(1.360082362229,-4.5,0.));
#145 = LINE('',#146,#147);
#146 = CARTESIAN_POINT('',(0.95061584868,-5.625,0.));
#147 = VECTOR('',#148,1.);
#148 = DIRECTION('',(0.342020143325,0.939692620786,0.));
#149 = ORIENTED_EDGE('',*,*,#150,.T.);
#150 = EDGE_CURVE('',#143,#151,#153,.T.);
#151 = VERTEX_POINT('',#152);
#152 = CARTESIAN_POINT('',(1.781510291361,-4.5,0.));
#153 = LINE('',#154,#155);
#154 = CARTESIAN_POINT('',(1.360082362229,-4.5,0.));
#155 = VECTOR('',#156,1.);
#156 = DIRECTION('',(1.,0.,0.));
#157 = ORIENTED_EDGE('',*,*,#158,.T.);
#158 = EDGE_CURVE('',#151,#159,#161,.T.);
#159 = VERTEX_POINT('',#160);
#160 = CARTESIAN_POINT('',(2.190976804909,-5.625,0.));
#161 = LINE('',#162,#163);
#162 = CARTESIAN_POINT('',(1.781510291361,-4.5,0.));
#163 = VECTOR('',#164,1.);
#164 = DIRECTION('',(0.342020143325,-0.939692620786,0.));
#165 = ORIENTED_EDGE('',*,*,#166,.F.);
#166 = EDGE_CURVE('',#167,#159,#169,.T.);
#167 = VERTEX_POINT('',#168);
#168 = CARTESIAN_POINT('',(2.521412175475,-5.625,0.));
#169 = LINE('',#170,#171);
#170 = CARTESIAN_POINT('',(2.521412175475,-5.625,0.));
#171 = VECTOR('',#172,1.);
#172 = DIRECTION('',(-1.,0.,0.));
#173 = ORIENTED_EDGE('',*,*,#174,.T.);
#174 = EDGE_CURVE('',#167,#175,#177,.T.);
#175 = VERTEX_POINT('',#176);
#176 = CARTESIAN_POINT('',(2.930878689024,-4.5,0.));
#177 = LINE('',#178,#179);
#178 = CARTESIAN_POINT('',(2.521412175475,-5.625,0.));
#179 = VECTOR('',#180,1.);
#180 = DIRECTION('',(0.342020143325,0.939692620786,0.));
#181 = ORIENTED_EDGE('',*,*,#182,.T.);
#182 = EDGE_CURVE('',#175,#183,#185,.T.);
#183 = VERTEX_POINT('',#184);
#184 = CARTESIAN_POINT('',(3.352306618156,-4.5,0.));
#185 = LINE('',#186,#187);
#186 = CARTESIAN_POINT('',(2.930878689024,-4.5,0.));
#187 = VECTOR('',#188,1.);
#188 = DIRECTION('',(1.,0.,0.));
#189 = ORIENTED_EDGE('',*,*,#190,.T.);
#190 = EDGE_CURVE('',#183,#191,#193,.T.);
#191 = VERTEX_POINT('',#192);
#192 = CARTESIAN_POINT('',(3.761773131704,-5.625,0.));
#193 = LINE('',#194,#195);
#194 = CARTESIAN_POINT('',(3.352306618156,-4.5,0.));
#195 = VECTOR('',#196,1.);
#196 = DIRECTION('',(0.342020143325,-0.939692620786,0.));
#197 = ORIENTED_EDGE('',*,*,#198,.F.);
#198 = EDGE_CURVE('',#199,#191,#201,.T.);
#199 = VERTEX_POINT('',#200);
#200 = CARTESIAN_POINT('',(4.09220850227,-5.625,0.));
#201 = LINE('',#202,#203);
#202 = CARTESIAN_POINT('',(4.09220850227,-5.625,0.));
#203 = VECTOR('',#204,1.);
#204 = DIRECTION('',(-1.,0.,0.));
#205 = ORIENTED_EDGE('',*,*,#206,.T.);
#206 = EDGE_CURVE('',#199,#207,#209,.T.);
#207 = VERTEX_POINT('',#208);
#208 = CARTESIAN_POINT('',(4.501675015819,-4.5,0.));
#209 = LINE('',#210,#211);
#210 = CARTESIAN_POINT('',(4.09220850227,-5.625,0.));
#211 = VECTOR('',#212,1.);
#212 = DIRECTION('',(0.342020143325,0.939692620786,0.));
#213 = ORIENTED_EDGE('',*,*,#214,.T.);
#214 = EDGE_CURVE('',#207,#215,#217,.T.);
#215 = VERTEX_POINT('',#216);
#216 = CARTESIAN_POINT('',(4.923102944951,-4.5,0.));
#217 = LINE('',#218,#219);
#218 = CARTESIAN_POINT('',(4.501675015819,-4.5,0.));
#219 = VECTOR('',#220,1.);
#220 = DIRECTION('',(1.,0.,0.));
#221 = ORIENTED_EDGE('',*,*,#222,.T.);
#222 = EDGE_CURVE('',#215,#223,#225,.T.);
#223 = VERTEX_POINT('',#224);
#224 = CARTESIAN_POINT('',(5.332569458499,-5.625,0.));
#225 = LINE('',#226,#227);
#226 = CARTESIAN_POINT('',(4.923102944951,-4.5,0.));
#227 = VECTOR('',#228,1.);
#228 = DIRECTION('',(0.342020143325,-0.939692620786,0.));
#229 = ORIENTED_EDGE('',*,*,#230,.F.);
#230 = EDGE_CURVE('',#231,#223,#233,.T.);
#231 = VERTEX_POINT('',#232);
#232 = CARTESIAN_POINT('',(5.663004829065,-5.625,0.));
#233 = LINE('',#234,#235);
#234 = CARTESIAN_POINT('',(5.663004829065,-5.625,0.));
#235 = VECTOR('',#236,1.);
#236 = DIRECTION('',(-1.,0.,0.));
#237 = ORIENTED_EDGE('',*,*,#238,.T.);
#238 = EDGE_CURVE('',#231,#239,#241,.T.);
#239 = VERTEX_POINT('',#240);
#240 = CARTESIAN_POINT('',(6.072471342614,-4.5,0.));
#241 = LINE('',#242,#243);
#242 = CARTESIAN_POINT('',(5.663004829065,-5.625,0.));
#243 = VECTOR('',#244,1.);
#244 = DIRECTION('',(0.342020143325,0.939692620786,0.));
#245 = ORIENTED_EDGE('',*,*,#246,.T.);
#246 = EDGE_CURVE('',#239,#247,#249,.T.);
#247 = VERTEX_POINT('',#248);
#248 = CARTESIAN_POINT('',(6.493899271746,-4.5,0.));
#249 = LINE('',#250,#251);
#250 = CARTESIAN_POINT('',(6.072471342614,-4.5,0.));
#251 = VECTOR('',#252,1.);
#252 = DIRECTION('',(1.,0.,0.));
#253 = ORIENTED_EDGE('',*,*,#254,.T.);
#254 = EDGE_CURVE('',#247,#255,#257,.T.);
#255 = VERTEX_POINT('',#256);
#256 = CARTESIAN_POINT('',(6.903365785294,-5.625,0.));
#257 = LINE('',#258,#259);
#258 = CARTESIAN_POINT('',(6.493899271746,-4.5,0.));
#259 = VECTOR('',#260,1.);
#260 = DIRECTION('',(0.342020143325,-0.939692620786,0.));
#261 = ORIENTED_EDGE('',*,*,#262,.F.);
#262 = EDGE_CURVE('',#263,#255,#265,.T.);
#263 = VERTEX_POINT('',#264);
#264 = CARTESIAN_POINT('',(7.23380115586,-5.625,0.));
#265 = LINE('',#266,#267);
#266 = CARTESIAN_POINT('',(7.23380115586,-5.625,0.));
#267 = VECTOR('',#268,1.);
#268 = DIRECTION('',(-1.,0.,0.));
#269 = ORIENTED_EDGE('',*,*,#270,.T.);
#270 = EDGE_CURVE('',#263,#271,#273,.T.);
#271 = VERTEX_POINT('',#272);
#272 = CARTESIAN_POINT('',(7.643267669408,-4.5,0.));
#273 = LINE('',#274,#275);
#274 = CARTESIAN_POINT('',(7.23380115586,-5.625,0.));
#275 = VECTOR('',#276,1.);
#276 = DIRECTION('',(0.342020143325,0.939692620786,0.));
#277 = ORIENTED_EDGE('',*,*,#278,.T.);
#278 = EDGE_CURVE('',#271,#279,#281,.T.);
#279 = VERTEX_POINT('',#280);
#280 = CARTESIAN_POINT('',(8.06469559854,-4.5,0.));
#281 = LINE('',#282,#283);
#282 = CARTESIAN_POINT('',(7.643267669408,-4.5,0.));
#283 = VECTOR('',#284,1.);
#284 = DIRECTION('',(1.,0.,0.));
#285 = ORIENTED_EDGE('',*,*,#286,.T.);
#286 = EDGE_CURVE('',#279,#287,#289,.T.);
#287 = VERTEX_POINT('',#288);
#288 = CARTESIAN_POINT('',(8.474162112089,-5.625,0.));
#289 = LINE('',#290,#291);
#290 = CARTESIAN_POINT('',(8.06469559854,-4.5,0.));
#291 = VECTOR('',#292,1.);
#292 = DIRECTION('',(0.342020143325,-0.939692620786,0.));
#293 = ORIENTED_EDGE('',*,*,#294,.F.);
#294 = EDGE_CURVE('',#295,#287,#297,.T.);
#295 = VERTEX_POINT('',#296);
#296 = CARTESIAN_POINT('',(8.804597482655,-5.625,0.));
#297 = LINE('',#298,#299);
#298 = CARTESIAN_POINT('',(8.804597482655,-5.625,0.));
#299 = VECTOR('',#300,1.);
#300 = DIRECTION('',(-1.,0.,0.));
#301 = ORIENTED_EDGE('',*,*,#302,.T.);
#302 = EDGE_CURVE('',#295,#303,#305,.T.);
#303 = VERTEX_POINT('',#304);
#304 = CARTESIAN_POINT('',(9.214063996203,-4.5,0.));
#305 = LINE('',#306,#307);
#306 = CARTESIAN_POINT('',(8.804597482655,-5.625,0.));
#307 = VECTOR('',#308,1.);
#308 = DIRECTION('',(0.342020143325,0.939692620786,0.));
#309 = ORIENTED_EDGE('',*,*,#310,.T.);
#310 = EDGE_CURVE('',#303,#311,#313,.T.);
#311 = VERTEX_POINT('',#312);
#312 = CARTESIAN_POINT('',(9.635491925335,-4.5,0.));
#313 = LINE('',#314,#315);
#314 = CARTESIAN_POINT('',(9.214063996203,-4.5,0.));
#315 = VECTOR('',#316,1.);
#316 = DIRECTION('',(1.,0.,0.));
#317 = ORIENTED_EDGE('',*,*,#318,.T.);
#318 = EDGE_CURVE('',#311,#319,#321,.T.);
#319 = VERTEX_POINT('',#320);
#320 = CARTESIAN_POINT('',(10.044958438884,-5.625,0.));
#321 = LINE('',#322,#323);
#322 = CARTESIAN_POINT('',(9.635491925335,-4.5,0.));
#323 = VECTOR('',#324,1.);
#324 = DIRECTION('',(0.342020143325,-0.939692620786,0.));
#325 = ORIENTED_EDGE('',*,*,#326,.F.);
#326 = EDGE_CURVE('',#327,#319,#329,.T.);
#327 = VERTEX_POINT('',#328);
#328 = CARTESIAN_POINT('',(10.37539380945,-5.625,0.));
#329 = LINE('',#330,#331);
#330 = CARTESIAN_POINT('',(10.37539380945,-5.625,0.));
#331 = VECTOR('',#332,1.);
#332 = DIRECTION('',(-1.,0.,0.));
#333 = ORIENTED_EDGE('',*,*,#334,.T.);
#334 = EDGE_CURVE('',#327,#335,#337,.T.);
#335 = VERTEX_POINT('',#336);
#336 = CARTESIAN_POINT('',(10.784860322998,-4.5,0.));
#337 = LINE('',#338,#339);
#338 = CARTESIAN_POINT('',(10.37539380945,-5.625,0.));
#339 = VECTOR('',#340,1.);
#340 = DIRECTION('',(0.342020143325,0.939692620786,0.));
#341 = ORIENTED_EDGE('',*,*,#342,.T.);
#342 = EDGE_CURVE('',#335,#343,#345,.T.);
#343 = VERTEX_POINT('',#344);
#344 = CARTESIAN_POINT('',(11.20628825213,-4.5,0.));
#345 = LINE('',#346,#347);
#346 = CARTESIAN_POINT('',(10.784860322998,-4.5,0.));
#347 = VECTOR('',#348,1.);
#348 = DIRECTION('',(1.,0.,0.));
#349 = ORIENTED_EDGE('',*,*,#350,.T.);
#350 = EDGE_CURVE('',#343,#351,#353,.T.);
#351 = VERTEX_POINT('',#352);
#352 = CARTESIAN_POINT('',(11.615754765679,-5.625,0.));
#353 = LINE('',#354,#355);
#354 = CARTESIAN_POINT('',(11.20628825213,-4.5,0.));
#355 = VECTOR('',#356,1.);
#356 = DIRECTION('',(0.342020143325,-0.939692620786,0.));
#357 = ORIENTED_EDGE('',*,*,#358,.F.);
#358 = EDGE_CURVE('',#359,#351,#361,.T.);
#359 = VERTEX_POINT('',#360);
#360 = CARTESIAN_POINT('',(11.946190136245,-5.625,0.));
#361 = LINE('',#362,#363);
#362 = CARTESIAN_POINT('',(11.946190136245,-5.625,0.));
#363 = VECTOR('',#364,1.);
#364 = DIRECTION('',(-1.,0.,0.));
#365 = ORIENTED_EDGE('',*,*,#366,.T.);
#366 = EDGE_CURVE('',#359,#367,#369,.T.);
#367 = VERTEX_POINT('',#368);
#368 = CARTESIAN_POINT('',(12.355656649793,-4.5,0.));
#369 = LINE('',#370,#371);
#370 = CARTESIAN_POINT('',(11.946190136245,-5.625,0.));
#371 = VECTOR('',#372,1.);
#372 = DIRECTION('',(0.342020143325,0.939692620786,0.));
#373 = ORIENTED_EDGE('',*,*,#374,.T.);
#374 = EDGE_CURVE('',#367,#375,#377,.T.);
#375 = VERTEX_POINT('',#376);
#376 = CARTESIAN_POINT('',(12.777084578925,-4.5,0.));
#377 = LINE('',#378,#379);
#378 = CARTESIAN_POINT('',(12.355656649793,-4.5,0.));
#379 = VECTOR('',#380,1.);
#380 = DIRECTION('',(1.,0.,0.));
#381 = ORIENTED_EDGE('',*,*,#382,.T.);
#382 = EDGE_CURVE('',#375,#383,#385,.T.);
#383 = VERTEX_POINT('',#384);
#384 = CARTESIAN_POINT('',(13.186551092474,-5.625,0.));
#385 = LINE('',#386,#387);
#386 = CARTESIAN_POINT('',(12.777084578925,-4.5,0.));
#387 = VECTOR('',#388,1.);
#388 = DIRECTION('',(0.342020143325,-0.939692620786,0.));
#389 = ORIENTED_EDGE('',*,*,#390,.F.);
#390 = EDGE_CURVE('',#391,#383,#393,.T.);
#391 = VERTEX_POINT('',#392);
#392 = CARTESIAN_POINT('',(13.51698646304,-5.625,0.));
#393 = LINE('',#394,#395);
#394 = CARTESIAN_POINT('',(13.51698646304,-5.625,0.));
#395 = VECTOR('',#396,1.);
#396 = DIRECTION('',(-1.,0.,0.));
#397 = ORIENTED_EDGE('',*,*,#398,.T.);
#398 = EDGE_CURVE('',#391,#399,#401,.T.);
#399 = VERTEX_POINT('',#400);
#400 = CARTESIAN_POINT('',(13.926452976588,-4.5,0.));
#401 = LINE('',#402,#403);
#402 = CARTESIAN_POINT('',(13.51698646304,-5.625,0.));
#403 = VECTOR('',#404,1.);
#404 = DIRECTION('',(0.342020143325,0.939692620786,0.));
#405 = ORIENTED_EDGE('',*,*,#406,.T.);
#406 = EDGE_CURVE('',#399,#407,#409,.T.);
#407 = VERTEX_POINT('',#408);
#408 = CARTESIAN_POINT('',(14.34788090572,-4.5,0.));
#409 = LINE('',#410,#411);
#410 = CARTESIAN_POINT('',(13.926452976588,-4.5,0.));
#411 = VECTOR('',#412,1.);
#412 = DIRECTION('',(1.,0.,0.));
#413 = ORIENTED_EDGE('',*,*,#414,.T.);
#414 = EDGE_CURVE('',#407,#415,#417,.T.);
#415 = VERTEX_POINT('',#416);
#416 = CARTESIAN_POINT('',(14.757347419268,-5.625,0.));
#417 = LINE('',#418,#419);
#418 = CARTESIAN_POINT('',(14.34788090572,-4.5,0.));
#419 = VECTOR('',#420,1.);
#420 = DIRECTION('',(0.342020143325,-0.939692620786,0.));
#421 = ORIENTED_EDGE('',*,*,#422,.F.);
#422 = EDGE_CURVE('',#423,#415,#425,.T.);
#423 = VERTEX_POINT('',#424);
#424 = CARTESIAN_POINT('',(15.087782789835,-5.625,0.));
#425 = LINE('',#426,#427);
#426 = CARTESIAN_POINT('',(15.087782789835,-5.625,0.));
#427 = VECTOR('',#428,1.);
#428 = DIRECTION('',(-1.,0.,0.));
#429 = ORIENTED_EDGE('',*,*,#430,.T.);
#430 = EDGE_CURVE('',#423,#431,#433,.T.);
#431 = VERTEX_POINT('',#432);
#432 = CARTESIAN_POINT('',(15.497249303383,-4.5,0.));
#433 = LINE('',#434,#435);
#434 = CARTESIAN_POINT('',(15.087782789835,-5.625,0.));
#435 = VECTOR('',#436,1.);
#436 = DIRECTION('',(0.342020143325,0.939692620786,0.));
#437 = ORIENTED_EDGE('',*,*,#438,.T.);
#438 = EDGE_CURVE('',#431,#439,#441,.T.);
#439 = VERTEX_POINT('',#440);
#440 = CARTESIAN_POINT('',(15.918677232515,-4.5,0.));
#441 = LINE('',#442,#443);
#442 = CARTESIAN_POINT('',(15.497249303383,-4.5,0.));
#443 = VECTOR('',#444,1.);
#444 = DIRECTION('',(1.,0.,0.));
#445 = ORIENTED_EDGE('',*,*,#446,.T.);
#446 = EDGE_CURVE('',#439,#447,#449,.T.);
#447 = VERTEX_POINT('',#448);
#448 = CARTESIAN_POINT('',(16.328143746063,-5.625,0.));
#449 = LINE('',#450,#451);
#450 = CARTESIAN_POINT('',(15.918677232515,-4.5,0.));
#451 = VECTOR('',#452,1.);
#452 = DIRECTION('',(0.342020143325,-0.939692620786,0.));
#453 = ORIENTED_EDGE('',*,*,#454,.F.);
#454 = EDGE_CURVE('',#455,#447,#457,.T.);
#455 = VERTEX_POINT('',#456);
#456 = CARTESIAN_POINT('',(16.658579116629,-5.625,0.));
#457 = LINE('',#458,#459);
#458 = CARTESIAN_POINT('',(16.658579116629,-5.625,0.));
#459 = VECTOR('',#460,1.);
#460 = DIRECTION('',(-1.,0.,0.));
#461 = ORIENTED_EDGE('',*,*,#462,.T.);
#462 = EDGE_CURVE('',#455,#463,#465,.T.);
#463 = VERTEX_POINT('',#464);
#464 = CARTESIAN_POINT('',(17.068045630178,-4.5,0.));
#465 = LINE('',#466,#467);
#466 = CARTESIAN_POINT('',(16.658579116629,-5.625,0.));
#467 = VECTOR('',#468,1.);
#468 = DIRECTION('',(0.342020143325,0.939692620786,0.));
#469 = ORIENTED_EDGE('',*,*,#470,.T.);
#470 = EDGE_CURVE('',#463,#471,#473,.T.);
#471 = VERTEX_POINT('',#472);
#472 = CARTESIAN_POINT('',(17.48947355931,-4.5,0.));
#473 = LINE('',#474,#475);
#474 = CARTESIAN_POINT('',(17.068045630178,-4.5,0.));
#475 = VECTOR('',#476,1.);
#476 = DIRECTION('',(1.,0.,0.));
#477 = ORIENTED_EDGE('',*,*,#478,.T.);
#478 = EDGE_CURVE('',#471,#479,#481,.T.);
#479 = VERTEX_POINT('',#480);
#480 = CARTESIAN_POINT('',(17.898940072858,-5.625,0.));
#481 = LINE('',#482,#483);
#482 = CARTESIAN_POINT('',(17.48947355931,-4.5,0.));
#483 = VECTOR('',#484,1.);
#484 = DIRECTION('',(0.342020143325,-0.939692620786,0.));
#485 = ORIENTED_EDGE('',*,*,#486,.F.);
#486 = EDGE_CURVE('',#487,#479,#489,.T.);
#487 = VERTEX_POINT('',#488);
#488 = CARTESIAN_POINT('',(18.229375443424,-5.625,0.));
#489 = LINE('',#490,#491);
#490 = CARTESIAN_POINT('',(18.229375443424,-5.625,0.));
#491 = VECTOR('',#492,1.);
#492 = DIRECTION('',(-1.,0.,0.));
#493 = ORIENTED_EDGE('',*,*,#494,.T.);
#494 = EDGE_CURVE('',#487,#495,#497,.T.);
#495 = VERTEX_POINT('',#496);
#496 = CARTESIAN_POINT('',(18.638841956973,-4.5,0.));
#497 = LINE('',#498,#499);
#498 = CARTESIAN_POINT('',(18.229375443424,-5.625,0.));
#499 = VECTOR('',#500,1.);
#500 = DIRECTION('',(0.342020143325,0.939692620786,0.));
#501 = ORIENTED_EDGE('',*,*,#502,.T.);
#502 = EDGE_CURVE('',#495,#503,#505,.T.);
#503 = VERTEX_POINT('',#504);
#504 = CARTESIAN_POINT('',(19.060269886105,-4.5,0.));
#505 = LINE('',#506,#507);
#506 = CARTESIAN_POINT('',(18.638841956973,-4.5,0.));
#507 = VECTOR('',#508,1.);
#508 = DIRECTION('',(1.,0.,0.));
#509 = ORIENTED_EDGE('',*,*,#510,.T.);
#510 = EDGE_CURVE('',#503,#511,#513,.T.);
#511 = VERTEX_POINT('',#512);
#512 = CARTESIAN_POINT('',(19.469736399653,-5.625,0.));
#513 = LINE('',#514,#515);
#514 = CARTESIAN_POINT('',(19.060269886105,-4.5,0.));
#515 = VECTOR('',#516,1.);
#516 = DIRECTION('',(0.342020143325,-0.939692620786,0.));
#517 = ORIENTED_EDGE('',*,*,#518,.F.);
#518 = EDGE_CURVE('',#519,#511,#521,.T.);
#519 = VERTEX_POINT('',#520);
#520 = CARTESIAN_POINT('',(19.800171770219,-5.625,0.));
#521 = LINE('',#522,#523);
#522 = CARTESIAN_POINT('',(19.800171770219,-5.625,0.));
#523 = VECTOR('',#524,1.);
#524 = DIRECTION('',(-1.,0.,0.));
#525 = ORIENTED_EDGE('',*,*,#526,.T.);
#526 = EDGE_CURVE('',#519,#527,#529,.T.);
#527 = VERTEX_POINT('',#528);
#528 = CARTESIAN_POINT('',(20.209638283768,-4.5,0.));
#529 = LINE('',#530,#531);
#530 = CARTESIAN_POINT('',(19.800171770219,-5.625,0.));
#531 = VECTOR('',#532,1.);
#532 = DIRECTION('',(0.342020143325,0.939692620786,0.));
#533 = ORIENTED_EDGE('',*,*,#534,.T.);
#534 = EDGE_CURVE('',#527,#535,#537,.T.);
#535 = VERTEX_POINT('',#536);
#536 = CARTESIAN_POINT('',(20.6310662129,-4.5,0.));
#537 = LINE('',#538,#539);
#538 = CARTESIAN_POINT('',(20.209638283768,-4.5,0.));
#539 = VECTOR('',#540,1.);
#540 = DIRECTION('',(1.,0.,0.));
#541 = ORIENTED_EDGE('',*,*,#542,.T.);
#542 = EDGE_CURVE('',#535,#543,#545,.T.);
#543 = VERTEX_POINT('',#544);
#544 = CARTESIAN_POINT('',(21.040532726448,-5.625,0.));
#545 = LINE('',#546,#547);
#546 = CARTESIAN_POINT('',(20.6310662129,-4.5,0.));
#547 = VECTOR('',#548,1.);
#548 = DIRECTION('',(0.342020143325,-0.939692620786,0.));
#549 = ORIENTED_EDGE('',*,*,#550,.F.);
#550 = EDGE_CURVE('',#551,#543,#553,.T.);
#551 = VERTEX_POINT('',#552);
#552 = CARTESIAN_POINT('',(21.370968097014,-5.625,0.));
#553 = LINE('',#554,#555);
#554 = CARTESIAN_POINT('',(21.370968097014,-5.625,0.));
#555 = VECTOR('',#556,1.);
#556 = DIRECTION('',(-1.,0.,0.));
#557 = ORIENTED_EDGE('',*,*,#558,.T.);
#558 = EDGE_CURVE('',#551,#559,#561,.T.);
#559 = VERTEX_POINT('',#560);
#560 = CARTESIAN_POINT('',(21.780434610563,-4.5,0.));
#561 = LINE('',#562,#563);
#562 = CARTESIAN_POINT('',(21.370968097014,-5.625,0.));
#563 = VECTOR('',#564,1.);
#564 = DIRECTION('',(0.342020143325,0.939692620786,0.));
#565 = ORIENTED_EDGE('',*,*,#566,.T.);
#566 = EDGE_CURVE('',#559,#567,#569,.T.);
#567 = VERTEX_POINT('',#568);
#568 = CARTESIAN_POINT('',(22.201862539695,-4.5,0.));
#569 = LINE('',#570,#571);
#570 = CARTESIAN_POINT('',(21.780434610563,-4.5,0.));
#571 = VECTOR('',#572,1.);
#572 = DIRECTION('',(1.,0.,0.));
#573 = ORIENTED_EDGE('',*,*,#574,.T.);
#574 = EDGE_CURVE('',#567,#575,#577,.T.);
#575 = VERTEX_POINT('',#576);
#576 = CARTESIAN_POINT('',(22.611329053243,-5.625,0.));
#577 = LINE('',#578,#579);
#578 = CARTESIAN_POINT('',(22.201862539695,-4.5,0.));
#579 = VECTOR('',#580,1.);
#580 = DIRECTION('',(0.342020143325,-0.939692620786,0.));
#581 = ORIENTED_EDGE('',*,*,#582,.T.);
#582 = EDGE_CURVE('',#575,#583,#585,.T.);
#583 = VERTEX_POINT('',#584);
#584 = CARTESIAN_POINT('',(22.611329053243,-9.,0.));
#585 = LINE('',#586,#587);
#586 = CARTESIAN_POINT('',(22.611329053243,-5.625,0.));
#587 = VECTOR('',#588,1.);
#588 = DIRECTION('',(0.,-1.,0.));
#589 = ORIENTED_EDGE('',*,*,#590,.T.);
#590 = EDGE_CURVE('',#583,#591,#593,.T.);
#591 = VERTEX_POINT('',#592);
#592 = CARTESIAN_POINT('',(-27.38867094675,-9.,0.));
#593 = LINE('',#594,#595);
#594 = CARTESIAN_POINT('',(22.611329053243,-9.,0.));
#595 = VECTOR('',#596,1.);
#596 = DIRECTION('',(-1.,0.,0.));
#597 = ORIENTED_EDGE('',*,*,#598,.T.);
#598 = EDGE_CURVE('',#591,#599,#601,.T.);
#599 = VERTEX_POINT('',#600);
#600 = CARTESIAN_POINT('',(-27.38867094675,-6.,0.));
#601 = LINE('',#602,#603);
#602 = CARTESIAN_POINT('',(-27.38867094675,-9.,0.));
#603 = VECTOR('',#604,1.);
#604 = DIRECTION('',(0.,1.,0.));
#605 = ORIENTED_EDGE('',*,*,#606,.F.);
#606 = EDGE_CURVE('',#62,#599,#607,.T.);
#607 = LINE('',#608,#609);
#608 = CARTESIAN_POINT('',(-0.620180478114,-6.,0.));
#609 = VECTOR('',#610,1.);
#610 = DIRECTION('',(-1.,0.,0.));
#611 = PLANE('',#612);
#612 = AXIS2_PLACEMENT_3D('',#613,#614,#615);
#613 = CARTESIAN_POINT('',(3.725081969912E-02,-6.797142424737,0.));
#614 = DIRECTION('',(-0.,-0.,-1.));
#615 = DIRECTION('',(-1.,0.,0.));
#616 = ADVANCED_FACE('',(#617),#1108,.T.);
#617 = FACE_BOUND('',#618,.T.);
#618 = EDGE_LOOP('',(#619,#620,#621,#629,#637,#645,#653,#661,#669,#677,
    #685,#693,#701,#709,#717,#725,#733,#741,#749,#757,#765,#773,#781,
    #789,#797,#805,#813,#821,#829,#837,#845,#853,#861,#869,#877,#885,
    #893,#901,#909,#917,#925,#933,#941,#949,#957,#965,#973,#981,#989,
    #997,#1005,#1013,#1021,#1029,#1037,#1045,#1053,#1061,#1069,#1077,
    #1085,#1093,#1101,#1107));
#619 = ORIENTED_EDGE('',*,*,#31,.F.);
#620 = ORIENTED_EDGE('',*,*,#77,.T.);
#621 = ORIENTED_EDGE('',*,*,#622,.T.);
#622 = EDGE_CURVE('',#70,#623,#625,.T.);
#623 = VERTEX_POINT('',#624);
#624 = CARTESIAN_POINT('',(-27.38867094675,-6.,5.));
#625 = LINE('',#626,#627);
#626 = CARTESIAN_POINT('',(-0.95061584868,-6.,5.));
#627 = VECTOR('',#628,1.);
#628 = DIRECTION('',(-1.,0.,0.));
#629 = ORIENTED_EDGE('',*,*,#630,.F.);
#630 = EDGE_CURVE('',#631,#623,#633,.T.);
#631 = VERTEX_POINT('',#632);
#632 = CARTESIAN_POINT('',(-27.38867094675,-9.,5.));
#633 = LINE('',#634,#635);
#634 = CARTESIAN_POINT('',(-27.38867094675,-9.,5.));
#635 = VECTOR('',#636,1.);
#636 = DIRECTION('',(0.,1.,0.));
#637 = ORIENTED_EDGE('',*,*,#638,.F.);
#638 = EDGE_CURVE('',#639,#631,#641,.T.);
#639 = VERTEX_POINT('',#640);
#640 = CARTESIAN_POINT('',(22.611329053243,-9.,5.));
#641 = LINE('',#642,#643);
#642 = CARTESIAN_POINT('',(-0.95061584868,-9.,5.));
#643 = VECTOR('',#644,1.);
#644 = DIRECTION('',(-1.,0.,0.));
#645 = ORIENTED_EDGE('',*,*,#646,.F.);
#646 = EDGE_CURVE('',#647,#639,#649,.T.);
#647 = VERTEX_POINT('',#648);
#648 = CARTESIAN_POINT('',(22.611329053243,-5.625,5.));
#649 = LINE('',#650,#651);
#650 = CARTESIAN_POINT('',(22.611329053243,-5.625,5.));
#651 = VECTOR('',#652,1.);
#652 = DIRECTION('',(0.,-1.,0.));
#653 = ORIENTED_EDGE('',*,*,#654,.F.);
#654 = EDGE_CURVE('',#655,#647,#657,.T.);
#655 = VERTEX_POINT('',#656);
#656 = CARTESIAN_POINT('',(22.201862539695,-4.5,5.));
#657 = LINE('',#658,#659);
#658 = CARTESIAN_POINT('',(22.201862539695,-4.5,5.));
#659 = VECTOR('',#660,1.);
#660 = DIRECTION('',(0.342020143325,-0.939692620786,0.));
#661 = ORIENTED_EDGE('',*,*,#662,.F.);
#662 = EDGE_CURVE('',#663,#655,#665,.T.);
#663 = VERTEX_POINT('',#664);
#664 = CARTESIAN_POINT('',(21.780434610563,-4.5,5.));
#665 = LINE('',#666,#667);
#666 = CARTESIAN_POINT('',(21.780434610563,-4.5,5.));
#667 = VECTOR('',#668,1.);
#668 = DIRECTION('',(1.,0.,0.));
#669 = ORIENTED_EDGE('',*,*,#670,.F.);
#670 = EDGE_CURVE('',#671,#663,#673,.T.);
#671 = VERTEX_POINT('',#672);
#672 = CARTESIAN_POINT('',(21.370968097014,-5.625,5.));
#673 = LINE('',#674,#675);
#674 = CARTESIAN_POINT('',(21.370968097014,-5.625,5.));
#675 = VECTOR('',#676,1.);
#676 = DIRECTION('',(0.342020143325,0.939692620786,0.));
#677 = ORIENTED_EDGE('',*,*,#678,.T.);
#678 = EDGE_CURVE('',#671,#679,#681,.T.);
#679 = VERTEX_POINT('',#680);
#680 = CARTESIAN_POINT('',(21.040532726448,-5.625,5.));
#681 = LINE('',#682,#683);
#682 = CARTESIAN_POINT('',(21.370968097014,-5.625,5.));
#683 = VECTOR('',#684,1.);
#684 = DIRECTION('',(-1.,0.,0.));
#685 = ORIENTED_EDGE('',*,*,#686,.F.);
#686 = EDGE_CURVE('',#687,#679,#689,.T.);
#687 = VERTEX_POINT('',#688);
#688 = CARTESIAN_POINT('',(20.6310662129,-4.5,5.));
#689 = LINE('',#690,#691);
#690 = CARTESIAN_POINT('',(20.6310662129,-4.5,5.));
#691 = VECTOR('',#692,1.);
#692 = DIRECTION('',(0.342020143325,-0.939692620786,0.));
#693 = ORIENTED_EDGE('',*,*,#694,.F.);
#694 = EDGE_CURVE('',#695,#687,#697,.T.);
#695 = VERTEX_POINT('',#696);
#696 = CARTESIAN_POINT('',(20.209638283768,-4.5,5.));
#697 = LINE('',#698,#699);
#698 = CARTESIAN_POINT('',(20.209638283768,-4.5,5.));
#699 = VECTOR('',#700,1.);
#700 = DIRECTION('',(1.,0.,0.));
#701 = ORIENTED_EDGE('',*,*,#702,.F.);
#702 = EDGE_CURVE('',#703,#695,#705,.T.);
#703 = VERTEX_POINT('',#704);
#704 = CARTESIAN_POINT('',(19.800171770219,-5.625,5.));
#705 = LINE('',#706,#707);
#706 = CARTESIAN_POINT('',(19.800171770219,-5.625,5.));
#707 = VECTOR('',#708,1.);
#708 = DIRECTION('',(0.342020143325,0.939692620786,0.));
#709 = ORIENTED_EDGE('',*,*,#710,.T.);
#710 = EDGE_CURVE('',#703,#711,#713,.T.);
#711 = VERTEX_POINT('',#712);
#712 = CARTESIAN_POINT('',(19.469736399653,-5.625,5.));
#713 = LINE('',#714,#715);
#714 = CARTESIAN_POINT('',(19.800171770219,-5.625,5.));
#715 = VECTOR('',#716,1.);
#716 = DIRECTION('',(-1.,0.,0.));
#717 = ORIENTED_EDGE('',*,*,#718,.F.);
#718 = EDGE_CURVE('',#719,#711,#721,.T.);
#719 = VERTEX_POINT('',#720);
#720 = CARTESIAN_POINT('',(19.060269886105,-4.5,5.));
#721 = LINE('',#722,#723);
#722 = CARTESIAN_POINT('',(19.060269886105,-4.5,5.));
#723 = VECTOR('',#724,1.);
#724 = DIRECTION('',(0.342020143325,-0.939692620786,0.));
#725 = ORIENTED_EDGE('',*,*,#726,.F.);
#726 = EDGE_CURVE('',#727,#719,#729,.T.);
#727 = VERTEX_POINT('',#728);
#728 = CARTESIAN_POINT('',(18.638841956973,-4.5,5.));
#729 = LINE('',#730,#731);
#730 = CARTESIAN_POINT('',(18.638841956973,-4.5,5.));
#731 = VECTOR('',#732,1.);
#732 = DIRECTION('',(1.,0.,0.));
#733 = ORIENTED_EDGE('',*,*,#734,.F.);
#734 = EDGE_CURVE('',#735,#727,#737,.T.);
#735 = VERTEX_POINT('',#736);
#736 = CARTESIAN_POINT('',(18.229375443424,-5.625,5.));
#737 = LINE('',#738,#739);
#738 = CARTESIAN_POINT('',(18.229375443424,-5.625,5.));
#739 = VECTOR('',#740,1.);
#740 = DIRECTION('',(0.342020143325,0.939692620786,0.));
#741 = ORIENTED_EDGE('',*,*,#742,.T.);
#742 = EDGE_CURVE('',#735,#743,#745,.T.);
#743 = VERTEX_POINT('',#744);
#744 = CARTESIAN_POINT('',(17.898940072858,-5.625,5.));
#745 = LINE('',#746,#747);
#746 = CARTESIAN_POINT('',(18.229375443424,-5.625,5.));
#747 = VECTOR('',#748,1.);
#748 = DIRECTION('',(-1.,0.,0.));
#749 = ORIENTED_EDGE('',*,*,#750,.F.);
#750 = EDGE_CURVE('',#751,#743,#753,.T.);
#751 = VERTEX_POINT('',#752);
#752 = CARTESIAN_POINT('',(17.48947355931,-4.5,5.));
#753 = LINE('',#754,#755);
#754 = CARTESIAN_POINT('',(17.48947355931,-4.5,5.));
#755 = VECTOR('',#756,1.);
#756 = DIRECTION('',(0.342020143325,-0.939692620786,0.));
#757 = ORIENTED_EDGE('',*,*,#758,.F.);
#758 = EDGE_CURVE('',#759,#751,#761,.T.);
#759 = VERTEX_POINT('',#760);
#760 = CARTESIAN_POINT('',(17.068045630178,-4.5,5.));
#761 = LINE('',#762,#763);
#762 = CARTESIAN_POINT('',(17.068045630178,-4.5,5.));
#763 = VECTOR('',#764,1.);
#764 = DIRECTION('',(1.,0.,0.));
#765 = ORIENTED_EDGE('',*,*,#766,.F.);
#766 = EDGE_CURVE('',#767,#759,#769,.T.);
#767 = VERTEX_POINT('',#768);
#768 = CARTESIAN_POINT('',(16.658579116629,-5.625,5.));
#769 = LINE('',#770,#771);
#770 = CARTESIAN_POINT('',(16.658579116629,-5.625,5.));
#771 = VECTOR('',#772,1.);
#772 = DIRECTION('',(0.342020143325,0.939692620786,0.));
#773 = ORIENTED_EDGE('',*,*,#774,.T.);
#774 = EDGE_CURVE('',#767,#775,#777,.T.);
#775 = VERTEX_POINT('',#776);
#776 = CARTESIAN_POINT('',(16.328143746063,-5.625,5.));
#777 = LINE('',#778,#779);
#778 = CARTESIAN_POINT('',(16.658579116629,-5.625,5.));
#779 = VECTOR('',#780,1.);
#780 = DIRECTION('',(-1.,0.,0.));
#781 = ORIENTED_EDGE('',*,*,#782,.F.);
#782 = EDGE_CURVE('',#783,#775,#785,.T.);
#783 = VERTEX_POINT('',#784);
#784 = CARTESIAN_POINT('',(15.918677232515,-4.5,5.));
#785 = LINE('',#786,#787);
#786 = CARTESIAN_POINT('',(15.918677232515,-4.5,5.));
#787 = VECTOR('',#788,1.);
#788 = DIRECTION('',(0.342020143325,-0.939692620786,0.));
#789 = ORIENTED_EDGE('',*,*,#790,.F.);
#790 = EDGE_CURVE('',#791,#783,#793,.T.);
#791 = VERTEX_POINT('',#792);
#792 = CARTESIAN_POINT('',(15.497249303383,-4.5,5.));
#793 = LINE('',#794,#795);
#794 = CARTESIAN_POINT('',(15.497249303383,-4.5,5.));
#795 = VECTOR('',#796,1.);
#796 = DIRECTION('',(1.,0.,0.));
#797 = ORIENTED_EDGE('',*,*,#798,.F.);
#798 = EDGE_CURVE('',#799,#791,#801,.T.);
#799 = VERTEX_POINT('',#800);
#800 = CARTESIAN_POINT('',(15.087782789835,-5.625,5.));
#801 = LINE('',#802,#803);
#802 = CARTESIAN_POINT('',(15.087782789835,-5.625,5.));
#803 = VECTOR('',#804,1.);
#804 = DIRECTION('',(0.342020143325,0.939692620786,0.));
#805 = ORIENTED_EDGE('',*,*,#806,.T.);
#806 = EDGE_CURVE('',#799,#807,#809,.T.);
#807 = VERTEX_POINT('',#808);
#808 = CARTESIAN_POINT('',(14.757347419268,-5.625,5.));
#809 = LINE('',#810,#811);
#810 = CARTESIAN_POINT('',(15.087782789835,-5.625,5.));
#811 = VECTOR('',#812,1.);
#812 = DIRECTION('',(-1.,0.,0.));
#813 = ORIENTED_EDGE('',*,*,#814,.F.);
#814 = EDGE_CURVE('',#815,#807,#817,.T.);
#815 = VERTEX_POINT('',#816);
#816 = CARTESIAN_POINT('',(14.34788090572,-4.5,5.));
#817 = LINE('',#818,#819);
#818 = CARTESIAN_POINT('',(14.34788090572,-4.5,5.));
#819 = VECTOR('',#820,1.);
#820 = DIRECTION('',(0.342020143325,-0.939692620786,0.));
#821 = ORIENTED_EDGE('',*,*,#822,.F.);
#822 = EDGE_CURVE('',#823,#815,#825,.T.);
#823 = VERTEX_POINT('',#824);
#824 = CARTESIAN_POINT('',(13.926452976588,-4.5,5.));
#825 = LINE('',#826,#827);
#826 = CARTESIAN_POINT('',(13.926452976588,-4.5,5.));
#827 = VECTOR('',#828,1.);
#828 = DIRECTION('',(1.,0.,0.));
#829 = ORIENTED_EDGE('',*,*,#830,.F.);
#830 = EDGE_CURVE('',#831,#823,#833,.T.);
#831 = VERTEX_POINT('',#832);
#832 = CARTESIAN_POINT('',(13.51698646304,-5.625,5.));
#833 = LINE('',#834,#835);
#834 = CARTESIAN_POINT('',(13.51698646304,-5.625,5.));
#835 = VECTOR('',#836,1.);
#836 = DIRECTION('',(0.342020143325,0.939692620786,0.));
#837 = ORIENTED_EDGE('',*,*,#838,.T.);
#838 = EDGE_CURVE('',#831,#839,#841,.T.);
#839 = VERTEX_POINT('',#840);
#840 = CARTESIAN_POINT('',(13.186551092474,-5.625,5.));
#841 = LINE('',#842,#843);
#842 = CARTESIAN_POINT('',(13.51698646304,-5.625,5.));
#843 = VECTOR('',#844,1.);
#844 = DIRECTION('',(-1.,0.,0.));
#845 = ORIENTED_EDGE('',*,*,#846,.F.);
#846 = EDGE_CURVE('',#847,#839,#849,.T.);
#847 = VERTEX_POINT('',#848);
#848 = CARTESIAN_POINT('',(12.777084578925,-4.5,5.));
#849 = LINE('',#850,#851);
#850 = CARTESIAN_POINT('',(12.777084578925,-4.5,5.));
#851 = VECTOR('',#852,1.);
#852 = DIRECTION('',(0.342020143325,-0.939692620786,0.));
#853 = ORIENTED_EDGE('',*,*,#854,.F.);
#854 = EDGE_CURVE('',#855,#847,#857,.T.);
#855 = VERTEX_POINT('',#856);
#856 = CARTESIAN_POINT('',(12.355656649793,-4.5,5.));
#857 = LINE('',#858,#859);
#858 = CARTESIAN_POINT('',(12.355656649793,-4.5,5.));
#859 = VECTOR('',#860,1.);
#860 = DIRECTION('',(1.,0.,0.));
#861 = ORIENTED_EDGE('',*,*,#862,.F.);
#862 = EDGE_CURVE('',#863,#855,#865,.T.);
#863 = VERTEX_POINT('',#864);
#864 = CARTESIAN_POINT('',(11.946190136245,-5.625,5.));
#865 = LINE('',#866,#867);
#866 = CARTESIAN_POINT('',(11.946190136245,-5.625,5.));
#867 = VECTOR('',#868,1.);
#868 = DIRECTION('',(0.342020143325,0.939692620786,0.));
#869 = ORIENTED_EDGE('',*,*,#870,.T.);
#870 = EDGE_CURVE('',#863,#871,#873,.T.);
#871 = VERTEX_POINT('',#872);
#872 = CARTESIAN_POINT('',(11.615754765679,-5.625,5.));
#873 = LINE('',#874,#875);
#874 = CARTESIAN_POINT('',(11.946190136245,-5.625,5.));
#875 = VECTOR('',#876,1.);
#876 = DIRECTION('',(-1.,0.,0.));
#877 = ORIENTED_EDGE('',*,*,#878,.F.);
#878 = EDGE_CURVE('',#879,#871,#881,.T.);
#879 = VERTEX_POINT('',#880);
#880 = CARTESIAN_POINT('',(11.20628825213,-4.5,5.));
#881 = LINE('',#882,#883);
#882 = CARTESIAN_POINT('',(11.20628825213,-4.5,5.));
#883 = VECTOR('',#884,1.);
#884 = DIRECTION('',(0.342020143325,-0.939692620786,0.));
#885 = ORIENTED_EDGE('',*,*,#886,.F.);
#886 = EDGE_CURVE('',#887,#879,#889,.T.);
#887 = VERTEX_POINT('',#888);
#888 = CARTESIAN_POINT('',(10.784860322998,-4.5,5.));
#889 = LINE('',#890,#891);
#890 = CARTESIAN_POINT('',(10.784860322998,-4.5,5.));
#891 = VECTOR('',#892,1.);
#892 = DIRECTION('',(1.,0.,0.));
#893 = ORIENTED_EDGE('',*,*,#894,.F.);
#894 = EDGE_CURVE('',#895,#887,#897,.T.);
#895 = VERTEX_POINT('',#896);
#896 = CARTESIAN_POINT('',(10.37539380945,-5.625,5.));
#897 = LINE('',#898,#899);
#898 = CARTESIAN_POINT('',(10.37539380945,-5.625,5.));
#899 = VECTOR('',#900,1.);
#900 = DIRECTION('',(0.342020143325,0.939692620786,0.));
#901 = ORIENTED_EDGE('',*,*,#902,.T.);
#902 = EDGE_CURVE('',#895,#903,#905,.T.);
#903 = VERTEX_POINT('',#904);
#904 = CARTESIAN_POINT('',(10.044958438884,-5.625,5.));
#905 = LINE('',#906,#907);
#906 = CARTESIAN_POINT('',(10.37539380945,-5.625,5.));
#907 = VECTOR('',#908,1.);
#908 = DIRECTION('',(-1.,0.,0.));
#909 = ORIENTED_EDGE('',*,*,#910,.F.);
#910 = EDGE_CURVE('',#911,#903,#913,.T.);
#911 = VERTEX_POINT('',#912);
#912 = CARTESIAN_POINT('',(9.635491925335,-4.5,5.));
#913 = LINE('',#914,#915);
#914 = CARTESIAN_POINT('',(9.635491925335,-4.5,5.));
#915 = VECTOR('',#916,1.);
#916 = DIRECTION('',(0.342020143325,-0.939692620786,0.));
#917 = ORIENTED_EDGE('',*,*,#918,.F.);
#918 = EDGE_CURVE('',#919,#911,#921,.T.);
#919 = VERTEX_POINT('',#920);
#920 = CARTESIAN_POINT('',(9.214063996203,-4.5,5.));
#921 = LINE('',#922,#923);
#922 = CARTESIAN_POINT('',(9.214063996203,-4.5,5.));
#923 = VECTOR('',#924,1.);
#924 = DIRECTION('',(1.,0.,0.));
#925 = ORIENTED_EDGE('',*,*,#926,.F.);
#926 = EDGE_CURVE('',#927,#919,#929,.T.);
#927 = VERTEX_POINT('',#928);
#928 = CARTESIAN_POINT('',(8.804597482655,-5.625,5.));
#929 = LINE('',#930,#931);
#930 = CARTESIAN_POINT('',(8.804597482655,-5.625,5.));
#931 = VECTOR('',#932,1.);
#932 = DIRECTION('',(0.342020143325,0.939692620786,0.));
#933 = ORIENTED_EDGE('',*,*,#934,.T.);
#934 = EDGE_CURVE('',#927,#935,#937,.T.);
#935 = VERTEX_POINT('',#936);
#936 = CARTESIAN_POINT('',(8.474162112089,-5.625,5.));
#937 = LINE('',#938,#939);
#938 = CARTESIAN_POINT('',(8.804597482655,-5.625,5.));
#939 = VECTOR('',#940,1.);
#940 = DIRECTION('',(-1.,0.,0.));
#941 = ORIENTED_EDGE('',*,*,#942,.F.);
#942 = EDGE_CURVE('',#943,#935,#945,.T.);
#943 = VERTEX_POINT('',#944);
#944 = CARTESIAN_POINT('',(8.06469559854,-4.5,5.));
#945 = LINE('',#946,#947);
#946 = CARTESIAN_POINT('',(8.06469559854,-4.5,5.));
#947 = VECTOR('',#948,1.);
#948 = DIRECTION('',(0.342020143325,-0.939692620786,0.));
#949 = ORIENTED_EDGE('',*,*,#950,.F.);
#950 = EDGE_CURVE('',#951,#943,#953,.T.);
#951 = VERTEX_POINT('',#952);
#952 = CARTESIAN_POINT('',(7.643267669408,-4.5,5.));
#953 = LINE('',#954,#955);
#954 = CARTESIAN_POINT('',(7.643267669408,-4.5,5.));
#955 = VECTOR('',#956,1.);
#956 = DIRECTION('',(1.,0.,0.));
#957 = ORIENTED_EDGE('',*,*,#958,.F.);
#958 = EDGE_CURVE('',#959,#951,#961,.T.);
#959 = VERTEX_POINT('',#960);
#960 = CARTESIAN_POINT('',(7.23380115586,-5.625,5.));
#961 = LINE('',#962,#963);
#962 = CARTESIAN_POINT('',(7.23380115586,-5.625,5.));
#963 = VECTOR('',#964,1.);
#964 = DIRECTION('',(0.342020143325,0.939692620786,0.));
#965 = ORIENTED_EDGE('',*,*,#966,.T.);
#966 = EDGE_CURVE('',#959,#967,#969,.T.);
#967 = VERTEX_POINT('',#968);
#968 = CARTESIAN_POINT('',(6.903365785294,-5.625,5.));
#969 = LINE('',#970,#971);
#970 = CARTESIAN_POINT('',(7.23380115586,-5.625,5.));
#971 = VECTOR('',#972,1.);
#972 = DIRECTION('',(-1.,0.,0.));
#973 = ORIENTED_EDGE('',*,*,#974,.F.);
#974 = EDGE_CURVE('',#975,#967,#977,.T.);
#975 = VERTEX_POINT('',#976);
#976 = CARTESIAN_POINT('',(6.493899271746,-4.5,5.));
#977 = LINE('',#978,#979);
#978 = CARTESIAN_POINT('',(6.493899271746,-4.5,5.));
#979 = VECTOR('',#980,1.);
#980 = DIRECTION('',(0.342020143325,-0.939692620786,0.));
#981 = ORIENTED_EDGE('',*,*,#982,.F.);
#982 = EDGE_CURVE('',#983,#975,#985,.T.);
#983 = VERTEX_POINT('',#984);
#984 = CARTESIAN_POINT('',(6.072471342614,-4.5,5.));
#985 = LINE('',#986,#987);
#986 = CARTESIAN_POINT('',(6.072471342614,-4.5,5.));
#987 = VECTOR('',#988,1.);
#988 = DIRECTION('',(1.,0.,0.));
#989 = ORIENTED_EDGE('',*,*,#990,.F.);
#990 = EDGE_CURVE('',#991,#983,#993,.T.);
#991 = VERTEX_POINT('',#992);
#992 = CARTESIAN_POINT('',(5.663004829065,-5.625,5.));
#993 = LINE('',#994,#995);
#994 = CARTESIAN_POINT('',(5.663004829065,-5.625,5.));
#995 = VECTOR('',#996,1.);
#996 = DIRECTION('',(0.342020143325,0.939692620786,0.));
#997 = ORIENTED_EDGE('',*,*,#998,.T.);
#998 = EDGE_CURVE('',#991,#999,#1001,.T.);
#999 = VERTEX_POINT('',#1000);
#1000 = CARTESIAN_POINT('',(5.332569458499,-5.625,5.));
#1001 = LINE('',#1002,#1003);
#1002 = CARTESIAN_POINT('',(5.663004829065,-5.625,5.));
#1003 = VECTOR('',#1004,1.);
#1004 = DIRECTION('',(-1.,0.,0.));
#1005 = ORIENTED_EDGE('',*,*,#1006,.F.);
#1006 = EDGE_CURVE('',#1007,#999,#1009,.T.);
#1007 = VERTEX_POINT('',#1008);
#1008 = CARTESIAN_POINT('',(4.923102944951,-4.5,5.));
#1009 = LINE('',#1010,#1011);
#1010 = CARTESIAN_POINT('',(4.923102944951,-4.5,5.));
#1011 = VECTOR('',#1012,1.);
#1012 = DIRECTION('',(0.342020143325,-0.939692620786,0.));
#1013 = ORIENTED_EDGE('',*,*,#1014,.F.);
#1014 = EDGE_CURVE('',#1015,#1007,#1017,.T.);
#1015 = VERTEX_POINT('',#1016);
#1016 = CARTESIAN_POINT('',(4.501675015819,-4.5,5.));
#1017 = LINE('',#1018,#1019);
#1018 = CARTESIAN_POINT('',(4.501675015819,-4.5,5.));
#1019 = VECTOR('',#1020,1.);
#1020 = DIRECTION('',(1.,0.,0.));
#1021 = ORIENTED_EDGE('',*,*,#1022,.F.);
#1022 = EDGE_CURVE('',#1023,#1015,#1025,.T.);
#1023 = VERTEX_POINT('',#1024);
#1024 = CARTESIAN_POINT('',(4.09220850227,-5.625,5.));
#1025 = LINE('',#1026,#1027);
#1026 = CARTESIAN_POINT('',(4.09220850227,-5.625,5.));
#1027 = VECTOR('',#1028,1.);
#1028 = DIRECTION('',(0.342020143325,0.939692620786,0.));
#1029 = ORIENTED_EDGE('',*,*,#1030,.T.);
#1030 = EDGE_CURVE('',#1023,#1031,#1033,.T.);
#1031 = VERTEX_POINT('',#1032);
#1032 = CARTESIAN_POINT('',(3.761773131704,-5.625,5.));
#1033 = LINE('',#1034,#1035);
#1034 = CARTESIAN_POINT('',(4.09220850227,-5.625,5.));
#1035 = VECTOR('',#1036,1.);
#1036 = DIRECTION('',(-1.,0.,0.));
#1037 = ORIENTED_EDGE('',*,*,#1038,.F.);
#1038 = EDGE_CURVE('',#1039,#1031,#1041,.T.);
#1039 = VERTEX_POINT('',#1040);
#1040 = CARTESIAN_POINT('',(3.352306618156,-4.5,5.));
#1041 = LINE('',#1042,#1043);
#1042 = CARTESIAN_POINT('',(3.352306618156,-4.5,5.));
#1043 = VECTOR('',#1044,1.);
#1044 = DIRECTION('',(0.342020143325,-0.939692620786,0.));
#1045 = ORIENTED_EDGE('',*,*,#1046,.F.);
#1046 = EDGE_CURVE('',#1047,#1039,#1049,.T.);
#1047 = VERTEX_POINT('',#1048);
#1048 = CARTESIAN_POINT('',(2.930878689024,-4.5,5.));
#1049 = LINE('',#1050,#1051);
#1050 = CARTESIAN_POINT('',(2.930878689024,-4.5,5.));
#1051 = VECTOR('',#1052,1.);
#1052 = DIRECTION('',(1.,0.,0.));
#1053 = ORIENTED_EDGE('',*,*,#1054,.F.);
#1054 = EDGE_CURVE('',#1055,#1047,#1057,.T.);
#1055 = VERTEX_POINT('',#1056);
#1056 = CARTESIAN_POINT('',(2.521412175475,-5.625,5.));
#1057 = LINE('',#1058,#1059);
#1058 = CARTESIAN_POINT('',(2.521412175475,-5.625,5.));
#1059 = VECTOR('',#1060,1.);
#1060 = DIRECTION('',(0.342020143325,0.939692620786,0.));
#1061 = ORIENTED_EDGE('',*,*,#1062,.T.);
#1062 = EDGE_CURVE('',#1055,#1063,#1065,.T.);
#1063 = VERTEX_POINT('',#1064);
#1064 = CARTESIAN_POINT('',(2.190976804909,-5.625,5.));
#1065 = LINE('',#1066,#1067);
#1066 = CARTESIAN_POINT('',(2.521412175475,-5.625,5.));
#1067 = VECTOR('',#1068,1.);
#1068 = DIRECTION('',(-1.,0.,0.));
#1069 = ORIENTED_EDGE('',*,*,#1070,.F.);
#1070 = EDGE_CURVE('',#1071,#1063,#1073,.T.);
#1071 = VERTEX_POINT('',#1072);
#1072 = CARTESIAN_POINT('',(1.781510291361,-4.5,5.));
#1073 = LINE('',#1074,#1075);
#1074 = CARTESIAN_POINT('',(1.781510291361,-4.5,5.));
#1075 = VECTOR('',#1076,1.);
#1076 = DIRECTION('',(0.342020143325,-0.939692620786,0.));
#1077 = ORIENTED_EDGE('',*,*,#1078,.F.);
#1078 = EDGE_CURVE('',#1079,#1071,#1081,.T.);
#1079 = VERTEX_POINT('',#1080);
#1080 = CARTESIAN_POINT('',(1.360082362229,-4.5,5.));
#1081 = LINE('',#1082,#1083);
#1082 = CARTESIAN_POINT('',(1.360082362229,-4.5,5.));
#1083 = VECTOR('',#1084,1.);
#1084 = DIRECTION('',(1.,0.,0.));
#1085 = ORIENTED_EDGE('',*,*,#1086,.F.);
#1086 = EDGE_CURVE('',#1087,#1079,#1089,.T.);
#1087 = VERTEX_POINT('',#1088);
#1088 = CARTESIAN_POINT('',(0.95061584868,-5.625,5.));
#1089 = LINE('',#1090,#1091);
#1090 = CARTESIAN_POINT('',(0.95061584868,-5.625,5.));
#1091 = VECTOR('',#1092,1.);
#1092 = DIRECTION('',(0.342020143325,0.939692620786,0.));
#1093 = ORIENTED_EDGE('',*,*,#1094,.T.);
#1094 = EDGE_CURVE('',#1087,#1095,#1097,.T.);
#1095 = VERTEX_POINT('',#1096);
#1096 = CARTESIAN_POINT('',(0.620180478114,-5.625,5.));
#1097 = LINE('',#1098,#1099);
#1098 = CARTESIAN_POINT('',(0.95061584868,-5.625,5.));
#1099 = VECTOR('',#1100,1.);
#1100 = DIRECTION('',(-1.,0.,0.));
#1101 = ORIENTED_EDGE('',*,*,#1102,.F.);
#1102 = EDGE_CURVE('',#94,#1095,#1103,.T.);
#1103 = LINE('',#1104,#1105);
#1104 = CARTESIAN_POINT('',(0.210713964566,-4.5,5.));
#1105 = VECTOR('',#1106,1.);
#1106 = DIRECTION('',(0.342020143325,-0.939692620786,0.));
#1107 = ORIENTED_EDGE('',*,*,#93,.F.);
#1108 = PLANE('',#1109);
#1109 = AXIS2_PLACEMENT_3D('',#1110,#1111,#1112);
#1110 = CARTESIAN_POINT('',(3.725081969912E-02,-6.797142424737,5.));
#1111 = DIRECTION('',(0.,0.,1.));
#1112 = DIRECTION('',(1.,0.,0.));
#1113 = ADVANCED_FACE('',(#1114,#1125,#1136),#1147,.T.);
#1114 = FACE_BOUND('',#1115,.T.);
#1115 = EDGE_LOOP('',(#1116,#1117,#1118,#1124));
#1116 = ORIENTED_EDGE('',*,*,#69,.F.);
#1117 = ORIENTED_EDGE('',*,*,#606,.T.);
#1118 = ORIENTED_EDGE('',*,*,#1119,.T.);
#1119 = EDGE_CURVE('',#599,#623,#1120,.T.);
#1120 = LINE('',#1121,#1122);
#1121 = CARTESIAN_POINT('',(-27.38867094675,-6.,0.));
#1122 = VECTOR('',#1123,1.);
#1123 = DIRECTION('',(0.,0.,1.));
#1124 = ORIENTED_EDGE('',*,*,#622,.F.);
#1125 = FACE_BOUND('',#1126,.T.);
#1126 = EDGE_LOOP('',(#1127));
#1127 = ORIENTED_EDGE('',*,*,#1128,.F.);
#1128 = EDGE_CURVE('',#1129,#1129,#1131,.T.);
#1129 = VERTEX_POINT('',#1130);
#1130 = CARTESIAN_POINT('',(-25.98867094675,-6.,2.5));
#1131 = CIRCLE('',#1132,1.1);
#1132 = AXIS2_PLACEMENT_3D('',#1133,#1134,#1135);
#1133 = CARTESIAN_POINT('',(-24.88867094675,-6.,2.5));
#1134 = DIRECTION('',(0.,1.,-2.2E-16));
#1135 = DIRECTION('',(-1.,0.,0.));
#1136 = FACE_BOUND('',#1137,.T.);
#1137 = EDGE_LOOP('',(#1138));
#1138 = ORIENTED_EDGE('',*,*,#1139,.F.);
#1139 = EDGE_CURVE('',#1140,#1140,#1142,.T.);
#1140 = VERTEX_POINT('',#1141);
#1141 = CARTESIAN_POINT('',(-20.98867094675,-6.,2.5));
#1142 = CIRCLE('',#1143,1.1);
#1143 = AXIS2_PLACEMENT_3D('',#1144,#1145,#1146);
#1144 = CARTESIAN_POINT('',(-19.88867094675,-6.,2.5));
#1145 = DIRECTION('',(0.,1.,-2.2E-16));
#1146 = DIRECTION('',(-1.,0.,0.));
#1147 = PLANE('',#1148);
#1148 = AXIS2_PLACEMENT_3D('',#1149,#1150,#1151);
#1149 = CARTESIAN_POINT('',(-14.00442571243,-6.,2.5));
#1150 = DIRECTION('',(0.,1.,0.));
#1151 = DIRECTION('',(0.,0.,1.));
#1152 = ADVANCED_FACE('',(#1153),#1164,.T.);
#1153 = FACE_BOUND('',#1154,.T.);
#1154 = EDGE_LOOP('',(#1155,#1156,#1157,#1163));
#1155 = ORIENTED_EDGE('',*,*,#101,.T.);
#1156 = ORIENTED_EDGE('',*,*,#1102,.T.);
#1157 = ORIENTED_EDGE('',*,*,#1158,.F.);
#1158 = EDGE_CURVE('',#127,#1095,#1159,.T.);
#1159 = LINE('',#1160,#1161);
#1160 = CARTESIAN_POINT('',(0.620180478114,-5.625,0.));
#1161 = VECTOR('',#1162,1.);
#1162 = DIRECTION('',(0.,0.,1.));
#1163 = ORIENTED_EDGE('',*,*,#126,.F.);
#1164 = PLANE('',#1165);
#1165 = AXIS2_PLACEMENT_3D('',#1166,#1167,#1168);
#1166 = CARTESIAN_POINT('',(0.210713964566,-4.5,0.));
#1167 = DIRECTION('',(0.939692620786,0.342020143325,0.));
#1168 = DIRECTION('',(0.342020143325,-0.939692620786,0.));
#1169 = ADVANCED_FACE('',(#1170),#1181,.T.);
#1170 = FACE_BOUND('',#1171,.T.);
#1171 = EDGE_LOOP('',(#1172,#1173,#1179,#1180));
#1172 = ORIENTED_EDGE('',*,*,#598,.F.);
#1173 = ORIENTED_EDGE('',*,*,#1174,.T.);
#1174 = EDGE_CURVE('',#591,#631,#1175,.T.);
#1175 = LINE('',#1176,#1177);
#1176 = CARTESIAN_POINT('',(-27.38867094675,-9.,0.));
#1177 = VECTOR('',#1178,1.);
#1178 = DIRECTION('',(0.,0.,1.));
#1179 = ORIENTED_EDGE('',*,*,#630,.T.);
#1180 = ORIENTED_EDGE('',*,*,#1119,.F.);
#1181 = PLANE('',#1182);
#1182 = AXIS2_PLACEMENT_3D('',#1183,#1184,#1185);
#1183 = CARTESIAN_POINT('',(-27.38867094675,-9.,0.));
#1184 = DIRECTION('',(-1.,0.,0.));
#1185 = DIRECTION('',(0.,1.,0.));
#1186 = ADVANCED_FACE('',(#1187,#1198,#1209),#1220,.T.);
#1187 = FACE_BOUND('',#1188,.T.);
#1188 = EDGE_LOOP('',(#1189,#1190,#1196,#1197));
#1189 = ORIENTED_EDGE('',*,*,#590,.F.);
#1190 = ORIENTED_EDGE('',*,*,#1191,.T.);
#1191 = EDGE_CURVE('',#583,#639,#1192,.T.);
#1192 = LINE('',#1193,#1194);
#1193 = CARTESIAN_POINT('',(22.611329053243,-9.,0.));
#1194 = VECTOR('',#1195,1.);
#1195 = DIRECTION('',(0.,0.,1.));
#1196 = ORIENTED_EDGE('',*,*,#638,.T.);
#1197 = ORIENTED_EDGE('',*,*,#1174,.F.);
#1198 = FACE_BOUND('',#1199,.T.);
#1199 = EDGE_LOOP('',(#1200));
#1200 = ORIENTED_EDGE('',*,*,#1201,.F.);
#1201 = EDGE_CURVE('',#1202,#1202,#1204,.T.);
#1202 = VERTEX_POINT('',#1203);
#1203 = CARTESIAN_POINT('',(-26.88867094675,-9.,2.5));
#1204 = CIRCLE('',#1205,2.);
#1205 = AXIS2_PLACEMENT_3D('',#1206,#1207,#1208);
#1206 = CARTESIAN_POINT('',(-24.88867094675,-9.,2.5));
#1207 = DIRECTION('',(0.,-1.,2.2E-16));
#1208 = DIRECTION('',(-1.,0.,0.));
#1209 = FACE_BOUND('',#1210,.T.);
#1210 = EDGE_LOOP('',(#1211));
#1211 = ORIENTED_EDGE('',*,*,#1212,.F.);
#1212 = EDGE_CURVE('',#1213,#1213,#1215,.T.);
#1213 = VERTEX_POINT('',#1214);
#1214 = CARTESIAN_POINT('',(-21.88867094675,-9.,2.5));
#1215 = CIRCLE('',#1216,2.);
#1216 = AXIS2_PLACEMENT_3D('',#1217,#1218,#1219);
#1217 = CARTESIAN_POINT('',(-19.88867094675,-9.,2.5));
#1218 = DIRECTION('',(0.,-1.,2.2E-16));
#1219 = DIRECTION('',(-1.,0.,0.));
#1220 = PLANE('',#1221);
#1221 = AXIS2_PLACEMENT_3D('',#1222,#1223,#1224);
#1222 = CARTESIAN_POINT('',(-2.388670946757,-9.,2.5));
#1223 = DIRECTION('',(-0.,-1.,-0.));
#1224 = DIRECTION('',(0.,0.,-1.));
#1225 = ADVANCED_FACE('',(#1226),#1237,.T.);
#1226 = FACE_BOUND('',#1227,.T.);
#1227 = EDGE_LOOP('',(#1228,#1234,#1235,#1236));
#1228 = ORIENTED_EDGE('',*,*,#1229,.T.);
#1229 = EDGE_CURVE('',#575,#647,#1230,.T.);
#1230 = LINE('',#1231,#1232);
#1231 = CARTESIAN_POINT('',(22.611329053243,-5.625,0.));
#1232 = VECTOR('',#1233,1.);
#1233 = DIRECTION('',(0.,0.,1.));
#1234 = ORIENTED_EDGE('',*,*,#646,.T.);
#1235 = ORIENTED_EDGE('',*,*,#1191,.F.);
#1236 = ORIENTED_EDGE('',*,*,#582,.F.);
#1237 = PLANE('',#1238);
#1238 = AXIS2_PLACEMENT_3D('',#1239,#1240,#1241);
#1239 = CARTESIAN_POINT('',(22.611329053243,-5.625,0.));
#1240 = DIRECTION('',(1.,0.,0.));
#1241 = DIRECTION('',(0.,-1.,0.));
#1242 = ADVANCED_FACE('',(#1243),#1254,.T.);
#1243 = FACE_BOUND('',#1244,.T.);
#1244 = EDGE_LOOP('',(#1245,#1251,#1252,#1253));
#1245 = ORIENTED_EDGE('',*,*,#1246,.T.);
#1246 = EDGE_CURVE('',#567,#655,#1247,.T.);
#1247 = LINE('',#1248,#1249);
#1248 = CARTESIAN_POINT('',(22.201862539695,-4.5,0.));
#1249 = VECTOR('',#1250,1.);
#1250 = DIRECTION('',(0.,0.,1.));
#1251 = ORIENTED_EDGE('',*,*,#654,.T.);
#1252 = ORIENTED_EDGE('',*,*,#1229,.F.);
#1253 = ORIENTED_EDGE('',*,*,#574,.F.);
#1254 = PLANE('',#1255);
#1255 = AXIS2_PLACEMENT_3D('',#1256,#1257,#1258);
#1256 = CARTESIAN_POINT('',(22.201862539695,-4.5,0.));
#1257 = DIRECTION('',(0.939692620786,0.342020143325,0.));
#1258 = DIRECTION('',(0.342020143325,-0.939692620786,0.));
#1259 = ADVANCED_FACE('',(#1260),#1271,.T.);
#1260 = FACE_BOUND('',#1261,.T.);
#1261 = EDGE_LOOP('',(#1262,#1268,#1269,#1270));
#1262 = ORIENTED_EDGE('',*,*,#1263,.T.);
#1263 = EDGE_CURVE('',#559,#663,#1264,.T.);
#1264 = LINE('',#1265,#1266);
#1265 = CARTESIAN_POINT('',(21.780434610563,-4.5,0.));
#1266 = VECTOR('',#1267,1.);
#1267 = DIRECTION('',(0.,0.,1.));
#1268 = ORIENTED_EDGE('',*,*,#662,.T.);
#1269 = ORIENTED_EDGE('',*,*,#1246,.F.);
#1270 = ORIENTED_EDGE('',*,*,#566,.F.);
#1271 = PLANE('',#1272);
#1272 = AXIS2_PLACEMENT_3D('',#1273,#1274,#1275);
#1273 = CARTESIAN_POINT('',(21.780434610563,-4.5,0.));
#1274 = DIRECTION('',(0.,1.,0.));
#1275 = DIRECTION('',(1.,0.,0.));
#1276 = ADVANCED_FACE('',(#1277),#1288,.T.);
#1277 = FACE_BOUND('',#1278,.T.);
#1278 = EDGE_LOOP('',(#1279,#1285,#1286,#1287));
#1279 = ORIENTED_EDGE('',*,*,#1280,.T.);
#1280 = EDGE_CURVE('',#551,#671,#1281,.T.);
#1281 = LINE('',#1282,#1283);
#1282 = CARTESIAN_POINT('',(21.370968097014,-5.625,0.));
#1283 = VECTOR('',#1284,1.);
#1284 = DIRECTION('',(0.,0.,1.));
#1285 = ORIENTED_EDGE('',*,*,#670,.T.);
#1286 = ORIENTED_EDGE('',*,*,#1263,.F.);
#1287 = ORIENTED_EDGE('',*,*,#558,.F.);
#1288 = PLANE('',#1289);
#1289 = AXIS2_PLACEMENT_3D('',#1290,#1291,#1292);
#1290 = CARTESIAN_POINT('',(21.370968097014,-5.625,0.));
#1291 = DIRECTION('',(-0.939692620786,0.342020143325,0.));
#1292 = DIRECTION('',(0.342020143325,0.939692620786,0.));
#1293 = ADVANCED_FACE('',(#1294),#1305,.F.);
#1294 = FACE_BOUND('',#1295,.F.);
#1295 = EDGE_LOOP('',(#1296,#1297,#1298,#1304));
#1296 = ORIENTED_EDGE('',*,*,#1280,.T.);
#1297 = ORIENTED_EDGE('',*,*,#678,.T.);
#1298 = ORIENTED_EDGE('',*,*,#1299,.F.);
#1299 = EDGE_CURVE('',#543,#679,#1300,.T.);
#1300 = LINE('',#1301,#1302);
#1301 = CARTESIAN_POINT('',(21.040532726448,-5.625,0.));
#1302 = VECTOR('',#1303,1.);
#1303 = DIRECTION('',(0.,0.,1.));
#1304 = ORIENTED_EDGE('',*,*,#550,.F.);
#1305 = PLANE('',#1306);
#1306 = AXIS2_PLACEMENT_3D('',#1307,#1308,#1309);
#1307 = CARTESIAN_POINT('',(21.370968097014,-5.625,0.));
#1308 = DIRECTION('',(0.,-1.,0.));
#1309 = DIRECTION('',(-1.,0.,0.));
#1310 = ADVANCED_FACE('',(#1311),#1322,.T.);
#1311 = FACE_BOUND('',#1312,.T.);
#1312 = EDGE_LOOP('',(#1313,#1319,#1320,#1321));
#1313 = ORIENTED_EDGE('',*,*,#1314,.T.);
#1314 = EDGE_CURVE('',#535,#687,#1315,.T.);
#1315 = LINE('',#1316,#1317);
#1316 = CARTESIAN_POINT('',(20.6310662129,-4.5,0.));
#1317 = VECTOR('',#1318,1.);
#1318 = DIRECTION('',(0.,0.,1.));
#1319 = ORIENTED_EDGE('',*,*,#686,.T.);
#1320 = ORIENTED_EDGE('',*,*,#1299,.F.);
#1321 = ORIENTED_EDGE('',*,*,#542,.F.);
#1322 = PLANE('',#1323);
#1323 = AXIS2_PLACEMENT_3D('',#1324,#1325,#1326);
#1324 = CARTESIAN_POINT('',(20.6310662129,-4.5,0.));
#1325 = DIRECTION('',(0.939692620786,0.342020143325,0.));
#1326 = DIRECTION('',(0.342020143325,-0.939692620786,0.));
#1327 = ADVANCED_FACE('',(#1328),#1339,.T.);
#1328 = FACE_BOUND('',#1329,.T.);
#1329 = EDGE_LOOP('',(#1330,#1336,#1337,#1338));
#1330 = ORIENTED_EDGE('',*,*,#1331,.T.);
#1331 = EDGE_CURVE('',#527,#695,#1332,.T.);
#1332 = LINE('',#1333,#1334);
#1333 = CARTESIAN_POINT('',(20.209638283768,-4.5,0.));
#1334 = VECTOR('',#1335,1.);
#1335 = DIRECTION('',(0.,0.,1.));
#1336 = ORIENTED_EDGE('',*,*,#694,.T.);
#1337 = ORIENTED_EDGE('',*,*,#1314,.F.);
#1338 = ORIENTED_EDGE('',*,*,#534,.F.);
#1339 = PLANE('',#1340);
#1340 = AXIS2_PLACEMENT_3D('',#1341,#1342,#1343);
#1341 = CARTESIAN_POINT('',(20.209638283768,-4.5,0.));
#1342 = DIRECTION('',(0.,1.,0.));
#1343 = DIRECTION('',(1.,0.,0.));
#1344 = ADVANCED_FACE('',(#1345),#1356,.T.);
#1345 = FACE_BOUND('',#1346,.T.);
#1346 = EDGE_LOOP('',(#1347,#1353,#1354,#1355));
#1347 = ORIENTED_EDGE('',*,*,#1348,.T.);
#1348 = EDGE_CURVE('',#519,#703,#1349,.T.);
#1349 = LINE('',#1350,#1351);
#1350 = CARTESIAN_POINT('',(19.800171770219,-5.625,0.));
#1351 = VECTOR('',#1352,1.);
#1352 = DIRECTION('',(0.,0.,1.));
#1353 = ORIENTED_EDGE('',*,*,#702,.T.);
#1354 = ORIENTED_EDGE('',*,*,#1331,.F.);
#1355 = ORIENTED_EDGE('',*,*,#526,.F.);
#1356 = PLANE('',#1357);
#1357 = AXIS2_PLACEMENT_3D('',#1358,#1359,#1360);
#1358 = CARTESIAN_POINT('',(19.800171770219,-5.625,0.));
#1359 = DIRECTION('',(-0.939692620786,0.342020143325,0.));
#1360 = DIRECTION('',(0.342020143325,0.939692620786,0.));
#1361 = ADVANCED_FACE('',(#1362),#1373,.F.);
#1362 = FACE_BOUND('',#1363,.F.);
#1363 = EDGE_LOOP('',(#1364,#1365,#1366,#1372));
#1364 = ORIENTED_EDGE('',*,*,#1348,.T.);
#1365 = ORIENTED_EDGE('',*,*,#710,.T.);
#1366 = ORIENTED_EDGE('',*,*,#1367,.F.);
#1367 = EDGE_CURVE('',#511,#711,#1368,.T.);
#1368 = LINE('',#1369,#1370);
#1369 = CARTESIAN_POINT('',(19.469736399653,-5.625,0.));
#1370 = VECTOR('',#1371,1.);
#1371 = DIRECTION('',(0.,0.,1.));
#1372 = ORIENTED_EDGE('',*,*,#518,.F.);
#1373 = PLANE('',#1374);
#1374 = AXIS2_PLACEMENT_3D('',#1375,#1376,#1377);
#1375 = CARTESIAN_POINT('',(19.800171770219,-5.625,0.));
#1376 = DIRECTION('',(0.,-1.,0.));
#1377 = DIRECTION('',(-1.,0.,0.));
#1378 = ADVANCED_FACE('',(#1379),#1390,.T.);
#1379 = FACE_BOUND('',#1380,.T.);
#1380 = EDGE_LOOP('',(#1381,#1387,#1388,#1389));
#1381 = ORIENTED_EDGE('',*,*,#1382,.T.);
#1382 = EDGE_CURVE('',#503,#719,#1383,.T.);
#1383 = LINE('',#1384,#1385);
#1384 = CARTESIAN_POINT('',(19.060269886105,-4.5,0.));
#1385 = VECTOR('',#1386,1.);
#1386 = DIRECTION('',(0.,0.,1.));
#1387 = ORIENTED_EDGE('',*,*,#718,.T.);
#1388 = ORIENTED_EDGE('',*,*,#1367,.F.);
#1389 = ORIENTED_EDGE('',*,*,#510,.F.);
#1390 = PLANE('',#1391);
#1391 = AXIS2_PLACEMENT_3D('',#1392,#1393,#1394);
#1392 = CARTESIAN_POINT('',(19.060269886105,-4.5,0.));
#1393 = DIRECTION('',(0.939692620786,0.342020143325,0.));
#1394 = DIRECTION('',(0.342020143325,-0.939692620786,0.));
#1395 = ADVANCED_FACE('',(#1396),#1407,.T.);
#1396 = FACE_BOUND('',#1397,.T.);
#1397 = EDGE_LOOP('',(#1398,#1404,#1405,#1406));
#1398 = ORIENTED_EDGE('',*,*,#1399,.T.);
#1399 = EDGE_CURVE('',#495,#727,#1400,.T.);
#1400 = LINE('',#1401,#1402);
#1401 = CARTESIAN_POINT('',(18.638841956973,-4.5,0.));
#1402 = VECTOR('',#1403,1.);
#1403 = DIRECTION('',(0.,0.,1.));
#1404 = ORIENTED_EDGE('',*,*,#726,.T.);
#1405 = ORIENTED_EDGE('',*,*,#1382,.F.);
#1406 = ORIENTED_EDGE('',*,*,#502,.F.);
#1407 = PLANE('',#1408);
#1408 = AXIS2_PLACEMENT_3D('',#1409,#1410,#1411);
#1409 = CARTESIAN_POINT('',(18.638841956973,-4.5,0.));
#1410 = DIRECTION('',(0.,1.,0.));
#1411 = DIRECTION('',(1.,0.,0.));
#1412 = ADVANCED_FACE('',(#1413),#1424,.T.);
#1413 = FACE_BOUND('',#1414,.T.);
#1414 = EDGE_LOOP('',(#1415,#1421,#1422,#1423));
#1415 = ORIENTED_EDGE('',*,*,#1416,.T.);
#1416 = EDGE_CURVE('',#487,#735,#1417,.T.);
#1417 = LINE('',#1418,#1419);
#1418 = CARTESIAN_POINT('',(18.229375443424,-5.625,0.));
#1419 = VECTOR('',#1420,1.);
#1420 = DIRECTION('',(0.,0.,1.));
#1421 = ORIENTED_EDGE('',*,*,#734,.T.);
#1422 = ORIENTED_EDGE('',*,*,#1399,.F.);
#1423 = ORIENTED_EDGE('',*,*,#494,.F.);
#1424 = PLANE('',#1425);
#1425 = AXIS2_PLACEMENT_3D('',#1426,#1427,#1428);
#1426 = CARTESIAN_POINT('',(18.229375443424,-5.625,0.));
#1427 = DIRECTION('',(-0.939692620786,0.342020143325,0.));
#1428 = DIRECTION('',(0.342020143325,0.939692620786,0.));
#1429 = ADVANCED_FACE('',(#1430),#1441,.F.);
#1430 = FACE_BOUND('',#1431,.F.);
#1431 = EDGE_LOOP('',(#1432,#1433,#1434,#1440));
#1432 = ORIENTED_EDGE('',*,*,#1416,.T.);
#1433 = ORIENTED_EDGE('',*,*,#742,.T.);
#1434 = ORIENTED_EDGE('',*,*,#1435,.F.);
#1435 = EDGE_CURVE('',#479,#743,#1436,.T.);
#1436 = LINE('',#1437,#1438);
#1437 = CARTESIAN_POINT('',(17.898940072858,-5.625,0.));
#1438 = VECTOR('',#1439,1.);
#1439 = DIRECTION('',(0.,0.,1.));
#1440 = ORIENTED_EDGE('',*,*,#486,.F.);
#1441 = PLANE('',#1442);
#1442 = AXIS2_PLACEMENT_3D('',#1443,#1444,#1445);
#1443 = CARTESIAN_POINT('',(18.229375443424,-5.625,0.));
#1444 = DIRECTION('',(0.,-1.,0.));
#1445 = DIRECTION('',(-1.,0.,0.));
#1446 = ADVANCED_FACE('',(#1447),#1458,.T.);
#1447 = FACE_BOUND('',#1448,.T.);
#1448 = EDGE_LOOP('',(#1449,#1455,#1456,#1457));
#1449 = ORIENTED_EDGE('',*,*,#1450,.T.);
#1450 = EDGE_CURVE('',#471,#751,#1451,.T.);
#1451 = LINE('',#1452,#1453);
#1452 = CARTESIAN_POINT('',(17.48947355931,-4.5,0.));
#1453 = VECTOR('',#1454,1.);
#1454 = DIRECTION('',(0.,0.,1.));
#1455 = ORIENTED_EDGE('',*,*,#750,.T.);
#1456 = ORIENTED_EDGE('',*,*,#1435,.F.);
#1457 = ORIENTED_EDGE('',*,*,#478,.F.);
#1458 = PLANE('',#1459);
#1459 = AXIS2_PLACEMENT_3D('',#1460,#1461,#1462);
#1460 = CARTESIAN_POINT('',(17.48947355931,-4.5,0.));
#1461 = DIRECTION('',(0.939692620786,0.342020143325,0.));
#1462 = DIRECTION('',(0.342020143325,-0.939692620786,0.));
#1463 = ADVANCED_FACE('',(#1464),#1475,.T.);
#1464 = FACE_BOUND('',#1465,.T.);
#1465 = EDGE_LOOP('',(#1466,#1472,#1473,#1474));
#1466 = ORIENTED_EDGE('',*,*,#1467,.T.);
#1467 = EDGE_CURVE('',#463,#759,#1468,.T.);
#1468 = LINE('',#1469,#1470);
#1469 = CARTESIAN_POINT('',(17.068045630178,-4.5,0.));
#1470 = VECTOR('',#1471,1.);
#1471 = DIRECTION('',(0.,0.,1.));
#1472 = ORIENTED_EDGE('',*,*,#758,.T.);
#1473 = ORIENTED_EDGE('',*,*,#1450,.F.);
#1474 = ORIENTED_EDGE('',*,*,#470,.F.);
#1475 = PLANE('',#1476);
#1476 = AXIS2_PLACEMENT_3D('',#1477,#1478,#1479);
#1477 = CARTESIAN_POINT('',(17.068045630178,-4.5,0.));
#1478 = DIRECTION('',(0.,1.,0.));
#1479 = DIRECTION('',(1.,0.,0.));
#1480 = ADVANCED_FACE('',(#1481),#1492,.T.);
#1481 = FACE_BOUND('',#1482,.T.);
#1482 = EDGE_LOOP('',(#1483,#1489,#1490,#1491));
#1483 = ORIENTED_EDGE('',*,*,#1484,.T.);
#1484 = EDGE_CURVE('',#455,#767,#1485,.T.);
#1485 = LINE('',#1486,#1487);
#1486 = CARTESIAN_POINT('',(16.658579116629,-5.625,0.));
#1487 = VECTOR('',#1488,1.);
#1488 = DIRECTION('',(0.,0.,1.));
#1489 = ORIENTED_EDGE('',*,*,#766,.T.);
#1490 = ORIENTED_EDGE('',*,*,#1467,.F.);
#1491 = ORIENTED_EDGE('',*,*,#462,.F.);
#1492 = PLANE('',#1493);
#1493 = AXIS2_PLACEMENT_3D('',#1494,#1495,#1496);
#1494 = CARTESIAN_POINT('',(16.658579116629,-5.625,0.));
#1495 = DIRECTION('',(-0.939692620786,0.342020143325,0.));
#1496 = DIRECTION('',(0.342020143325,0.939692620786,0.));
#1497 = ADVANCED_FACE('',(#1498),#1509,.F.);
#1498 = FACE_BOUND('',#1499,.F.);
#1499 = EDGE_LOOP('',(#1500,#1501,#1502,#1508));
#1500 = ORIENTED_EDGE('',*,*,#1484,.T.);
#1501 = ORIENTED_EDGE('',*,*,#774,.T.);
#1502 = ORIENTED_EDGE('',*,*,#1503,.F.);
#1503 = EDGE_CURVE('',#447,#775,#1504,.T.);
#1504 = LINE('',#1505,#1506);
#1505 = CARTESIAN_POINT('',(16.328143746063,-5.625,0.));
#1506 = VECTOR('',#1507,1.);
#1507 = DIRECTION('',(0.,0.,1.));
#1508 = ORIENTED_EDGE('',*,*,#454,.F.);
#1509 = PLANE('',#1510);
#1510 = AXIS2_PLACEMENT_3D('',#1511,#1512,#1513);
#1511 = CARTESIAN_POINT('',(16.658579116629,-5.625,0.));
#1512 = DIRECTION('',(0.,-1.,0.));
#1513 = DIRECTION('',(-1.,0.,0.));
#1514 = ADVANCED_FACE('',(#1515),#1526,.T.);
#1515 = FACE_BOUND('',#1516,.T.);
#1516 = EDGE_LOOP('',(#1517,#1523,#1524,#1525));
#1517 = ORIENTED_EDGE('',*,*,#1518,.T.);
#1518 = EDGE_CURVE('',#439,#783,#1519,.T.);
#1519 = LINE('',#1520,#1521);
#1520 = CARTESIAN_POINT('',(15.918677232515,-4.5,0.));
#1521 = VECTOR('',#1522,1.);
#1522 = DIRECTION('',(0.,0.,1.));
#1523 = ORIENTED_EDGE('',*,*,#782,.T.);
#1524 = ORIENTED_EDGE('',*,*,#1503,.F.);
#1525 = ORIENTED_EDGE('',*,*,#446,.F.);
#1526 = PLANE('',#1527);
#1527 = AXIS2_PLACEMENT_3D('',#1528,#1529,#1530);
#1528 = CARTESIAN_POINT('',(15.918677232515,-4.5,0.));
#1529 = DIRECTION('',(0.939692620786,0.342020143325,0.));
#1530 = DIRECTION('',(0.342020143325,-0.939692620786,0.));
#1531 = ADVANCED_FACE('',(#1532),#1543,.T.);
#1532 = FACE_BOUND('',#1533,.T.);
#1533 = EDGE_LOOP('',(#1534,#1540,#1541,#1542));
#1534 = ORIENTED_EDGE('',*,*,#1535,.T.);
#1535 = EDGE_CURVE('',#431,#791,#1536,.T.);
#1536 = LINE('',#1537,#1538);
#1537 = CARTESIAN_POINT('',(15.497249303383,-4.5,0.));
#1538 = VECTOR('',#1539,1.);
#1539 = DIRECTION('',(0.,0.,1.));
#1540 = ORIENTED_EDGE('',*,*,#790,.T.);
#1541 = ORIENTED_EDGE('',*,*,#1518,.F.);
#1542 = ORIENTED_EDGE('',*,*,#438,.F.);
#1543 = PLANE('',#1544);
#1544 = AXIS2_PLACEMENT_3D('',#1545,#1546,#1547);
#1545 = CARTESIAN_POINT('',(15.497249303383,-4.5,0.));
#1546 = DIRECTION('',(0.,1.,0.));
#1547 = DIRECTION('',(1.,0.,0.));
#1548 = ADVANCED_FACE('',(#1549),#1560,.T.);
#1549 = FACE_BOUND('',#1550,.T.);
#1550 = EDGE_LOOP('',(#1551,#1557,#1558,#1559));
#1551 = ORIENTED_EDGE('',*,*,#1552,.T.);
#1552 = EDGE_CURVE('',#423,#799,#1553,.T.);
#1553 = LINE('',#1554,#1555);
#1554 = CARTESIAN_POINT('',(15.087782789835,-5.625,0.));
#1555 = VECTOR('',#1556,1.);
#1556 = DIRECTION('',(0.,0.,1.));
#1557 = ORIENTED_EDGE('',*,*,#798,.T.);
#1558 = ORIENTED_EDGE('',*,*,#1535,.F.);
#1559 = ORIENTED_EDGE('',*,*,#430,.F.);
#1560 = PLANE('',#1561);
#1561 = AXIS2_PLACEMENT_3D('',#1562,#1563,#1564);
#1562 = CARTESIAN_POINT('',(15.087782789835,-5.625,0.));
#1563 = DIRECTION('',(-0.939692620786,0.342020143325,0.));
#1564 = DIRECTION('',(0.342020143325,0.939692620786,0.));
#1565 = ADVANCED_FACE('',(#1566),#1577,.F.);
#1566 = FACE_BOUND('',#1567,.F.);
#1567 = EDGE_LOOP('',(#1568,#1569,#1570,#1576));
#1568 = ORIENTED_EDGE('',*,*,#1552,.T.);
#1569 = ORIENTED_EDGE('',*,*,#806,.T.);
#1570 = ORIENTED_EDGE('',*,*,#1571,.F.);
#1571 = EDGE_CURVE('',#415,#807,#1572,.T.);
#1572 = LINE('',#1573,#1574);
#1573 = CARTESIAN_POINT('',(14.757347419268,-5.625,0.));
#1574 = VECTOR('',#1575,1.);
#1575 = DIRECTION('',(0.,0.,1.));
#1576 = ORIENTED_EDGE('',*,*,#422,.F.);
#1577 = PLANE('',#1578);
#1578 = AXIS2_PLACEMENT_3D('',#1579,#1580,#1581);
#1579 = CARTESIAN_POINT('',(15.087782789835,-5.625,0.));
#1580 = DIRECTION('',(0.,-1.,0.));
#1581 = DIRECTION('',(-1.,0.,0.));
#1582 = ADVANCED_FACE('',(#1583),#1594,.T.);
#1583 = FACE_BOUND('',#1584,.T.);
#1584 = EDGE_LOOP('',(#1585,#1591,#1592,#1593));
#1585 = ORIENTED_EDGE('',*,*,#1586,.T.);
#1586 = EDGE_CURVE('',#407,#815,#1587,.T.);
#1587 = LINE('',#1588,#1589);
#1588 = CARTESIAN_POINT('',(14.34788090572,-4.5,0.));
#1589 = VECTOR('',#1590,1.);
#1590 = DIRECTION('',(0.,0.,1.));
#1591 = ORIENTED_EDGE('',*,*,#814,.T.);
#1592 = ORIENTED_EDGE('',*,*,#1571,.F.);
#1593 = ORIENTED_EDGE('',*,*,#414,.F.);
#1594 = PLANE('',#1595);
#1595 = AXIS2_PLACEMENT_3D('',#1596,#1597,#1598);
#1596 = CARTESIAN_POINT('',(14.34788090572,-4.5,0.));
#1597 = DIRECTION('',(0.939692620786,0.342020143325,0.));
#1598 = DIRECTION('',(0.342020143325,-0.939692620786,0.));
#1599 = ADVANCED_FACE('',(#1600),#1611,.T.);
#1600 = FACE_BOUND('',#1601,.T.);
#1601 = EDGE_LOOP('',(#1602,#1608,#1609,#1610));
#1602 = ORIENTED_EDGE('',*,*,#1603,.T.);
#1603 = EDGE_CURVE('',#399,#823,#1604,.T.);
#1604 = LINE('',#1605,#1606);
#1605 = CARTESIAN_POINT('',(13.926452976588,-4.5,0.));
#1606 = VECTOR('',#1607,1.);
#1607 = DIRECTION('',(0.,0.,1.));
#1608 = ORIENTED_EDGE('',*,*,#822,.T.);
#1609 = ORIENTED_EDGE('',*,*,#1586,.F.);
#1610 = ORIENTED_EDGE('',*,*,#406,.F.);
#1611 = PLANE('',#1612);
#1612 = AXIS2_PLACEMENT_3D('',#1613,#1614,#1615);
#1613 = CARTESIAN_POINT('',(13.926452976588,-4.5,0.));
#1614 = DIRECTION('',(0.,1.,0.));
#1615 = DIRECTION('',(1.,0.,0.));
#1616 = ADVANCED_FACE('',(#1617),#1628,.T.);
#1617 = FACE_BOUND('',#1618,.T.);
#1618 = EDGE_LOOP('',(#1619,#1625,#1626,#1627));
#1619 = ORIENTED_EDGE('',*,*,#1620,.T.);
#1620 = EDGE_CURVE('',#391,#831,#1621,.T.);
#1621 = LINE('',#1622,#1623);
#1622 = CARTESIAN_POINT('',(13.51698646304,-5.625,0.));
#1623 = VECTOR('',#1624,1.);
#1624 = DIRECTION('',(0.,0.,1.));
#1625 = ORIENTED_EDGE('',*,*,#830,.T.);
#1626 = ORIENTED_EDGE('',*,*,#1603,.F.);
#1627 = ORIENTED_EDGE('',*,*,#398,.F.);
#1628 = PLANE('',#1629);
#1629 = AXIS2_PLACEMENT_3D('',#1630,#1631,#1632);
#1630 = CARTESIAN_POINT('',(13.51698646304,-5.625,0.));
#1631 = DIRECTION('',(-0.939692620786,0.342020143325,0.));
#1632 = DIRECTION('',(0.342020143325,0.939692620786,0.));
#1633 = ADVANCED_FACE('',(#1634),#1645,.F.);
#1634 = FACE_BOUND('',#1635,.F.);
#1635 = EDGE_LOOP('',(#1636,#1637,#1638,#1644));
#1636 = ORIENTED_EDGE('',*,*,#1620,.T.);
#1637 = ORIENTED_EDGE('',*,*,#838,.T.);
#1638 = ORIENTED_EDGE('',*,*,#1639,.F.);
#1639 = EDGE_CURVE('',#383,#839,#1640,.T.);
#1640 = LINE('',#1641,#1642);
#1641 = CARTESIAN_POINT('',(13.186551092474,-5.625,0.));
#1642 = VECTOR('',#1643,1.);
#1643 = DIRECTION('',(0.,0.,1.));
#1644 = ORIENTED_EDGE('',*,*,#390,.F.);
#1645 = PLANE('',#1646);
#1646 = AXIS2_PLACEMENT_3D('',#1647,#1648,#1649);
#1647 = CARTESIAN_POINT('',(13.51698646304,-5.625,0.));
#1648 = DIRECTION('',(0.,-1.,0.));
#1649 = DIRECTION('',(-1.,0.,0.));
#1650 = ADVANCED_FACE('',(#1651),#1662,.T.);
#1651 = FACE_BOUND('',#1652,.T.);
#1652 = EDGE_LOOP('',(#1653,#1659,#1660,#1661));
#1653 = ORIENTED_EDGE('',*,*,#1654,.T.);
#1654 = EDGE_CURVE('',#375,#847,#1655,.T.);
#1655 = LINE('',#1656,#1657);
#1656 = CARTESIAN_POINT('',(12.777084578925,-4.5,0.));
#1657 = VECTOR('',#1658,1.);
#1658 = DIRECTION('',(0.,0.,1.));
#1659 = ORIENTED_EDGE('',*,*,#846,.T.);
#1660 = ORIENTED_EDGE('',*,*,#1639,.F.);
#1661 = ORIENTED_EDGE('',*,*,#382,.F.);
#1662 = PLANE('',#1663);
#1663 = AXIS2_PLACEMENT_3D('',#1664,#1665,#1666);
#1664 = CARTESIAN_POINT('',(12.777084578925,-4.5,0.));
#1665 = DIRECTION('',(0.939692620786,0.342020143325,0.));
#1666 = DIRECTION('',(0.342020143325,-0.939692620786,0.));
#1667 = ADVANCED_FACE('',(#1668),#1679,.T.);
#1668 = FACE_BOUND('',#1669,.T.);
#1669 = EDGE_LOOP('',(#1670,#1676,#1677,#1678));
#1670 = ORIENTED_EDGE('',*,*,#1671,.T.);
#1671 = EDGE_CURVE('',#367,#855,#1672,.T.);
#1672 = LINE('',#1673,#1674);
#1673 = CARTESIAN_POINT('',(12.355656649793,-4.5,0.));
#1674 = VECTOR('',#1675,1.);
#1675 = DIRECTION('',(0.,0.,1.));
#1676 = ORIENTED_EDGE('',*,*,#854,.T.);
#1677 = ORIENTED_EDGE('',*,*,#1654,.F.);
#1678 = ORIENTED_EDGE('',*,*,#374,.F.);
#1679 = PLANE('',#1680);
#1680 = AXIS2_PLACEMENT_3D('',#1681,#1682,#1683);
#1681 = CARTESIAN_POINT('',(12.355656649793,-4.5,0.));
#1682 = DIRECTION('',(0.,1.,0.));
#1683 = DIRECTION('',(1.,0.,0.));
#1684 = ADVANCED_FACE('',(#1685),#1696,.T.);
#1685 = FACE_BOUND('',#1686,.T.);
#1686 = EDGE_LOOP('',(#1687,#1693,#1694,#1695));
#1687 = ORIENTED_EDGE('',*,*,#1688,.T.);
#1688 = EDGE_CURVE('',#359,#863,#1689,.T.);
#1689 = LINE('',#1690,#1691);
#1690 = CARTESIAN_POINT('',(11.946190136245,-5.625,0.));
#1691 = VECTOR('',#1692,1.);
#1692 = DIRECTION('',(0.,0.,1.));
#1693 = ORIENTED_EDGE('',*,*,#862,.T.);
#1694 = ORIENTED_EDGE('',*,*,#1671,.F.);
#1695 = ORIENTED_EDGE('',*,*,#366,.F.);
#1696 = PLANE('',#1697);
#1697 = AXIS2_PLACEMENT_3D('',#1698,#1699,#1700);
#1698 = CARTESIAN_POINT('',(11.946190136245,-5.625,0.));
#1699 = DIRECTION('',(-0.939692620786,0.342020143325,0.));
#1700 = DIRECTION('',(0.342020143325,0.939692620786,0.));
#1701 = ADVANCED_FACE('',(#1702),#1713,.F.);
#1702 = FACE_BOUND('',#1703,.F.);
#1703 = EDGE_LOOP('',(#1704,#1705,#1706,#1712));
#1704 = ORIENTED_EDGE('',*,*,#1688,.T.);
#1705 = ORIENTED_EDGE('',*,*,#870,.T.);
#1706 = ORIENTED_EDGE('',*,*,#1707,.F.);
#1707 = EDGE_CURVE('',#351,#871,#1708,.T.);
#1708 = LINE('',#1709,#1710);
#1709 = CARTESIAN_POINT('',(11.615754765679,-5.625,0.));
#1710 = VECTOR('',#1711,1.);
#1711 = DIRECTION('',(0.,0.,1.));
#1712 = ORIENTED_EDGE('',*,*,#358,.F.);
#1713 = PLANE('',#1714);
#1714 = AXIS2_PLACEMENT_3D('',#1715,#1716,#1717);
#1715 = CARTESIAN_POINT('',(11.946190136245,-5.625,0.));
#1716 = DIRECTION('',(0.,-1.,0.));
#1717 = DIRECTION('',(-1.,0.,0.));
#1718 = ADVANCED_FACE('',(#1719),#1730,.T.);
#1719 = FACE_BOUND('',#1720,.T.);
#1720 = EDGE_LOOP('',(#1721,#1727,#1728,#1729));
#1721 = ORIENTED_EDGE('',*,*,#1722,.T.);
#1722 = EDGE_CURVE('',#343,#879,#1723,.T.);
#1723 = LINE('',#1724,#1725);
#1724 = CARTESIAN_POINT('',(11.20628825213,-4.5,0.));
#1725 = VECTOR('',#1726,1.);
#1726 = DIRECTION('',(0.,0.,1.));
#1727 = ORIENTED_EDGE('',*,*,#878,.T.);
#1728 = ORIENTED_EDGE('',*,*,#1707,.F.);
#1729 = ORIENTED_EDGE('',*,*,#350,.F.);
#1730 = PLANE('',#1731);
#1731 = AXIS2_PLACEMENT_3D('',#1732,#1733,#1734);
#1732 = CARTESIAN_POINT('',(11.20628825213,-4.5,0.));
#1733 = DIRECTION('',(0.939692620786,0.342020143325,0.));
#1734 = DIRECTION('',(0.342020143325,-0.939692620786,0.));
#1735 = ADVANCED_FACE('',(#1736),#1747,.T.);
#1736 = FACE_BOUND('',#1737,.T.);
#1737 = EDGE_LOOP('',(#1738,#1744,#1745,#1746));
#1738 = ORIENTED_EDGE('',*,*,#1739,.T.);
#1739 = EDGE_CURVE('',#335,#887,#1740,.T.);
#1740 = LINE('',#1741,#1742);
#1741 = CARTESIAN_POINT('',(10.784860322998,-4.5,0.));
#1742 = VECTOR('',#1743,1.);
#1743 = DIRECTION('',(0.,0.,1.));
#1744 = ORIENTED_EDGE('',*,*,#886,.T.);
#1745 = ORIENTED_EDGE('',*,*,#1722,.F.);
#1746 = ORIENTED_EDGE('',*,*,#342,.F.);
#1747 = PLANE('',#1748);
#1748 = AXIS2_PLACEMENT_3D('',#1749,#1750,#1751);
#1749 = CARTESIAN_POINT('',(10.784860322998,-4.5,0.));
#1750 = DIRECTION('',(0.,1.,0.));
#1751 = DIRECTION('',(1.,0.,0.));
#1752 = ADVANCED_FACE('',(#1753),#1764,.T.);
#1753 = FACE_BOUND('',#1754,.T.);
#1754 = EDGE_LOOP('',(#1755,#1761,#1762,#1763));
#1755 = ORIENTED_EDGE('',*,*,#1756,.T.);
#1756 = EDGE_CURVE('',#327,#895,#1757,.T.);
#1757 = LINE('',#1758,#1759);
#1758 = CARTESIAN_POINT('',(10.37539380945,-5.625,0.));
#1759 = VECTOR('',#1760,1.);
#1760 = DIRECTION('',(0.,0.,1.));
#1761 = ORIENTED_EDGE('',*,*,#894,.T.);
#1762 = ORIENTED_EDGE('',*,*,#1739,.F.);
#1763 = ORIENTED_EDGE('',*,*,#334,.F.);
#1764 = PLANE('',#1765);
#1765 = AXIS2_PLACEMENT_3D('',#1766,#1767,#1768);
#1766 = CARTESIAN_POINT('',(10.37539380945,-5.625,0.));
#1767 = DIRECTION('',(-0.939692620786,0.342020143325,0.));
#1768 = DIRECTION('',(0.342020143325,0.939692620786,0.));
#1769 = ADVANCED_FACE('',(#1770),#1781,.F.);
#1770 = FACE_BOUND('',#1771,.F.);
#1771 = EDGE_LOOP('',(#1772,#1773,#1774,#1780));
#1772 = ORIENTED_EDGE('',*,*,#1756,.T.);
#1773 = ORIENTED_EDGE('',*,*,#902,.T.);
#1774 = ORIENTED_EDGE('',*,*,#1775,.F.);
#1775 = EDGE_CURVE('',#319,#903,#1776,.T.);
#1776 = LINE('',#1777,#1778);
#1777 = CARTESIAN_POINT('',(10.044958438884,-5.625,0.));
#1778 = VECTOR('',#1779,1.);
#1779 = DIRECTION('',(0.,0.,1.));
#1780 = ORIENTED_EDGE('',*,*,#326,.F.);
#1781 = PLANE('',#1782);
#1782 = AXIS2_PLACEMENT_3D('',#1783,#1784,#1785);
#1783 = CARTESIAN_POINT('',(10.37539380945,-5.625,0.));
#1784 = DIRECTION('',(0.,-1.,0.));
#1785 = DIRECTION('',(-1.,0.,0.));
#1786 = ADVANCED_FACE('',(#1787),#1798,.T.);
#1787 = FACE_BOUND('',#1788,.T.);
#1788 = EDGE_LOOP('',(#1789,#1795,#1796,#1797));
#1789 = ORIENTED_EDGE('',*,*,#1790,.T.);
#1790 = EDGE_CURVE('',#311,#911,#1791,.T.);
#1791 = LINE('',#1792,#1793);
#1792 = CARTESIAN_POINT('',(9.635491925335,-4.5,0.));
#1793 = VECTOR('',#1794,1.);
#1794 = DIRECTION('',(0.,0.,1.));
#1795 = ORIENTED_EDGE('',*,*,#910,.T.);
#1796 = ORIENTED_EDGE('',*,*,#1775,.F.);
#1797 = ORIENTED_EDGE('',*,*,#318,.F.);
#1798 = PLANE('',#1799);
#1799 = AXIS2_PLACEMENT_3D('',#1800,#1801,#1802);
#1800 = CARTESIAN_POINT('',(9.635491925335,-4.5,0.));
#1801 = DIRECTION('',(0.939692620786,0.342020143325,0.));
#1802 = DIRECTION('',(0.342020143325,-0.939692620786,0.));
#1803 = ADVANCED_FACE('',(#1804),#1815,.T.);
#1804 = FACE_BOUND('',#1805,.T.);
#1805 = EDGE_LOOP('',(#1806,#1812,#1813,#1814));
#1806 = ORIENTED_EDGE('',*,*,#1807,.T.);
#1807 = EDGE_CURVE('',#303,#919,#1808,.T.);
#1808 = LINE('',#1809,#1810);
#1809 = CARTESIAN_POINT('',(9.214063996203,-4.5,0.));
#1810 = VECTOR('',#1811,1.);
#1811 = DIRECTION('',(0.,0.,1.));
#1812 = ORIENTED_EDGE('',*,*,#918,.T.);
#1813 = ORIENTED_EDGE('',*,*,#1790,.F.);
#1814 = ORIENTED_EDGE('',*,*,#310,.F.);
#1815 = PLANE('',#1816);
#1816 = AXIS2_PLACEMENT_3D('',#1817,#1818,#1819);
#1817 = CARTESIAN_POINT('',(9.214063996203,-4.5,0.));
#1818 = DIRECTION('',(0.,1.,0.));
#1819 = DIRECTION('',(1.,0.,0.));
#1820 = ADVANCED_FACE('',(#1821),#1832,.T.);
#1821 = FACE_BOUND('',#1822,.T.);
#1822 = EDGE_LOOP('',(#1823,#1829,#1830,#1831));
#1823 = ORIENTED_EDGE('',*,*,#1824,.T.);
#1824 = EDGE_CURVE('',#295,#927,#1825,.T.);
#1825 = LINE('',#1826,#1827);
#1826 = CARTESIAN_POINT('',(8.804597482655,-5.625,0.));
#1827 = VECTOR('',#1828,1.);
#1828 = DIRECTION('',(0.,0.,1.));
#1829 = ORIENTED_EDGE('',*,*,#926,.T.);
#1830 = ORIENTED_EDGE('',*,*,#1807,.F.);
#1831 = ORIENTED_EDGE('',*,*,#302,.F.);
#1832 = PLANE('',#1833);
#1833 = AXIS2_PLACEMENT_3D('',#1834,#1835,#1836);
#1834 = CARTESIAN_POINT('',(8.804597482655,-5.625,0.));
#1835 = DIRECTION('',(-0.939692620786,0.342020143325,0.));
#1836 = DIRECTION('',(0.342020143325,0.939692620786,0.));
#1837 = ADVANCED_FACE('',(#1838),#1849,.F.);
#1838 = FACE_BOUND('',#1839,.F.);
#1839 = EDGE_LOOP('',(#1840,#1841,#1842,#1848));
#1840 = ORIENTED_EDGE('',*,*,#1824,.T.);
#1841 = ORIENTED_EDGE('',*,*,#934,.T.);
#1842 = ORIENTED_EDGE('',*,*,#1843,.F.);
#1843 = EDGE_CURVE('',#287,#935,#1844,.T.);
#1844 = LINE('',#1845,#1846);
#1845 = CARTESIAN_POINT('',(8.474162112089,-5.625,0.));
#1846 = VECTOR('',#1847,1.);
#1847 = DIRECTION('',(0.,0.,1.));
#1848 = ORIENTED_EDGE('',*,*,#294,.F.);
#1849 = PLANE('',#1850);
#1850 = AXIS2_PLACEMENT_3D('',#1851,#1852,#1853);
#1851 = CARTESIAN_POINT('',(8.804597482655,-5.625,0.));
#1852 = DIRECTION('',(0.,-1.,0.));
#1853 = DIRECTION('',(-1.,0.,0.));
#1854 = ADVANCED_FACE('',(#1855),#1866,.T.);
#1855 = FACE_BOUND('',#1856,.T.);
#1856 = EDGE_LOOP('',(#1857,#1863,#1864,#1865));
#1857 = ORIENTED_EDGE('',*,*,#1858,.T.);
#1858 = EDGE_CURVE('',#279,#943,#1859,.T.);
#1859 = LINE('',#1860,#1861);
#1860 = CARTESIAN_POINT('',(8.06469559854,-4.5,0.));
#1861 = VECTOR('',#1862,1.);
#1862 = DIRECTION('',(0.,0.,1.));
#1863 = ORIENTED_EDGE('',*,*,#942,.T.);
#1864 = ORIENTED_EDGE('',*,*,#1843,.F.);
#1865 = ORIENTED_EDGE('',*,*,#286,.F.);
#1866 = PLANE('',#1867);
#1867 = AXIS2_PLACEMENT_3D('',#1868,#1869,#1870);
#1868 = CARTESIAN_POINT('',(8.06469559854,-4.5,0.));
#1869 = DIRECTION('',(0.939692620786,0.342020143325,0.));
#1870 = DIRECTION('',(0.342020143325,-0.939692620786,0.));
#1871 = ADVANCED_FACE('',(#1872),#1883,.T.);
#1872 = FACE_BOUND('',#1873,.T.);
#1873 = EDGE_LOOP('',(#1874,#1880,#1881,#1882));
#1874 = ORIENTED_EDGE('',*,*,#1875,.T.);
#1875 = EDGE_CURVE('',#271,#951,#1876,.T.);
#1876 = LINE('',#1877,#1878);
#1877 = CARTESIAN_POINT('',(7.643267669408,-4.5,0.));
#1878 = VECTOR('',#1879,1.);
#1879 = DIRECTION('',(0.,0.,1.));
#1880 = ORIENTED_EDGE('',*,*,#950,.T.);
#1881 = ORIENTED_EDGE('',*,*,#1858,.F.);
#1882 = ORIENTED_EDGE('',*,*,#278,.F.);
#1883 = PLANE('',#1884);
#1884 = AXIS2_PLACEMENT_3D('',#1885,#1886,#1887);
#1885 = CARTESIAN_POINT('',(7.643267669408,-4.5,0.));
#1886 = DIRECTION('',(0.,1.,0.));
#1887 = DIRECTION('',(1.,0.,0.));
#1888 = ADVANCED_FACE('',(#1889),#1900,.T.);
#1889 = FACE_BOUND('',#1890,.T.);
#1890 = EDGE_LOOP('',(#1891,#1897,#1898,#1899));
#1891 = ORIENTED_EDGE('',*,*,#1892,.T.);
#1892 = EDGE_CURVE('',#263,#959,#1893,.T.);
#1893 = LINE('',#1894,#1895);
#1894 = CARTESIAN_POINT('',(7.23380115586,-5.625,0.));
#1895 = VECTOR('',#1896,1.);
#1896 = DIRECTION('',(0.,0.,1.));
#1897 = ORIENTED_EDGE('',*,*,#958,.T.);
#1898 = ORIENTED_EDGE('',*,*,#1875,.F.);
#1899 = ORIENTED_EDGE('',*,*,#270,.F.);
#1900 = PLANE('',#1901);
#1901 = AXIS2_PLACEMENT_3D('',#1902,#1903,#1904);
#1902 = CARTESIAN_POINT('',(7.23380115586,-5.625,0.));
#1903 = DIRECTION('',(-0.939692620786,0.342020143325,0.));
#1904 = DIRECTION('',(0.342020143325,0.939692620786,0.));
#1905 = ADVANCED_FACE('',(#1906),#1917,.F.);
#1906 = FACE_BOUND('',#1907,.F.);
#1907 = EDGE_LOOP('',(#1908,#1909,#1910,#1916));
#1908 = ORIENTED_EDGE('',*,*,#1892,.T.);
#1909 = ORIENTED_EDGE('',*,*,#966,.T.);
#1910 = ORIENTED_EDGE('',*,*,#1911,.F.);
#1911 = EDGE_CURVE('',#255,#967,#1912,.T.);
#1912 = LINE('',#1913,#1914);
#1913 = CARTESIAN_POINT('',(6.903365785294,-5.625,0.));
#1914 = VECTOR('',#1915,1.);
#1915 = DIRECTION('',(0.,0.,1.));
#1916 = ORIENTED_EDGE('',*,*,#262,.F.);
#1917 = PLANE('',#1918);
#1918 = AXIS2_PLACEMENT_3D('',#1919,#1920,#1921);
#1919 = CARTESIAN_POINT('',(7.23380115586,-5.625,0.));
#1920 = DIRECTION('',(0.,-1.,0.));
#1921 = DIRECTION('',(-1.,0.,0.));
#1922 = ADVANCED_FACE('',(#1923),#1934,.T.);
#1923 = FACE_BOUND('',#1924,.T.);
#1924 = EDGE_LOOP('',(#1925,#1931,#1932,#1933));
#1925 = ORIENTED_EDGE('',*,*,#1926,.T.);
#1926 = EDGE_CURVE('',#247,#975,#1927,.T.);
#1927 = LINE('',#1928,#1929);
#1928 = CARTESIAN_POINT('',(6.493899271746,-4.5,0.));
#1929 = VECTOR('',#1930,1.);
#1930 = DIRECTION('',(0.,0.,1.));
#1931 = ORIENTED_EDGE('',*,*,#974,.T.);
#1932 = ORIENTED_EDGE('',*,*,#1911,.F.);
#1933 = ORIENTED_EDGE('',*,*,#254,.F.);
#1934 = PLANE('',#1935);
#1935 = AXIS2_PLACEMENT_3D('',#1936,#1937,#1938);
#1936 = CARTESIAN_POINT('',(6.493899271746,-4.5,0.));
#1937 = DIRECTION('',(0.939692620786,0.342020143325,0.));
#1938 = DIRECTION('',(0.342020143325,-0.939692620786,0.));
#1939 = ADVANCED_FACE('',(#1940),#1951,.T.);
#1940 = FACE_BOUND('',#1941,.T.);
#1941 = EDGE_LOOP('',(#1942,#1948,#1949,#1950));
#1942 = ORIENTED_EDGE('',*,*,#1943,.T.);
#1943 = EDGE_CURVE('',#239,#983,#1944,.T.);
#1944 = LINE('',#1945,#1946);
#1945 = CARTESIAN_POINT('',(6.072471342614,-4.5,0.));
#1946 = VECTOR('',#1947,1.);
#1947 = DIRECTION('',(0.,0.,1.));
#1948 = ORIENTED_EDGE('',*,*,#982,.T.);
#1949 = ORIENTED_EDGE('',*,*,#1926,.F.);
#1950 = ORIENTED_EDGE('',*,*,#246,.F.);
#1951 = PLANE('',#1952);
#1952 = AXIS2_PLACEMENT_3D('',#1953,#1954,#1955);
#1953 = CARTESIAN_POINT('',(6.072471342614,-4.5,0.));
#1954 = DIRECTION('',(0.,1.,0.));
#1955 = DIRECTION('',(1.,0.,0.));
#1956 = ADVANCED_FACE('',(#1957),#1968,.T.);
#1957 = FACE_BOUND('',#1958,.T.);
#1958 = EDGE_LOOP('',(#1959,#1965,#1966,#1967));
#1959 = ORIENTED_EDGE('',*,*,#1960,.T.);
#1960 = EDGE_CURVE('',#231,#991,#1961,.T.);
#1961 = LINE('',#1962,#1963);
#1962 = CARTESIAN_POINT('',(5.663004829065,-5.625,0.));
#1963 = VECTOR('',#1964,1.);
#1964 = DIRECTION('',(0.,0.,1.));
#1965 = ORIENTED_EDGE('',*,*,#990,.T.);
#1966 = ORIENTED_EDGE('',*,*,#1943,.F.);
#1967 = ORIENTED_EDGE('',*,*,#238,.F.);
#1968 = PLANE('',#1969);
#1969 = AXIS2_PLACEMENT_3D('',#1970,#1971,#1972);
#1970 = CARTESIAN_POINT('',(5.663004829065,-5.625,0.));
#1971 = DIRECTION('',(-0.939692620786,0.342020143325,0.));
#1972 = DIRECTION('',(0.342020143325,0.939692620786,0.));
#1973 = ADVANCED_FACE('',(#1974),#1985,.F.);
#1974 = FACE_BOUND('',#1975,.F.);
#1975 = EDGE_LOOP('',(#1976,#1977,#1978,#1984));
#1976 = ORIENTED_EDGE('',*,*,#1960,.T.);
#1977 = ORIENTED_EDGE('',*,*,#998,.T.);
#1978 = ORIENTED_EDGE('',*,*,#1979,.F.);
#1979 = EDGE_CURVE('',#223,#999,#1980,.T.);
#1980 = LINE('',#1981,#1982);
#1981 = CARTESIAN_POINT('',(5.332569458499,-5.625,0.));
#1982 = VECTOR('',#1983,1.);
#1983 = DIRECTION('',(0.,0.,1.));
#1984 = ORIENTED_EDGE('',*,*,#230,.F.);
#1985 = PLANE('',#1986);
#1986 = AXIS2_PLACEMENT_3D('',#1987,#1988,#1989);
#1987 = CARTESIAN_POINT('',(5.663004829065,-5.625,0.));
#1988 = DIRECTION('',(0.,-1.,0.));
#1989 = DIRECTION('',(-1.,0.,0.));
#1990 = ADVANCED_FACE('',(#1991),#2002,.T.);
#1991 = FACE_BOUND('',#1992,.T.);
#1992 = EDGE_LOOP('',(#1993,#1999,#2000,#2001));
#1993 = ORIENTED_EDGE('',*,*,#1994,.T.);
#1994 = EDGE_CURVE('',#215,#1007,#1995,.T.);
#1995 = LINE('',#1996,#1997);
#1996 = CARTESIAN_POINT('',(4.923102944951,-4.5,0.));
#1997 = VECTOR('',#1998,1.);
#1998 = DIRECTION('',(0.,0.,1.));
#1999 = ORIENTED_EDGE('',*,*,#1006,.T.);
#2000 = ORIENTED_EDGE('',*,*,#1979,.F.);
#2001 = ORIENTED_EDGE('',*,*,#222,.F.);
#2002 = PLANE('',#2003);
#2003 = AXIS2_PLACEMENT_3D('',#2004,#2005,#2006);
#2004 = CARTESIAN_POINT('',(4.923102944951,-4.5,0.));
#2005 = DIRECTION('',(0.939692620786,0.342020143325,0.));
#2006 = DIRECTION('',(0.342020143325,-0.939692620786,0.));
#2007 = ADVANCED_FACE('',(#2008),#2019,.T.);
#2008 = FACE_BOUND('',#2009,.T.);
#2009 = EDGE_LOOP('',(#2010,#2016,#2017,#2018));
#2010 = ORIENTED_EDGE('',*,*,#2011,.T.);
#2011 = EDGE_CURVE('',#207,#1015,#2012,.T.);
#2012 = LINE('',#2013,#2014);
#2013 = CARTESIAN_POINT('',(4.501675015819,-4.5,0.));
#2014 = VECTOR('',#2015,1.);
#2015 = DIRECTION('',(0.,0.,1.));
#2016 = ORIENTED_EDGE('',*,*,#1014,.T.);
#2017 = ORIENTED_EDGE('',*,*,#1994,.F.);
#2018 = ORIENTED_EDGE('',*,*,#214,.F.);
#2019 = PLANE('',#2020);
#2020 = AXIS2_PLACEMENT_3D('',#2021,#2022,#2023);
#2021 = CARTESIAN_POINT('',(4.501675015819,-4.5,0.));
#2022 = DIRECTION('',(0.,1.,0.));
#2023 = DIRECTION('',(1.,0.,0.));
#2024 = ADVANCED_FACE('',(#2025),#2036,.T.);
#2025 = FACE_BOUND('',#2026,.T.);
#2026 = EDGE_LOOP('',(#2027,#2033,#2034,#2035));
#2027 = ORIENTED_EDGE('',*,*,#2028,.T.);
#2028 = EDGE_CURVE('',#199,#1023,#2029,.T.);
#2029 = LINE('',#2030,#2031);
#2030 = CARTESIAN_POINT('',(4.09220850227,-5.625,0.));
#2031 = VECTOR('',#2032,1.);
#2032 = DIRECTION('',(0.,0.,1.));
#2033 = ORIENTED_EDGE('',*,*,#1022,.T.);
#2034 = ORIENTED_EDGE('',*,*,#2011,.F.);
#2035 = ORIENTED_EDGE('',*,*,#206,.F.);
#2036 = PLANE('',#2037);
#2037 = AXIS2_PLACEMENT_3D('',#2038,#2039,#2040);
#2038 = CARTESIAN_POINT('',(4.09220850227,-5.625,0.));
#2039 = DIRECTION('',(-0.939692620786,0.342020143325,0.));
#2040 = DIRECTION('',(0.342020143325,0.939692620786,0.));
#2041 = ADVANCED_FACE('',(#2042),#2053,.F.);
#2042 = FACE_BOUND('',#2043,.F.);
#2043 = EDGE_LOOP('',(#2044,#2045,#2046,#2052));
#2044 = ORIENTED_EDGE('',*,*,#2028,.T.);
#2045 = ORIENTED_EDGE('',*,*,#1030,.T.);
#2046 = ORIENTED_EDGE('',*,*,#2047,.F.);
#2047 = EDGE_CURVE('',#191,#1031,#2048,.T.);
#2048 = LINE('',#2049,#2050);
#2049 = CARTESIAN_POINT('',(3.761773131704,-5.625,0.));
#2050 = VECTOR('',#2051,1.);
#2051 = DIRECTION('',(0.,0.,1.));
#2052 = ORIENTED_EDGE('',*,*,#198,.F.);
#2053 = PLANE('',#2054);
#2054 = AXIS2_PLACEMENT_3D('',#2055,#2056,#2057);
#2055 = CARTESIAN_POINT('',(4.09220850227,-5.625,0.));
#2056 = DIRECTION('',(0.,-1.,0.));
#2057 = DIRECTION('',(-1.,0.,0.));
#2058 = ADVANCED_FACE('',(#2059),#2070,.T.);
#2059 = FACE_BOUND('',#2060,.T.);
#2060 = EDGE_LOOP('',(#2061,#2067,#2068,#2069));
#2061 = ORIENTED_EDGE('',*,*,#2062,.T.);
#2062 = EDGE_CURVE('',#183,#1039,#2063,.T.);
#2063 = LINE('',#2064,#2065);
#2064 = CARTESIAN_POINT('',(3.352306618156,-4.5,0.));
#2065 = VECTOR('',#2066,1.);
#2066 = DIRECTION('',(0.,0.,1.));
#2067 = ORIENTED_EDGE('',*,*,#1038,.T.);
#2068 = ORIENTED_EDGE('',*,*,#2047,.F.);
#2069 = ORIENTED_EDGE('',*,*,#190,.F.);
#2070 = PLANE('',#2071);
#2071 = AXIS2_PLACEMENT_3D('',#2072,#2073,#2074);
#2072 = CARTESIAN_POINT('',(3.352306618156,-4.5,0.));
#2073 = DIRECTION('',(0.939692620786,0.342020143325,0.));
#2074 = DIRECTION('',(0.342020143325,-0.939692620786,0.));
#2075 = ADVANCED_FACE('',(#2076),#2087,.T.);
#2076 = FACE_BOUND('',#2077,.T.);
#2077 = EDGE_LOOP('',(#2078,#2084,#2085,#2086));
#2078 = ORIENTED_EDGE('',*,*,#2079,.T.);
#2079 = EDGE_CURVE('',#175,#1047,#2080,.T.);
#2080 = LINE('',#2081,#2082);
#2081 = CARTESIAN_POINT('',(2.930878689024,-4.5,0.));
#2082 = VECTOR('',#2083,1.);
#2083 = DIRECTION('',(0.,0.,1.));
#2084 = ORIENTED_EDGE('',*,*,#1046,.T.);
#2085 = ORIENTED_EDGE('',*,*,#2062,.F.);
#2086 = ORIENTED_EDGE('',*,*,#182,.F.);
#2087 = PLANE('',#2088);
#2088 = AXIS2_PLACEMENT_3D('',#2089,#2090,#2091);
#2089 = CARTESIAN_POINT('',(2.930878689024,-4.5,0.));
#2090 = DIRECTION('',(0.,1.,0.));
#2091 = DIRECTION('',(1.,0.,0.));
#2092 = ADVANCED_FACE('',(#2093),#2104,.T.);
#2093 = FACE_BOUND('',#2094,.T.);
#2094 = EDGE_LOOP('',(#2095,#2101,#2102,#2103));
#2095 = ORIENTED_EDGE('',*,*,#2096,.T.);
#2096 = EDGE_CURVE('',#167,#1055,#2097,.T.);
#2097 = LINE('',#2098,#2099);
#2098 = CARTESIAN_POINT('',(2.521412175475,-5.625,0.));
#2099 = VECTOR('',#2100,1.);
#2100 = DIRECTION('',(0.,0.,1.));
#2101 = ORIENTED_EDGE('',*,*,#1054,.T.);
#2102 = ORIENTED_EDGE('',*,*,#2079,.F.);
#2103 = ORIENTED_EDGE('',*,*,#174,.F.);
#2104 = PLANE('',#2105);
#2105 = AXIS2_PLACEMENT_3D('',#2106,#2107,#2108);
#2106 = CARTESIAN_POINT('',(2.521412175475,-5.625,0.));
#2107 = DIRECTION('',(-0.939692620786,0.342020143325,0.));
#2108 = DIRECTION('',(0.342020143325,0.939692620786,0.));
#2109 = ADVANCED_FACE('',(#2110),#2121,.F.);
#2110 = FACE_BOUND('',#2111,.F.);
#2111 = EDGE_LOOP('',(#2112,#2113,#2114,#2120));
#2112 = ORIENTED_EDGE('',*,*,#2096,.T.);
#2113 = ORIENTED_EDGE('',*,*,#1062,.T.);
#2114 = ORIENTED_EDGE('',*,*,#2115,.F.);
#2115 = EDGE_CURVE('',#159,#1063,#2116,.T.);
#2116 = LINE('',#2117,#2118);
#2117 = CARTESIAN_POINT('',(2.190976804909,-5.625,0.));
#2118 = VECTOR('',#2119,1.);
#2119 = DIRECTION('',(0.,0.,1.));
#2120 = ORIENTED_EDGE('',*,*,#166,.F.);
#2121 = PLANE('',#2122);
#2122 = AXIS2_PLACEMENT_3D('',#2123,#2124,#2125);
#2123 = CARTESIAN_POINT('',(2.521412175475,-5.625,0.));
#2124 = DIRECTION('',(0.,-1.,0.));
#2125 = DIRECTION('',(-1.,0.,0.));
#2126 = ADVANCED_FACE('',(#2127),#2138,.T.);
#2127 = FACE_BOUND('',#2128,.T.);
#2128 = EDGE_LOOP('',(#2129,#2135,#2136,#2137));
#2129 = ORIENTED_EDGE('',*,*,#2130,.T.);
#2130 = EDGE_CURVE('',#151,#1071,#2131,.T.);
#2131 = LINE('',#2132,#2133);
#2132 = CARTESIAN_POINT('',(1.781510291361,-4.5,0.));
#2133 = VECTOR('',#2134,1.);
#2134 = DIRECTION('',(0.,0.,1.));
#2135 = ORIENTED_EDGE('',*,*,#1070,.T.);
#2136 = ORIENTED_EDGE('',*,*,#2115,.F.);
#2137 = ORIENTED_EDGE('',*,*,#158,.F.);
#2138 = PLANE('',#2139);
#2139 = AXIS2_PLACEMENT_3D('',#2140,#2141,#2142);
#2140 = CARTESIAN_POINT('',(1.781510291361,-4.5,0.));
#2141 = DIRECTION('',(0.939692620786,0.342020143325,0.));
#2142 = DIRECTION('',(0.342020143325,-0.939692620786,0.));
#2143 = ADVANCED_FACE('',(#2144),#2155,.T.);
#2144 = FACE_BOUND('',#2145,.T.);
#2145 = EDGE_LOOP('',(#2146,#2152,#2153,#2154));
#2146 = ORIENTED_EDGE('',*,*,#2147,.T.);
#2147 = EDGE_CURVE('',#143,#1079,#2148,.T.);
#2148 = LINE('',#2149,#2150);
#2149 = CARTESIAN_POINT('',(1.360082362229,-4.5,0.));
#2150 = VECTOR('',#2151,1.);
#2151 = DIRECTION('',(0.,0.,1.));
#2152 = ORIENTED_EDGE('',*,*,#1078,.T.);
#2153 = ORIENTED_EDGE('',*,*,#2130,.F.);
#2154 = ORIENTED_EDGE('',*,*,#150,.F.);
#2155 = PLANE('',#2156);
#2156 = AXIS2_PLACEMENT_3D('',#2157,#2158,#2159);
#2157 = CARTESIAN_POINT('',(1.360082362229,-4.5,0.));
#2158 = DIRECTION('',(0.,1.,0.));
#2159 = DIRECTION('',(1.,0.,0.));
#2160 = ADVANCED_FACE('',(#2161),#2172,.T.);
#2161 = FACE_BOUND('',#2162,.T.);
#2162 = EDGE_LOOP('',(#2163,#2169,#2170,#2171));
#2163 = ORIENTED_EDGE('',*,*,#2164,.T.);
#2164 = EDGE_CURVE('',#135,#1087,#2165,.T.);
#2165 = LINE('',#2166,#2167);
#2166 = CARTESIAN_POINT('',(0.95061584868,-5.625,0.));
#2167 = VECTOR('',#2168,1.);
#2168 = DIRECTION('',(0.,0.,1.));
#2169 = ORIENTED_EDGE('',*,*,#1086,.T.);
#2170 = ORIENTED_EDGE('',*,*,#2147,.F.);
#2171 = ORIENTED_EDGE('',*,*,#142,.F.);
#2172 = PLANE('',#2173);
#2173 = AXIS2_PLACEMENT_3D('',#2174,#2175,#2176);
#2174 = CARTESIAN_POINT('',(0.95061584868,-5.625,0.));
#2175 = DIRECTION('',(-0.939692620786,0.342020143325,0.));
#2176 = DIRECTION('',(0.342020143325,0.939692620786,0.));
#2177 = ADVANCED_FACE('',(#2178),#2184,.F.);
#2178 = FACE_BOUND('',#2179,.F.);
#2179 = EDGE_LOOP('',(#2180,#2181,#2182,#2183));
#2180 = ORIENTED_EDGE('',*,*,#2164,.T.);
#2181 = ORIENTED_EDGE('',*,*,#1094,.T.);
#2182 = ORIENTED_EDGE('',*,*,#1158,.F.);
#2183 = ORIENTED_EDGE('',*,*,#134,.F.);
#2184 = PLANE('',#2185);
#2185 = AXIS2_PLACEMENT_3D('',#2186,#2187,#2188);
#2186 = CARTESIAN_POINT('',(0.95061584868,-5.625,0.));
#2187 = DIRECTION('',(0.,-1.,0.));
#2188 = DIRECTION('',(-1.,0.,0.));
#2189 = ADVANCED_FACE('',(#2190),#2209,.F.);
#2190 = FACE_BOUND('',#2191,.T.);
#2191 = EDGE_LOOP('',(#2192,#2200,#2207,#2208));
#2192 = ORIENTED_EDGE('',*,*,#2193,.F.);
#2193 = EDGE_CURVE('',#2194,#1129,#2196,.T.);
#2194 = VERTEX_POINT('',#2195);
#2195 = CARTESIAN_POINT('',(-25.98867094675,-7.,2.5));
#2196 = LINE('',#2197,#2198);
#2197 = CARTESIAN_POINT('',(-25.98867094675,-7.,2.5));
#2198 = VECTOR('',#2199,1.);
#2199 = DIRECTION('',(7.E-17,1.,-2.2E-16));
#2200 = ORIENTED_EDGE('',*,*,#2201,.T.);
#2201 = EDGE_CURVE('',#2194,#2194,#2202,.T.);
#2202 = CIRCLE('',#2203,1.1);
#2203 = AXIS2_PLACEMENT_3D('',#2204,#2205,#2206);
#2204 = CARTESIAN_POINT('',(-24.88867094675,-7.,2.5));
#2205 = DIRECTION('',(0.,-1.,2.2E-16));
#2206 = DIRECTION('',(-1.,0.,0.));
#2207 = ORIENTED_EDGE('',*,*,#2193,.T.);
#2208 = ORIENTED_EDGE('',*,*,#1128,.T.);
#2209 = CYLINDRICAL_SURFACE('',#2210,1.1);
#2210 = AXIS2_PLACEMENT_3D('',#2211,#2212,#2213);
#2211 = CARTESIAN_POINT('',(-24.88867094675,-7.,2.5));
#2212 = DIRECTION('',(0.,1.,-2.2E-16));
#2213 = DIRECTION('',(-1.,0.,0.));
#2214 = ADVANCED_FACE('',(#2215),#2234,.F.);
#2215 = FACE_BOUND('',#2216,.T.);
#2216 = EDGE_LOOP('',(#2217,#2225,#2232,#2233));
#2217 = ORIENTED_EDGE('',*,*,#2218,.F.);
#2218 = EDGE_CURVE('',#2219,#1140,#2221,.T.);
#2219 = VERTEX_POINT('',#2220);
#2220 = CARTESIAN_POINT('',(-20.98867094675,-7.,2.5));
#2221 = LINE('',#2222,#2223);
#2222 = CARTESIAN_POINT('',(-20.98867094675,-7.,2.5));
#2223 = VECTOR('',#2224,1.);
#2224 = DIRECTION('',(7.E-17,1.,-2.2E-16));
#2225 = ORIENTED_EDGE('',*,*,#2226,.T.);
#2226 = EDGE_CURVE('',#2219,#2219,#2227,.T.);
#2227 = CIRCLE('',#2228,1.1);
#2228 = AXIS2_PLACEMENT_3D('',#2229,#2230,#2231);
#2229 = CARTESIAN_POINT('',(-19.88867094675,-7.,2.5));
#2230 = DIRECTION('',(0.,-1.,2.2E-16));
#2231 = DIRECTION('',(-1.,0.,0.));
#2232 = ORIENTED_EDGE('',*,*,#2218,.T.);
#2233 = ORIENTED_EDGE('',*,*,#1139,.T.);
#2234 = CYLINDRICAL_SURFACE('',#2235,1.1);
#2235 = AXIS2_PLACEMENT_3D('',#2236,#2237,#2238);
#2236 = CARTESIAN_POINT('',(-19.88867094675,-7.,2.5));
#2237 = DIRECTION('',(0.,1.,-2.2E-16));
#2238 = DIRECTION('',(-1.,0.,0.));
#2239 = ADVANCED_FACE('',(#2240),#2259,.F.);
#2240 = FACE_BOUND('',#2241,.T.);
#2241 = EDGE_LOOP('',(#2242,#2250,#2251,#2252));
#2242 = ORIENTED_EDGE('',*,*,#2243,.F.);
#2243 = EDGE_CURVE('',#1202,#2244,#2246,.T.);
#2244 = VERTEX_POINT('',#2245);
#2245 = CARTESIAN_POINT('',(-26.88867094675,-7.,2.5));
#2246 = LINE('',#2247,#2248);
#2247 = CARTESIAN_POINT('',(-26.88867094675,-9.,2.5));
#2248 = VECTOR('',#2249,1.);
#2249 = DIRECTION('',(0.,1.,-2.2E-16));
#2250 = ORIENTED_EDGE('',*,*,#1201,.T.);
#2251 = ORIENTED_EDGE('',*,*,#2243,.T.);
#2252 = ORIENTED_EDGE('',*,*,#2253,.F.);
#2253 = EDGE_CURVE('',#2244,#2244,#2254,.T.);
#2254 = CIRCLE('',#2255,2.);
#2255 = AXIS2_PLACEMENT_3D('',#2256,#2257,#2258);
#2256 = CARTESIAN_POINT('',(-24.88867094675,-7.,2.5));
#2257 = DIRECTION('',(0.,-1.,2.2E-16));
#2258 = DIRECTION('',(-1.,0.,0.));
#2259 = CYLINDRICAL_SURFACE('',#2260,2.);
#2260 = AXIS2_PLACEMENT_3D('',#2261,#2262,#2263);
#2261 = CARTESIAN_POINT('',(-24.88867094675,-9.,2.5));
#2262 = DIRECTION('',(0.,1.,-2.2E-16));
#2263 = DIRECTION('',(-1.,0.,0.));
#2264 = ADVANCED_FACE('',(#2265),#2284,.F.);
#2265 = FACE_BOUND('',#2266,.T.);
#2266 = EDGE_LOOP('',(#2267,#2275,#2276,#2277));
#2267 = ORIENTED_EDGE('',*,*,#2268,.F.);
#2268 = EDGE_CURVE('',#1213,#2269,#2271,.T.);
#2269 = VERTEX_POINT('',#2270);
#2270 = CARTESIAN_POINT('',(-21.88867094675,-7.,2.5));
#2271 = LINE('',#2272,#2273);
#2272 = CARTESIAN_POINT('',(-21.88867094675,-9.,2.5));
#2273 = VECTOR('',#2274,1.);
#2274 = DIRECTION('',(0.,1.,-2.2E-16));
#2275 = ORIENTED_EDGE('',*,*,#1212,.T.);
#2276 = ORIENTED_EDGE('',*,*,#2268,.T.);
#2277 = ORIENTED_EDGE('',*,*,#2278,.F.);
#2278 = EDGE_CURVE('',#2269,#2269,#2279,.T.);
#2279 = CIRCLE('',#2280,2.);
#2280 = AXIS2_PLACEMENT_3D('',#2281,#2282,#2283);
#2281 = CARTESIAN_POINT('',(-19.88867094675,-7.,2.5));
#2282 = DIRECTION('',(0.,-1.,2.2E-16));
#2283 = DIRECTION('',(-1.,0.,0.));
#2284 = CYLINDRICAL_SURFACE('',#2285,2.);
#2285 = AXIS2_PLACEMENT_3D('',#2286,#2287,#2288);
#2286 = CARTESIAN_POINT('',(-19.88867094675,-9.,2.5));
#2287 = DIRECTION('',(0.,1.,-2.2E-16));
#2288 = DIRECTION('',(-1.,0.,0.));
#2289 = ADVANCED_FACE('',(#2290,#2293),#2296,.T.);
#2290 = FACE_BOUND('',#2291,.T.);
#2291 = EDGE_LOOP('',(#2292));
#2292 = ORIENTED_EDGE('',*,*,#2253,.T.);
#2293 = FACE_BOUND('',#2294,.T.);
#2294 = EDGE_LOOP('',(#2295));
#2295 = ORIENTED_EDGE('',*,*,#2201,.F.);
#2296 = PLANE('',#2297);
#2297 = AXIS2_PLACEMENT_3D('',#2298,#2299,#2300);
#2298 = CARTESIAN_POINT('',(-24.88867094675,-7.,2.5));
#2299 = DIRECTION('',(0.,-1.,2.2E-16));
#2300 = DIRECTION('',(-1.,0.,0.));
#2301 = ADVANCED_FACE('',(#2302,#2305),#2308,.T.);
#2302 = FACE_BOUND('',#2303,.T.);
#2303 = EDGE_LOOP('',(#2304));
#2304 = ORIENTED_EDGE('',*,*,#2278,.T.);
#2305 = FACE_BOUND('',#2306,.T.);
#2306 = EDGE_LOOP('',(#2307));
#2307 = ORIENTED_EDGE('',*,*,#2226,.F.);
#2308 = PLANE('',#2309);
#2309 = AXIS2_PLACEMENT_3D('',#2310,#2311,#2312);
#2310 = CARTESIAN_POINT('',(-19.88867094675,-7.,2.5));
#2311 = DIRECTION('',(0.,-1.,2.2E-16));
#2312 = DIRECTION('',(-1.,0.,0.));
#2313 = ( GEOMETRIC_REPRESENTATION_CONTEXT(3) 
GLOBAL_UNCERTAINTY_ASSIGNED_CONTEXT((#2317)) 
GLOBAL_UNIT_ASSIGNED_CONTEXT((#2314,#2315,#2316)) REPRESENTATION_CONTEXT
('Context #1','3D Context with UNIT and UNCERTAINTY') );
#2314 = ( LENGTH_UNIT() NAMED_UNIT(*) SI_UNIT(.MILLI.,.METRE.) );
#2315 = ( NAMED_UNIT(*) PLANE_ANGLE_UNIT() SI_UNIT($,.RADIAN.) );
#2316 = ( NAMED_UNIT(*) SI_UNIT($,.STERADIAN.) SOLID_ANGLE_UNIT() );
#2317 = UNCERTAINTY_MEASURE_WITH_UNIT(LENGTH_MEASURE(1.E-07),#2314,
  'distance_accuracy_value','confusion accuracy');
#2318 = PRODUCT_RELATED_PRODUCT_CATEGORY('part',$,(#7));
#2319 = MECHANICAL_DESIGN_GEOMETRIC_PRESENTATION_REPRESENTATION('',(
    #2320),#2313);
#2320 = STYLED_ITEM('color',(#2321),#15);
#2321 = PRESENTATION_STYLE_ASSIGNMENT((#2322,#2328));
#2322 = SURFACE_STYLE_USAGE(.BOTH.,#2323);
#2323 = SURFACE_SIDE_STYLE('',(#2324));
#2324 = SURFACE_STYLE_FILL_AREA(#2325);
#2325 = FILL_AREA_STYLE('',(#2326));
#2326 = FILL_AREA_STYLE_COLOUR('',#2327);
#2327 = COLOUR_RGB('',0.800000010877,0.800000010877,0.901960800373);
#2328 = CURVE_STYLE('',#2329,POSITIVE_LENGTH_MEASURE(0.1),#2330);
#2329 = DRAUGHTING_PRE_DEFINED_CURVE_FONT('continuous');
#2330 = COLOUR_RGB('',9.803921802644E-02,9.803921802644E-02,
  9.803921802644E-02);
ENDSEC;
END-ISO-10303-21;
